<svg width="39" height="38" viewBox="0 0 39 38" fill="none" xmlns="http://www.w3.org/2000/svg">
<rect x="0.5" width="38" height="38" rx="6" fill="#00BED3" fill-opacity="0.1"/>
<path opacity="0.3" d="M28.6862 17.5604L27.3256 16.1796C27.2308 16.0866 27.1558 15.9752 27.1053 15.8523C27.0549 15.7294 27.0299 15.5975 27.032 15.4647V13.506C27.0307 13.2377 26.9765 12.9722 26.8723 12.725C26.7682 12.4777 26.6163 12.2534 26.4253 12.065C26.2343 11.8766 26.008 11.7279 25.7593 11.6273C25.5107 11.5267 25.2446 11.4762 24.9765 11.4788H23.0188C22.886 11.4809 22.7542 11.4559 22.6313 11.4054C22.5085 11.3549 22.3972 11.2799 22.3042 11.185L20.9339 9.80418C20.5521 9.42264 20.0346 9.20833 19.495 9.20833C18.9554 9.20833 18.4379 9.42264 18.0561 9.80418L16.676 11.1654C16.583 11.2603 16.4717 11.3353 16.3489 11.3858C16.2261 11.4364 16.0942 11.4613 15.9614 11.4592H14.0038C13.7356 11.4605 13.4703 11.5148 13.2231 11.619C12.9759 11.7231 12.7518 11.8751 12.5635 12.0662C12.3752 12.2573 12.2266 12.4838 12.126 12.7325C12.0255 12.9813 11.975 13.2475 11.9776 13.5158V15.4744C11.9797 15.6073 11.9547 15.7392 11.9043 15.8621C11.8538 15.985 11.7788 16.0963 11.684 16.1893L10.3038 17.5604C9.92246 17.9423 9.70825 18.4601 9.70825 19C9.70825 19.5399 9.92246 20.0576 10.3038 20.4396L11.6644 21.8204C11.7592 21.9134 11.8342 22.0248 11.8847 22.1477C11.9352 22.2706 11.9601 22.4025 11.958 22.5353V24.494C11.9593 24.7623 12.0136 25.0277 12.1177 25.275C12.2218 25.5223 12.3737 25.7466 12.5647 25.935C12.7557 26.1233 12.982 26.2721 13.2307 26.3727C13.4793 26.4733 13.7454 26.5238 14.0136 26.5212H15.9712C16.104 26.5191 16.2359 26.544 16.3587 26.5946C16.4815 26.6451 16.5928 26.7201 16.6858 26.815L18.0659 28.1958C18.4477 28.5773 18.9652 28.7917 19.5048 28.7917C20.0444 28.7917 20.5619 28.5773 20.9437 28.1958L22.314 26.8346C22.407 26.7396 22.5183 26.6647 22.6411 26.6141C22.764 26.5636 22.8958 26.5387 23.0286 26.5408H24.9862C25.5262 26.5408 26.0441 26.3261 26.4259 25.9441C26.8077 25.5621 27.0222 25.044 27.0222 24.5038V22.5451C27.0201 22.4123 27.0451 22.2804 27.0956 22.1575C27.146 22.0346 27.221 21.9232 27.3159 21.8302L28.696 20.4494C28.8857 20.2594 29.0359 20.0339 29.1381 19.7856C29.2403 19.5374 29.2925 19.2713 29.2916 19.0029C29.2907 18.7344 29.2367 18.4687 29.1328 18.2212C29.0289 17.9736 28.8772 17.749 28.6862 17.5604Z" fill="#0096B8"/>
<path d="M18.235 22.2107C18.1359 22.2093 18.0381 22.1882 17.9471 22.1487C17.8562 22.1093 17.774 22.0521 17.7052 21.9806L15.336 19.5803C15.2632 19.5109 15.205 19.4275 15.165 19.3351C15.1251 19.2428 15.1041 19.1433 15.1033 19.0427C15.1025 18.942 15.122 18.8422 15.1606 18.7493C15.1992 18.6563 15.2561 18.5721 15.3279 18.5016C15.3997 18.4311 15.4849 18.3758 15.5786 18.3389C15.6722 18.3021 15.7723 18.2845 15.8728 18.2871C15.9734 18.2898 16.0724 18.3127 16.1639 18.3544C16.2555 18.3962 16.3377 18.4559 16.4057 18.5301L18.245 20.4004L22.6235 16.1197C22.7641 15.9792 22.9547 15.9003 23.1534 15.9003C23.352 15.9003 23.5426 15.9792 23.6832 16.1197C23.8236 16.2604 23.9024 16.451 23.9024 16.6498C23.9024 16.8486 23.8236 17.0392 23.6832 17.1799L18.7649 22.0006C18.6948 22.069 18.6119 22.1227 18.521 22.1588C18.43 22.1948 18.3329 22.2125 18.235 22.2107Z" fill="#004B53"/>
</svg>
