<svg width="14" height="16" viewBox="0 0 14 16" fill="none" xmlns="http://www.w3.org/2000/svg">
<path d="M10.6734 0.833284H3.34005C2.96916 0.831529 2.60157 0.902954 2.25832 1.04347C1.91508 1.18399 1.60293 1.39083 1.33974 1.65216C1.07655 1.91349 0.867501 2.22417 0.724558 2.56641C0.581614 2.90865 0.507587 3.27573 0.506714 3.64662V12.3533C0.507587 12.7242 0.581614 13.0913 0.724558 13.4335C0.867501 13.7757 1.07655 14.0864 1.33974 14.3477C1.60293 14.6091 1.91508 14.8159 2.25832 14.9564C2.60157 15.0969 2.96916 15.1684 3.34005 15.1666H10.6734C11.419 15.1649 12.1335 14.8679 12.6608 14.3407C13.188 13.8134 13.485 13.0989 13.4867 12.3533V3.64662C13.485 2.90102 13.188 2.18646 12.6608 1.65923C12.1335 1.13201 11.419 0.835044 10.6734 0.833284ZM12.4867 12.3533C12.4867 12.8342 12.2957 13.2954 11.9556 13.6355C11.6155 13.9756 11.1543 14.1666 10.6734 14.1666H3.34005C2.85912 14.1666 2.39789 13.9756 2.05783 13.6355C1.71776 13.2954 1.52671 12.8342 1.52671 12.3533V11.9533C1.52847 11.5684 1.68215 11.1997 1.95432 10.9276C2.2265 10.6554 2.59514 10.5017 2.98005 10.5H12.5067L12.4867 12.3533ZM2.96005 9.49995C2.43439 9.50571 1.92465 9.68108 1.50671 9.99995V3.64662C1.5067 3.40679 1.55426 3.16935 1.64663 2.94803C1.73901 2.72672 1.87437 2.52592 2.04488 2.35727C2.21539 2.18863 2.41765 2.05548 2.63997 1.96553C2.86229 1.87559 3.10024 1.83064 3.34005 1.83328H10.6734C11.1543 1.83328 11.6155 2.02433 11.9556 2.3644C12.2957 2.70446 12.4867 3.16569 12.4867 3.64662V9.49995H2.96005ZM10.3934 4.66662C10.3917 4.79869 10.3384 4.92486 10.245 5.01826C10.1516 5.11166 10.0255 5.16489 9.89338 5.16662H4.10671C3.97411 5.16662 3.84693 5.11394 3.75316 5.02017C3.65939 4.9264 3.60671 4.79923 3.60671 4.66662C3.60671 4.53401 3.65939 4.40683 3.75316 4.31306C3.84693 4.2193 3.97411 4.16662 4.10671 4.16662H9.89338C10.0255 4.16834 10.1516 4.22158 10.245 4.31497C10.3384 4.40837 10.3917 4.53455 10.3934 4.66662ZM8.46671 7.04662C8.46671 7.17923 8.41404 7.3064 8.32027 7.40017C8.2265 7.49394 8.09932 7.54662 7.96671 7.54662H4.10671C3.97411 7.54662 3.84693 7.49394 3.75316 7.40017C3.65939 7.3064 3.60671 7.17923 3.60671 7.04662C3.60671 6.91401 3.65939 6.78683 3.75316 6.69306C3.84693 6.5993 3.97411 6.54662 4.10671 6.54662H7.96671C8.09878 6.54834 8.22496 6.60158 8.31836 6.69497C8.41176 6.78837 8.46499 6.91455 8.46671 7.04662Z" fill="#0311D0"/>
</svg>
