<svg width="39" height="39" viewBox="0 0 39 39" fill="none" xmlns="http://www.w3.org/2000/svg">
<rect x="0.5" y="0.5" width="38" height="38" rx="6" fill="#EAFFF1"/>
<path d="M16.3651 15.0999C16.2959 15.0155 16.2522 14.9131 16.2392 14.8048C16.2262 14.6964 16.2445 14.5866 16.292 14.4883C16.3394 14.39 16.4139 14.3073 16.5068 14.25C16.5997 14.1927 16.707 14.1631 16.8161 14.1649H22.2501C22.3584 14.1654 22.4644 14.196 22.5562 14.2534C22.6481 14.3107 22.7221 14.3925 22.7701 14.4896C22.818 14.5867 22.838 14.6952 22.8278 14.803C22.8176 14.9107 22.7775 15.0136 22.7121 15.0999L20.0501 18.6859C19.9957 18.7566 19.9257 18.8139 19.8456 18.8533C19.7655 18.8928 19.6774 18.9133 19.5881 18.9133C19.4989 18.9133 19.4108 18.8928 19.3307 18.8533C19.2506 18.8139 19.1806 18.7566 19.1261 18.6859L16.3651 15.0999ZM25.4071 15.8809C25.3191 15.817 25.2194 15.7712 25.1136 15.746C25.0078 15.7208 24.8981 15.7168 24.7908 15.7342C24.6834 15.7516 24.5806 15.79 24.4881 15.8473C24.3957 15.9045 24.3155 15.9795 24.2521 16.0679L19.5001 22.5909L14.7371 16.0789C14.6774 15.9811 14.5979 15.8969 14.5039 15.8316C14.4098 15.7663 14.3031 15.7213 14.1907 15.6994C14.0782 15.6776 13.9625 15.6794 13.8508 15.7047C13.7391 15.7301 13.6339 15.7784 13.5419 15.8466C13.4499 15.9149 13.3731 16.0015 13.3164 16.101C13.2597 16.2006 13.2244 16.3108 13.2127 16.4248C13.2009 16.5387 13.213 16.6538 13.2483 16.7628C13.2835 16.8718 13.341 16.9723 13.4171 17.0579L18.9171 24.4719C18.9934 24.5757 19.0927 24.6606 19.2072 24.7197C19.3217 24.7789 19.4483 24.8107 19.5771 24.8129C19.7083 24.8152 19.8381 24.7853 19.9551 24.7259C20.0721 24.6664 20.1727 24.5792 20.2481 24.4719L25.6381 17.0579C25.6999 16.9672 25.7429 16.8651 25.7647 16.7577C25.7865 16.6502 25.7866 16.5394 25.7651 16.4319C25.7436 16.3243 25.7009 16.2222 25.6394 16.1313C25.5779 16.0405 25.499 15.9628 25.4071 15.9029V15.8809Z" fill="#04B440"/>
<path opacity="0.3" d="M19.5 30.5C25.5751 30.5 30.5 25.5751 30.5 19.5C30.5 13.4249 25.5751 8.5 19.5 8.5C13.4249 8.5 8.5 13.4249 8.5 19.5C8.5 25.5751 13.4249 30.5 19.5 30.5Z" fill="black" fill-opacity="0.2"/>
</svg>
