<svg width="24" height="25" viewBox="0 0 24 25" fill="none" xmlns="http://www.w3.org/2000/svg">
<path d="M8.86533 7.69215C8.79606 7.60782 8.75235 7.50542 8.73938 7.39706C8.72641 7.28869 8.74472 7.17887 8.79213 7.08057C8.83955 6.98227 8.9141 6.89959 9.00698 6.84228C9.09987 6.78497 9.20721 6.75543 9.31633 6.75715H14.7503C14.8586 6.75766 14.9646 6.78831 15.0564 6.84566C15.1483 6.90302 15.2223 6.98481 15.2703 7.08188C15.3182 7.17895 15.3382 7.28746 15.328 7.39525C15.3178 7.50303 15.2777 7.60584 15.2123 7.69215L12.5503 11.2782C12.4959 11.3489 12.4259 11.4062 12.3458 11.4456C12.2657 11.4851 12.1776 11.5056 12.0883 11.5056C11.9991 11.5056 11.911 11.4851 11.8309 11.4456C11.7508 11.4062 11.6808 11.3489 11.6263 11.2782L8.86533 7.69215ZM17.9073 8.47315C17.8193 8.40929 17.7196 8.36346 17.6138 8.33828C17.508 8.31311 17.3983 8.3091 17.2909 8.32648C17.1836 8.34386 17.0808 8.38228 16.9883 8.43955C16.8959 8.49681 16.8157 8.57178 16.7523 8.66015L12.0003 15.1832L7.23733 8.67115C7.17757 8.57343 7.09812 8.48922 7.00404 8.42389C6.90995 8.35856 6.80329 8.31354 6.69085 8.29169C6.57841 8.26985 6.46265 8.27165 6.35095 8.297C6.23924 8.32234 6.13404 8.37067 6.04204 8.43891C5.95004 8.50714 5.87325 8.59379 5.81657 8.69332C5.75989 8.79286 5.72457 8.90311 5.71283 9.01705C5.7011 9.131 5.71323 9.24613 5.74844 9.35513C5.78364 9.46413 5.84116 9.5646 5.91733 9.65015L11.4173 17.0642C11.4936 17.168 11.5929 17.2528 11.7074 17.312C11.8219 17.3711 11.9485 17.403 12.0773 17.4052C12.2085 17.4075 12.3383 17.3776 12.4553 17.3181C12.5722 17.2587 12.6729 17.1715 12.7483 17.0642L18.1383 9.65015C18.2 9.55948 18.2431 9.45743 18.2649 9.34994C18.2867 9.24245 18.2868 9.1317 18.2653 9.02416C18.2438 8.91661 18.201 8.81444 18.1396 8.72361C18.0781 8.63277 17.9992 8.55511 17.9073 8.49515V8.47315Z" fill="#404040" fill-opacity="0.7"/>
<path opacity="0.3" d="M12 23.0923C18.0751 23.0923 23 18.1674 23 12.0923C23 6.01715 18.0751 1.09229 12 1.09229C5.92487 1.09229 1 6.01715 1 12.0923C1 18.1674 5.92487 23.0923 12 23.0923Z" fill="black"/>
</svg>
