<svg width="24" height="24" viewBox="0 0 24 24" fill="none" xmlns="http://www.w3.org/2000/svg">
<path fill-rule="evenodd" clip-rule="evenodd" d="M12.0001 23C11.207 23.0021 10.4276 22.794 9.74106 22.3969L4.11896 19.1565C3.43588 18.7585 2.86889 18.1887 2.47436 17.5037C2.07983 16.8186 1.87151 16.0422 1.87012 15.2517V8.75049C1.87151 7.95996 2.07983 7.18356 2.47436 6.49851C2.86889 5.81346 3.43588 5.24363 4.11896 4.84569L9.74106 1.60531C10.4279 1.20877 11.207 1 12.0001 1C12.7932 1 13.5723 1.20877 14.2592 1.60531L19.8813 4.84569C20.5643 5.24363 21.1313 5.81346 21.5259 6.49851C21.9204 7.18356 22.1287 7.95996 22.1301 8.75049V15.2517C22.1287 16.0422 21.9204 16.8186 21.5259 17.5037C21.1313 18.1887 20.5643 18.7585 19.8813 19.1565L14.2592 22.3969C13.5733 22.7954 12.7934 23.0036 12.0001 23ZM12.0001 2.55596C11.4777 2.5562 10.964 2.6899 10.5077 2.9444L4.84472 6.17455C4.40179 6.44214 4.03604 6.82028 3.78336 7.27188C3.53068 7.72348 3.39975 8.23302 3.40342 8.75049V15.2517C3.39975 15.7692 3.53068 16.2787 3.78336 16.7303C4.03604 17.1819 4.40179 17.56 4.84472 17.8276L10.4668 21.0782C10.9232 21.3324 11.4369 21.4659 11.9592 21.4659C12.4816 21.4659 12.9953 21.3324 13.4516 21.0782L19.1555 17.8276C19.606 17.5651 19.98 17.1892 20.24 16.7372C20.5001 16.2853 20.6372 15.7731 20.6377 15.2517V8.75049C20.6372 8.22907 20.5001 7.71688 20.24 7.26493C19.98 6.81298 19.606 6.43704 19.1555 6.17455L13.5334 2.92395C13.0651 2.66262 12.5364 2.52869 12.0001 2.53552V2.55596ZM12 13.4319C12.2711 13.4319 12.5311 13.3242 12.7228 13.1325C12.9145 12.9408 13.0222 12.6808 13.0222 12.4097V7.64622C13.0222 7.37512 12.9145 7.11512 12.7228 6.92342C12.5311 6.73172 12.2711 6.62402 12 6.62402C11.7289 6.62402 11.4689 6.73172 11.2772 6.92342C11.0855 7.11512 10.9778 7.37512 10.9778 7.64622V12.4097C10.9778 12.6808 11.0855 12.9408 11.2772 13.1325C11.4689 13.3242 11.7289 13.4319 12 13.4319ZM13.2777 16.1C13.2777 16.8057 12.7056 17.3778 11.9999 17.3778C11.2942 17.3778 10.7222 16.8057 10.7222 16.1C10.7222 15.3943 11.2942 14.8223 11.9999 14.8223C12.7056 14.8223 13.2777 15.3943 13.2777 16.1Z" fill="black"/>
</svg>
