<svg width="14" height="8" viewBox="0 0 14 8" fill="none" xmlns="http://www.w3.org/2000/svg">
<path d="M9.09003 0.807791V3.43454H0.902756C0.751746 3.43454 0.606922 3.49452 0.500142 3.6013C0.393363 3.70808 0.333374 3.85291 0.333374 4.00392C0.333374 4.15493 0.393363 4.29975 0.500142 4.40653C0.606922 4.51331 0.751746 4.5733 0.902756 4.5733H9.09003V7.19245C9.08919 7.26409 9.10993 7.33432 9.14955 7.394C9.18918 7.45369 9.24585 7.50006 9.31219 7.52709C9.37854 7.55412 9.45149 7.56056 9.52154 7.54555C9.59159 7.53055 9.65551 7.49481 9.70496 7.44298L13.5602 4.25444C13.5939 4.22124 13.6207 4.18165 13.639 4.13799C13.6573 4.09433 13.6667 4.04746 13.6667 4.00012C13.6667 3.95278 13.6573 3.90591 13.639 3.86225C13.6207 3.81859 13.5939 3.779 13.5602 3.7458L9.70496 0.557263C9.65551 0.505433 9.59159 0.469691 9.52154 0.454689C9.45149 0.439687 9.37854 0.446118 9.31219 0.473148C9.24585 0.500178 9.18918 0.546554 9.14955 0.606239C9.10993 0.665925 9.08919 0.736155 9.09003 0.807791Z" fill="#404040"/>
</svg>
