<svg width="14" height="8" viewBox="0 0 14 8" fill="none" xmlns="http://www.w3.org/2000/svg">
<path d="M4.91005 7.19221V4.56546H13.0973C13.2483 4.56546 13.3932 4.50548 13.4999 4.3987C13.6067 4.29192 13.6667 4.14709 13.6667 3.99608C13.6667 3.84507 13.6067 3.70025 13.4999 3.59347C13.3932 3.48669 13.2483 3.4267 13.0973 3.4267H4.91005V0.807547C4.91089 0.735912 4.89015 0.66568 4.85053 0.605995C4.81091 0.54631 4.75423 0.499934 4.68789 0.472904C4.62154 0.445875 4.54859 0.439442 4.47854 0.454445C4.40849 0.469447 4.34457 0.505189 4.29512 0.557019L0.439916 3.74555C0.406174 3.77876 0.379378 3.81835 0.361087 3.86201C0.342795 3.90567 0.333374 3.95254 0.333374 3.99988C0.333374 4.04722 0.342795 4.09408 0.361087 4.13775C0.379378 4.18141 0.406174 4.221 0.439916 4.2542L4.29512 7.44274C4.34457 7.49457 4.40849 7.53031 4.47854 7.54531C4.54859 7.56031 4.62154 7.55388 4.68789 7.52685C4.75423 7.49982 4.81091 7.45345 4.85053 7.39376C4.89015 7.33407 4.91089 7.26384 4.91005 7.19221Z" fill="#000" fill-opacity="0.2"/>
</svg>
