<svg width="21" height="20" viewBox="0 0 21 20" fill="none" xmlns="http://www.w3.org/2000/svg">
<path d="M19.4587 5.47112V5.88321H1.54199V5.47112C1.54199 4.6942 1.85062 3.94911 2.39999 3.39974C2.94935 2.85038 3.69445 2.54175 4.47137 2.54175H16.5293C17.3062 2.54175 18.0513 2.85038 18.6007 3.39974C19.15 3.94911 19.4587 4.6942 19.4587 5.47112ZM19.4587 8.15862V14.5463C19.4575 14.9298 19.3808 15.3094 19.2329 15.6632C19.0851 16.0171 18.869 16.3384 18.597 16.6088C18.3249 16.8791 18.0023 17.0932 17.6476 17.2389C17.2928 17.3846 16.9128 17.459 16.5293 17.4578H4.47137C4.0871 17.459 3.70638 17.3843 3.35102 17.2381C2.99567 17.0918 2.67266 16.8769 2.40053 16.6056C2.12839 16.3343 1.91247 16.0119 1.76515 15.657C1.61783 15.3021 1.54199 14.9216 1.54199 14.5374V8.14966L19.4587 8.15862ZM12.3726 14.8599C12.3703 14.6824 12.2988 14.5129 12.1733 14.3874C12.0478 14.2619 11.8782 14.1903 11.7007 14.188H10.366C10.1878 14.188 10.0169 14.2588 9.89086 14.3848C9.76486 14.5108 9.69408 14.6817 9.69408 14.8599C9.69408 15.0381 9.76486 15.209 9.89086 15.335C10.0169 15.461 10.1878 15.5317 10.366 15.5317H11.7007C11.8798 15.5294 12.0506 15.4566 12.1764 15.3292C12.3021 15.2018 12.3726 15.0299 12.3726 14.8509V14.8599ZM17.7476 14.8599C17.7453 14.6824 17.6738 14.5129 17.5483 14.3874C17.4228 14.2619 17.2532 14.1903 17.0757 14.188H13.9045C13.7263 14.188 13.5554 14.2588 13.4294 14.3848C13.3034 14.5108 13.2326 14.6817 13.2326 14.8599C13.2326 15.0381 13.3034 15.209 13.4294 15.335C13.5554 15.461 13.7263 15.5317 13.9045 15.5317H17.0847C17.2637 15.5294 17.4346 15.4566 17.5603 15.3292C17.6861 15.2018 17.7566 15.0299 17.7566 14.8509L17.7476 14.8599Z" fill="white"/>
</svg>
