<svg width="25" height="19" viewBox="0 0 25 19" fill="none" xmlns="http://www.w3.org/2000/svg">
<path d="M19.0728 4.75153L19.0616 4.73652C19.0034 4.65207 18.8871 4.6333 18.8045 4.69148L17.3783 5.68984C17.2938 5.74801 17.275 5.86436 17.3332 5.94693L17.3445 5.96195C17.4027 6.04639 17.519 6.06516 17.6016 6.00698L19.0278 5.00863C19.1104 4.95045 19.131 4.8341 19.0728 4.75153ZM22.8336 10.3814L22.0604 13.9882C21.869 14.8852 21.4355 15.5702 20.82 16.0394C20.394 16.364 19.8854 16.5798 19.313 16.6868L19.8197 17.7715C19.9286 18.006 19.8272 18.2857 19.5927 18.3945C19.3581 18.5033 19.0785 18.402 18.9696 18.1674L18.3128 16.7637H7.08691L6.4301 18.1674C6.32125 18.402 6.04164 18.5033 5.80706 18.3945C5.57248 18.2857 5.47115 18.006 5.57999 17.7715L6.05853 16.7468C5.32665 16.683 4.72613 16.4485 4.24197 16.0469C3.67711 15.5777 3.29052 14.8965 3.0597 14.0089L2.10826 10.3814H1.36512C1.12867 10.3814 0.912855 10.2838 0.755219 10.128V10.1261L0.753343 10.128C0.597584 9.97039 0.5 9.75458 0.5 9.51625V8.72995C0.5 8.49162 0.597584 8.27581 0.753343 8.11817C0.764602 8.10691 0.777739 8.09378 0.790875 8.08439C0.942881 7.9474 1.14368 7.86483 1.36324 7.86483H1.47772C1.50962 7.52329 1.64098 7.20051 1.84365 6.91902C2.05008 6.63002 2.33533 6.38418 2.65998 6.21529C2.98651 6.04452 3.3562 5.94881 3.72965 5.96007C4.05806 5.97133 4.38459 6.06141 4.68672 6.25282C4.81809 6.06141 4.98135 5.89063 5.16901 5.74989C5.53683 5.47403 5.9966 5.30888 6.4939 5.30888C6.90676 5.30888 7.29334 5.42148 7.62175 5.61665C7.87884 5.76865 8.10028 5.9732 8.27293 6.21341C8.7965 6.2547 9.26941 6.47801 9.62409 6.81956C9.91497 7.10105 10.1251 7.46136 10.2171 7.86295H22.8373V3.20895C22.5633 1.86342 21.7864 1.49748 20.7487 1.64574C21.2159 2.46019 21.1559 3.28777 20.4934 4.13225C20.5779 4.26924 20.5704 4.41937 20.4784 4.57888L20.272 4.81721C20.1894 4.90166 20.0862 4.90917 19.953 4.8022L16.7815 1.59882C16.6952 1.49561 16.7121 1.40553 16.8134 1.32671C17.0386 1.05085 17.0667 1.00393 17.4665 1.07149C18.356 0.493496 19.2023 0.390282 19.9999 0.848176C22.0022 0.0262192 23.7062 1.05836 23.937 3.16016V7.91925C24.0552 7.96241 24.1603 8.03185 24.2467 8.11817C24.4024 8.27393 24.5 8.49162 24.5 8.72995V9.51625C24.5 9.75458 24.4024 9.97039 24.2467 10.128C24.0909 10.2838 23.8732 10.3814 23.6368 10.3814H22.8336ZM17.2769 3.20895L17.2657 3.19394C17.2075 3.10949 17.0911 3.09073 17.0086 3.1489L15.5823 4.14726C15.4979 4.20544 15.4791 4.32179 15.5373 4.40436L15.5486 4.41937C15.6067 4.50382 15.7231 4.52258 15.8057 4.46441L17.2319 3.46605C17.3163 3.40788 17.3351 3.29153 17.2769 3.20895ZM16.4568 2.38324L16.4456 2.36823C16.3874 2.28378 16.2711 2.26502 16.1885 2.32319L14.7623 3.32155C14.6778 3.37973 14.659 3.49608 14.7172 3.57865L14.7285 3.59366C14.7867 3.67811 14.903 3.69687 14.9856 3.6387L16.4118 2.64034C16.4944 2.58217 16.515 2.46582 16.4568 2.38324ZM18.0951 4.00651L18.0839 3.9915C18.0257 3.90705 17.9093 3.88829 17.8268 3.94646L16.4005 4.94482C16.3161 5.003 16.2973 5.11935 16.3555 5.20192L16.3668 5.21693C16.4249 5.30138 16.5413 5.32014 16.6239 5.26197L18.052 4.26361C18.1327 4.20544 18.1533 4.09096 18.0951 4.00651ZM2.43103 7.86483H9.23376C9.1737 7.72596 9.0855 7.6021 8.97666 7.49889C8.75334 7.28308 8.4437 7.14984 8.10028 7.14984C8.04774 7.14984 8.10404 7.14796 8.06838 7.14796L8.03648 7.14984C7.86007 7.15735 7.68555 7.06539 7.59923 6.89837C7.49789 6.70508 7.34025 6.54182 7.14696 6.42734C6.9593 6.31662 6.73598 6.25094 6.49765 6.25094C6.20866 6.25094 5.94405 6.34477 5.73575 6.50053C5.52745 6.65817 5.37169 6.87773 5.30413 7.1292C5.28161 7.22491 5.22719 7.31498 5.14462 7.38254C4.94382 7.54581 4.64731 7.51578 4.48405 7.31498C4.25323 7.03161 3.97549 6.90776 3.70338 6.89837C3.49695 6.89087 3.28677 6.94717 3.09723 7.04663C2.90582 7.14796 2.73692 7.29434 2.61119 7.46699C2.52299 7.59084 2.45918 7.72596 2.43103 7.86483ZM2.09512 8.80689C2.02006 8.82566 1.94499 8.82378 1.87368 8.80689H1.44206V9.43743H23.5598V8.80689H2.09512ZM3.07847 10.3814L3.96798 13.7724C4.14814 14.463 4.43338 14.9828 4.84248 15.3206C5.2422 15.6528 5.78079 15.8217 6.48076 15.8217H18.4442C19.1685 15.8217 19.7859 15.6434 20.2476 15.2925C20.6867 14.9584 20.9964 14.4574 21.139 13.793L21.8709 10.3814H3.07847Z" fill="#0311D0"/>
</svg>
