<svg width="25" height="21" viewBox="0 0 25 21" fill="none" xmlns="http://www.w3.org/2000/svg">
<path d="M1.32429 13.8968H23.6523V12.9846C23.6523 12.7639 23.6093 12.5588 23.5331 12.3752C23.4511 12.1799 23.33 12.006 23.1796 11.8556C23.0878 11.7638 22.9843 11.6798 22.8729 11.6056C22.7596 11.5294 22.6385 11.463 22.5116 11.4064C22.1697 11.3322 21.8299 11.2618 21.4919 11.1954C21.1521 11.129 20.8102 11.0665 20.4665 11.0079C20.4508 11.006 20.4391 11.004 20.4235 11.0001C20.2497 10.9708 20.0836 10.9435 19.9254 10.9181C19.7672 10.8927 19.5992 10.8673 19.4234 10.8399H19.4195C18.2241 10.6876 17.0326 10.5704 15.843 10.4922C14.6515 10.4141 13.4659 10.3751 12.2881 10.3731C11.5888 10.3731 10.8915 10.3848 10.1941 10.4122C9.50073 10.4395 8.80341 10.4786 8.10609 10.5333H8.10218C7.44978 10.5938 6.79934 10.67 6.14694 10.7579C5.4965 10.8458 4.8441 10.9493 4.1878 11.0646L4.11553 11.0821C4.10186 11.086 4.08818 11.088 4.07646 11.088C4.06474 11.09 4.05302 11.09 4.0413 11.09C3.73464 11.1446 3.42016 11.2052 3.09591 11.2697C2.78144 11.3322 2.46696 11.3986 2.15443 11.4669C2.0763 11.5099 2.00208 11.5587 1.93176 11.6095C1.86144 11.6623 1.79307 11.7189 1.73252 11.7795C1.60165 11.9103 1.49813 12.0607 1.42781 12.2287C1.3614 12.3869 1.32429 12.5627 1.32429 12.7541V13.8968ZM3.27366 0.739502H21.4373C21.6736 0.739502 21.9002 0.786381 22.1072 0.872325C22.3221 0.962176 22.5155 1.09305 22.6776 1.25322C22.8397 1.41534 22.9706 1.60871 23.0585 1.82357C23.1444 2.03062 23.1913 2.2572 23.1913 2.49355V10.8321C23.2909 10.8907 23.3886 10.9552 23.4784 11.0255C23.58 11.1036 23.6757 11.1857 23.7636 11.2736C23.9902 11.5001 24.1738 11.7638 24.2969 12.0607C24.4141 12.3401 24.4785 12.6506 24.4785 12.9866V14.1761C24.4844 14.1957 24.4902 14.2152 24.4941 14.2347V14.2386C24.498 14.264 24.5 14.2875 24.5 14.3109C24.5 14.3363 24.498 14.3617 24.4922 14.3871C24.4883 14.4066 24.4824 14.4262 24.4766 14.4457V19.8485C24.4766 19.9618 24.4297 20.0653 24.3555 20.1395C24.2812 20.2137 24.1777 20.2606 24.0644 20.2606H23.2147C23.119 20.2606 23.0311 20.2274 22.9608 20.1727C22.8905 20.118 22.8378 20.0399 22.8163 19.95C22.66 19.5008 22.5018 19.1453 22.3319 18.8679C22.1639 18.5945 21.9842 18.3991 21.7771 18.2605C21.5681 18.1218 21.3181 18.0339 21.0153 17.9811C20.7067 17.9264 20.3473 17.9089 19.9195 17.9108L4.34016 17.9304H4.33234C4.02568 17.9245 3.7737 17.9636 3.56275 18.0456C3.35375 18.1276 3.18381 18.2507 3.04318 18.4089C2.88496 18.5847 2.75214 18.8093 2.63103 19.0711C2.50798 19.3387 2.39664 19.6434 2.2853 19.9774C2.25796 20.0633 2.20326 20.1317 2.1349 20.1805C2.07044 20.2274 1.99231 20.2548 1.91222 20.2587C1.90636 20.2606 1.9005 20.2606 1.89464 20.2606H0.912143C0.798852 20.2606 0.695328 20.2137 0.621104 20.1395C0.546879 20.0653 0.5 19.9618 0.5 19.8485V12.7561C0.5 12.4494 0.558599 12.1682 0.664076 11.9142C0.777366 11.6447 0.943395 11.4044 1.15044 11.1974C1.20904 11.1388 1.2735 11.0802 1.34187 11.0255C1.40046 10.9786 1.45906 10.9337 1.52157 10.8927V2.47597C1.52157 2.23962 1.56845 2.015 1.65439 1.81185C1.74424 1.59895 1.87511 1.40752 2.03723 1.24736C2.19936 1.08719 2.39273 0.960223 2.60564 0.872325C2.81269 0.786381 3.03732 0.739502 3.27366 0.739502ZM21.4373 1.56379H3.27366C3.1467 1.56379 3.0256 1.58918 2.91426 1.63411C2.79902 1.68098 2.69744 1.74935 2.6115 1.83334C2.52751 1.91538 2.45914 2.01695 2.41226 2.12633C2.36929 2.23376 2.34585 2.35096 2.34585 2.47597V10.4962C2.40445 10.4766 2.46305 10.461 2.5236 10.4454C2.61931 10.42 2.71502 10.3985 2.81073 10.3829C2.94356 10.3594 3.0881 10.334 3.24436 10.3067C3.36156 10.2872 3.48657 10.2657 3.61549 10.2461V8.19909C3.61549 7.89047 3.67799 7.59553 3.78933 7.32597C3.90653 7.0447 4.07646 6.79273 4.28742 6.58177C4.49837 6.37082 4.75035 6.20088 5.03162 6.08369C5.30117 5.97235 5.59612 5.90984 5.90474 5.90984H9.77614C10.0848 5.90984 10.3797 5.97235 10.6493 6.08369C10.9305 6.20088 11.1825 6.37082 11.3935 6.58177C11.6044 6.79273 11.7744 7.0447 11.8916 7.32597C12.0029 7.59553 12.0654 7.89047 12.0654 8.19909V9.50584C12.2021 9.50389 12.3389 9.50389 12.4775 9.50389V8.19909C12.4775 7.89047 12.54 7.59553 12.6514 7.32597C12.7686 7.0447 12.9385 6.79273 13.1495 6.58177C13.3604 6.37082 13.6124 6.20088 13.8937 6.08369C14.1632 5.97235 14.4582 5.90984 14.7668 5.90984H18.6382C18.9468 5.90984 19.2418 5.97235 19.5113 6.08369C19.7926 6.20088 20.0446 6.37082 20.2555 6.58177C20.4665 6.79273 20.6364 7.0447 20.7536 7.32597C20.8649 7.59553 20.9274 7.89047 20.9274 8.19909V10.2188C21.0739 10.2403 21.2302 10.2657 21.3982 10.293C21.5837 10.3223 21.7615 10.3516 21.9334 10.3809C22.0213 10.3965 22.1111 10.4141 22.201 10.4356C22.2576 10.4493 22.3123 10.4629 22.3651 10.4786V2.49355C22.3651 2.36854 22.3397 2.24939 22.2947 2.14001C22.2479 2.02672 22.1775 1.92515 22.0916 1.83725C22.0057 1.7513 21.9021 1.68098 21.7908 1.63411C21.6814 1.58918 21.5623 1.56379 21.4373 1.56379ZM8.94014 9.63866C9.33275 9.60936 9.72731 9.58397 10.1277 9.56444C10.4969 9.5449 10.87 9.53123 11.2431 9.52147V8.19909C11.2431 8.00181 11.204 7.81234 11.1317 7.64045C11.0575 7.46075 10.9481 7.30058 10.8114 7.16385C10.6766 7.02908 10.5145 6.91969 10.3348 6.84351C10.1629 6.77124 9.97343 6.73218 9.77614 6.73218H5.90474C5.70745 6.73218 5.51799 6.77124 5.3461 6.84351C5.1664 6.91774 5.00623 7.02712 4.8695 7.16385C4.73472 7.29863 4.62534 7.46075 4.54916 7.64045C4.47689 7.81234 4.43782 8.00181 4.43782 8.19909V10.1153C4.75425 10.0684 5.07459 10.0254 5.40274 9.98244C5.75629 9.93752 6.10788 9.8965 6.45556 9.85743C6.59034 9.8418 6.73488 9.82422 6.88528 9.8086C7.02592 9.79297 7.17242 9.7793 7.32868 9.76367C7.59433 9.73828 7.85802 9.71484 8.11781 9.69335C8.38541 9.67577 8.65887 9.65624 8.94014 9.63866ZM13.3018 9.50975C13.5382 9.51365 13.7745 9.51951 14.0109 9.52733C14.2726 9.53514 14.5343 9.54686 14.7941 9.55858H14.7961C15.2239 9.5742 15.6419 9.59374 16.0481 9.61718C16.4544 9.64062 16.8509 9.66992 17.2299 9.70312C17.7807 9.75195 18.3139 9.81055 18.8198 9.87892C19.273 9.94142 19.7027 10.0117 20.1051 10.0899V8.19909C20.1051 8.00181 20.066 7.81234 19.9938 7.64045C19.9195 7.46075 19.8102 7.30058 19.6734 7.16385C19.5387 7.02908 19.3765 6.91969 19.1968 6.84351C19.0249 6.77124 18.8355 6.73218 18.6382 6.73218H14.7687C14.5715 6.73218 14.382 6.77124 14.2101 6.84351C14.0304 6.91774 13.8702 7.02712 13.7335 7.16385C13.5987 7.29863 13.4893 7.46075 13.4132 7.64045C13.3409 7.81234 13.3018 8.00181 13.3018 8.19909V9.50975ZM23.6542 14.7231H1.32429V19.4363H1.60361C1.71299 19.1277 1.82628 18.8406 1.95324 18.5847C2.08997 18.3112 2.24428 18.069 2.4318 17.86C2.65447 17.61 2.91621 17.4166 3.23069 17.2877C3.54517 17.1608 3.91239 17.0963 4.35383 17.1061L19.9195 17.0865C20.4215 17.0865 20.8513 17.11 21.2263 17.1822C21.6072 17.2545 21.9353 17.3776 22.2303 17.5729C22.5037 17.7546 22.7381 17.9948 22.9491 18.3093C23.1503 18.6101 23.33 18.9793 23.5019 19.4344H23.6503V14.7231H23.6542Z" fill="#0311D0"/>
</svg>
