<svg width="17" height="16" viewBox="0 0 17 16" fill="none" xmlns="http://www.w3.org/2000/svg">
<g clip-path="url(#clip0_114_6240)">
<path d="M15.5 1.14502H1.5C1.08499 1.14502 0.75 1.48001 0.75 1.89502V4.74502C0.75 5.16003 1.08499 5.49502 1.5 5.49502H2.10501V8.46002C2.10501 11.99 4.97501 14.855 8.5 14.855C12.025 14.855 14.895 11.99 14.895 8.46002V5.49502H15.5C15.915 5.49502 16.25 5.16003 16.25 4.74502V1.89502C16.25 1.48001 15.915 1.14502 15.5 1.14502ZM8.5 12.125C7.01502 12.125 5.805 10.915 5.805 9.42502C5.805 7.94003 7.01502 6.73001 8.5 6.73001C9.98499 6.73001 11.195 7.94003 11.195 9.42502C11.195 10.915 9.98499 12.125 8.5 12.125ZM14.75 3.99502H2.25V2.64502H14.75V3.99502Z" fill="black"/>
<path d="M8.49969 8.22998C7.83969 8.22998 7.30469 8.76498 7.30469 9.42498C7.30469 10.085 7.83969 10.625 8.49969 10.625C9.1597 10.625 9.6947 10.085 9.6947 9.42499C9.6947 8.76499 9.1597 8.22998 8.49969 8.22998Z" fill="black"/>
</g>
<defs>
<clipPath id="clip0_114_6240">
<rect width="16" height="16" fill="white" transform="translate(0.5)"/>
</clipPath>
</defs>
</svg>
