<svg width="15" height="14" viewBox="0 0 15 14" fill="none" xmlns="http://www.w3.org/2000/svg">
<path opacity="0.3" d="M7.49967 13.4166C11.0435 13.4166 13.9163 10.5437 13.9163 6.99992C13.9163 3.45609 11.0435 0.583252 7.49967 0.583252C3.95585 0.583252 1.08301 3.45609 1.08301 6.99992C1.08301 10.5437 3.95585 13.4166 7.49967 13.4166Z" fill="#1951FD"/>
<path d="M8.40478 7.00013L10.2207 5.18422C10.2879 5.12669 10.3424 5.05591 10.3809 4.9763C10.4195 4.89669 10.4411 4.80998 10.4445 4.72161C10.4479 4.63324 10.433 4.54512 10.4008 4.46278C10.3685 4.38043 10.3196 4.30565 10.257 4.24312C10.1945 4.18058 10.1197 4.13165 10.0374 4.09939C9.95505 4.06713 9.86693 4.05224 9.77856 4.05565C9.69019 4.05907 9.60348 4.08071 9.52387 4.11923C9.44426 4.15774 9.37347 4.2123 9.31595 4.27947L7.50003 6.09538L5.68412 4.27947C5.56136 4.17434 5.40346 4.11941 5.24197 4.12565C5.08048 4.13189 4.92729 4.19884 4.81301 4.31311C4.69873 4.42739 4.63179 4.58058 4.62555 4.74207C4.61931 4.90357 4.67424 5.06146 4.77937 5.18422L6.59528 7.00013L4.77937 8.81605C4.65985 8.93627 4.59277 9.09891 4.59277 9.26842C4.59277 9.43794 4.65985 9.60058 4.77937 9.7208C4.89959 9.84031 5.06222 9.90739 5.23174 9.90739C5.40126 9.90739 5.56389 9.84031 5.68412 9.7208L7.50003 7.90488L9.31595 9.7208C9.43617 9.84031 9.5988 9.90739 9.76832 9.90739C9.93784 9.90739 10.1005 9.84031 10.2207 9.7208C10.3402 9.60058 10.4073 9.43794 10.4073 9.26842C10.4073 9.09891 10.3402 8.93627 10.2207 8.81605L8.40478 7.00013Z" fill="#1951FD"/>
</svg>
