<svg width="14" height="14" viewBox="0 0 14 14" fill="none" xmlns="http://www.w3.org/2000/svg">
<g clip-path="url(#clip0_981_1676)">
<path opacity="0.3" d="M6.99967 13.4166C10.5435 13.4166 13.4163 10.5437 13.4163 6.99992C13.4163 3.45609 10.5435 0.583252 6.99967 0.583252C3.45585 0.583252 0.583008 3.45609 0.583008 6.99992C0.583008 10.5437 3.45585 13.4166 6.99967 13.4166Z" fill="white"/>
<path d="M6.814 9.38078L10.664 5.53078C10.7238 5.47096 10.7713 5.39993 10.8037 5.32176C10.836 5.24359 10.8527 5.15981 10.8527 5.0752C10.8527 4.99059 10.836 4.90681 10.8037 4.82864C10.7713 4.75047 10.7238 4.67945 10.664 4.61962C10.6042 4.55979 10.5331 4.51233 10.455 4.47995C10.3768 4.44757 10.293 4.43091 10.2084 4.43091C10.1238 4.43091 10.04 4.44757 9.96186 4.47995C9.88369 4.51233 9.81267 4.55979 9.75284 4.61962L6.35842 8.02045L4.24734 5.90295C4.12651 5.78212 3.96263 5.71424 3.79175 5.71424C3.62088 5.71424 3.457 5.78212 3.33617 5.90295C3.21534 6.02378 3.14746 6.18766 3.14746 6.35853C3.14746 6.52941 3.21534 6.69329 3.33617 6.81412L5.90284 9.38078C5.96249 9.44093 6.03346 9.48866 6.11165 9.52124C6.18984 9.55382 6.27371 9.57059 6.35842 9.57059C6.44313 9.57059 6.527 9.55382 6.60519 9.52124C6.68338 9.48866 6.75435 9.44093 6.814 9.38078Z" fill="white"/>
</g>
<defs>
<clipPath id="clip0_981_1676">
<rect width="14" height="14" fill="white"/>
</clipPath>
</defs>
</svg>
