<svg width="24" height="24" viewBox="0 0 24 24" fill="none" xmlns="http://www.w3.org/2000/svg">
<path opacity="0.3" d="M17.1815 22.75H2.325C2.03989 22.75 1.76646 22.6367 1.56486 22.4351C1.36326 22.2335 1.25 21.9601 1.25 21.675V6.8185C1.25 5.34164 1.83668 3.92527 2.88098 2.88098C3.92527 1.83668 5.34164 1.25 6.8185 1.25H17.1815C17.9128 1.25 18.6369 1.39403 19.3125 1.67388C19.9881 1.95372 20.6019 2.36389 21.119 2.88098C21.6361 3.39806 22.0463 4.01193 22.3261 4.68753C22.606 5.36313 22.75 6.08723 22.75 6.8185V17.1815C22.75 17.9128 22.606 18.6369 22.3261 19.3125C22.0463 19.9881 21.6361 20.6019 21.119 21.119C20.6019 21.6361 19.9881 22.0463 19.3125 22.3261C18.6369 22.606 17.9128 22.75 17.1815 22.75Z" fill="#404040" fill-opacity="0.7"/>
<path fill-rule="evenodd" clip-rule="evenodd" d="M6.88257 10.1188H17.1166C17.3304 10.1188 17.5355 10.0339 17.6867 9.8827C17.8379 9.7315 17.9228 9.52643 17.9228 9.3126C17.9228 9.09877 17.8379 8.89369 17.6867 8.74249C17.5355 8.59129 17.3304 8.50635 17.1166 8.50635H6.88257C6.66874 8.50635 6.46367 8.59129 6.31246 8.74249C6.16126 8.89369 6.07632 9.09877 6.07632 9.3126C6.07632 9.52643 6.16126 9.7315 6.31246 9.8827C6.46367 10.0339 6.66874 10.1188 6.88257 10.1188ZM6.88242 15.4937H13.7087C13.9225 15.4937 14.1276 15.4088 14.2788 15.2576C14.43 15.1064 14.5149 14.9013 14.5149 14.6875C14.5149 14.4737 14.43 14.2686 14.2788 14.1174C14.1276 13.9662 13.9225 13.8812 13.7087 13.8812H6.88242C6.66859 13.8812 6.46352 13.9662 6.31232 14.1174C6.16112 14.2686 6.07617 14.4737 6.07617 14.6875C6.07617 14.9013 6.16112 15.1064 6.31232 15.2576C6.46352 15.4088 6.66859 15.4937 6.88242 15.4937Z" fill="#404040" fill-opacity="0.7"/>
</svg>
