<svg width="38" height="39" viewBox="0 0 38 39" fill="none" xmlns="http://www.w3.org/2000/svg">
<rect y="0.5" width="38" height="38" rx="6" fill="#FFEEF3"/>
<path opacity="0.3" d="M24.1815 30.25H9.325C9.03989 30.25 8.76646 30.1367 8.56486 29.9351C8.36326 29.7335 8.25 29.4601 8.25 29.175V14.3185C8.25 12.8416 8.83668 11.4253 9.88098 10.381C10.9253 9.33668 12.3416 8.75 13.8185 8.75H24.1815C24.9128 8.75 25.6369 8.89403 26.3125 9.17388C26.9881 9.45372 27.6019 9.86389 28.119 10.381C28.6361 10.8981 29.0463 11.5119 29.3261 12.1875C29.606 12.8631 29.75 13.5872 29.75 14.3185V24.6815C29.75 25.4128 29.606 26.1369 29.3261 26.8125C29.0463 27.4881 28.6361 28.1019 28.119 28.619C27.6019 29.1361 26.9881 29.5463 26.3125 29.8261C25.6369 30.106 24.9128 30.25 24.1815 30.25Z" fill="#D81A48"/>
<path fill-rule="evenodd" clip-rule="evenodd" d="M13.8834 17.6188H24.1174C24.3312 17.6188 24.5363 17.5339 24.6875 17.3827C24.8387 17.2315 24.9236 17.0264 24.9236 16.8126C24.9236 16.5988 24.8387 16.3937 24.6875 16.2425C24.5363 16.0913 24.3312 16.0063 24.1174 16.0063H13.8834C13.6696 16.0063 13.4645 16.0913 13.3133 16.2425C13.1621 16.3937 13.0771 16.5988 13.0771 16.8126C13.0771 17.0264 13.1621 17.2315 13.3133 17.3827C13.4645 17.5339 13.6696 17.6188 13.8834 17.6188ZM13.8832 22.9937H20.7095C20.9233 22.9937 21.1284 22.9088 21.2796 22.7576C21.4308 22.6064 21.5157 22.4013 21.5157 22.1875C21.5157 21.9737 21.4308 21.7686 21.2796 21.6174C21.1284 21.4662 20.9233 21.3812 20.7095 21.3812H13.8832C13.6694 21.3812 13.4643 21.4662 13.3131 21.6174C13.1619 21.7686 13.077 21.9737 13.077 22.1875C13.077 22.4013 13.1619 22.6064 13.3131 22.7576C13.4643 22.9088 13.6694 22.9937 13.8832 22.9937Z" fill="#D81A48"/>
</svg>
