<svg width="24" height="25" viewBox="0 0 24 25" fill="none" xmlns="http://www.w3.org/2000/svg">
<path opacity="0.3" d="M17.1815 22.8423H2.325C2.03989 22.8423 1.76646 22.729 1.56486 22.5274C1.36326 22.3258 1.25 22.0524 1.25 21.7673V6.91079C1.25 5.43393 1.83668 4.01756 2.88098 2.97326C3.92527 1.92896 5.34164 1.34229 6.8185 1.34229H17.1815C17.9128 1.34229 18.6369 1.48632 19.3125 1.76616C19.9881 2.04601 20.6019 2.45618 21.119 2.97326C21.6361 3.49034 22.0463 4.10421 22.3261 4.77981C22.606 5.45541 22.75 6.17952 22.75 6.91079V17.2738C22.75 18.0051 22.606 18.7292 22.3261 19.4048C22.0463 20.0804 21.6361 20.6942 21.119 21.2113C20.6019 21.7284 19.9881 22.1386 19.3125 22.4184C18.6369 22.6983 17.9128 22.8423 17.1815 22.8423Z" fill="#0311D0"/>
<path fill-rule="evenodd" clip-rule="evenodd" d="M6.88257 10.2111H17.1166C17.3304 10.2111 17.5355 10.1262 17.6867 9.97499C17.8379 9.82379 17.9228 9.61871 17.9228 9.40488C17.9228 9.19105 17.8379 8.98598 17.6867 8.83478C17.5355 8.68358 17.3304 8.59863 17.1166 8.59863H6.88257C6.66874 8.59863 6.46367 8.68358 6.31246 8.83478C6.16126 8.98598 6.07632 9.19105 6.07632 9.40488C6.07632 9.61871 6.16126 9.82379 6.31246 9.97499C6.46367 10.1262 6.66874 10.2111 6.88257 10.2111ZM6.88242 15.586H13.7087C13.9225 15.586 14.1276 15.5011 14.2788 15.3499C14.43 15.1987 14.5149 14.9936 14.5149 14.7798C14.5149 14.566 14.43 14.3609 14.2788 14.2097C14.1276 14.0585 13.9225 13.9735 13.7087 13.9735H6.88242C6.66859 13.9735 6.46352 14.0585 6.31232 14.2097C6.16112 14.3609 6.07617 14.566 6.07617 14.7798C6.07617 14.9936 6.16112 15.1987 6.31232 15.3499C6.46352 15.5011 6.66859 15.586 6.88242 15.586Z" fill="#0311D0"/>
</svg>
