<svg width="24" height="25" viewBox="0 0 24 25" fill="none" xmlns="http://www.w3.org/2000/svg">
<path opacity="0.3" d="M3.70805 7.16762L9.19303 2.42326C9.98477 1.7389 10.9963 1.3623 12.0429 1.3623C13.0894 1.3623 14.101 1.7389 14.8927 2.42326L20.3348 7.19982C21.099 7.8686 21.7102 8.6941 22.127 9.62018C22.5437 10.5463 22.7562 11.5512 22.7499 12.5667V18.5991C22.7302 19.7248 22.2691 20.7977 21.4661 21.5867C20.663 22.3757 19.5821 22.8177 18.4563 22.8175H5.54353C4.40482 22.8175 3.31274 22.3652 2.50755 21.56C1.70235 20.7548 1.25 19.6627 1.25 18.524V12.4487C1.26199 11.4445 1.48735 10.4543 1.91113 9.54381C2.33491 8.63334 2.94742 7.82336 3.70805 7.16762Z" fill="#0311D0"/>
<path d="M16.2774 19.7907H7.69029C7.47678 19.7907 7.27202 19.7059 7.12104 19.5549C6.97007 19.404 6.88525 19.1992 6.88525 18.9857C6.88525 18.7722 6.97007 18.5674 7.12104 18.4165C7.27202 18.2655 7.47678 18.1807 7.69029 18.1807H16.2774C16.4909 18.1807 16.6956 18.2655 16.8466 18.4165C16.9976 18.5674 17.0824 18.7722 17.0824 18.9857C17.0824 19.1992 16.9976 19.404 16.8466 19.5549C16.6956 19.7059 16.4909 19.7907 16.2774 19.7907Z" fill="#0311D0"/>
</svg>
