<svg width="12" height="12" viewBox="0 0 12 12" fill="none" xmlns="http://www.w3.org/2000/svg">
<path d="M10.858 3.56836C10.8838 3.63662 10.8927 3.71012 10.8837 3.78255C10.8748 3.85497 10.8484 3.92414 10.8068 3.9841C10.7652 4.04405 10.7097 4.093 10.645 4.12671C10.5803 4.16043 10.5083 4.17791 10.4354 4.17764H1.65293C1.56487 4.17563 1.47858 4.15245 1.40137 4.11007C1.32415 4.06769 1.25826 4.00734 1.20928 3.93414C1.16029 3.86093 1.12964 3.777 1.11992 3.68946C1.1102 3.60191 1.1217 3.51331 1.15343 3.43114C1.31821 3.03422 1.56687 2.67764 1.88236 2.38582C2.19786 2.09401 2.57273 1.87388 2.98127 1.74052V0.878743C2.98552 0.782631 3.02671 0.69187 3.09625 0.625395C3.1658 0.558919 3.25832 0.521862 3.35453 0.521956C3.45498 0.521956 3.55131 0.561859 3.62234 0.632887C3.69337 0.703915 3.73327 0.80025 3.73327 0.900699V1.61976C3.79365 1.61976 3.84854 1.61976 3.90892 1.61976H5.70383V0.878743C5.70383 0.778294 5.74373 0.681959 5.81476 0.610931C5.88579 0.539903 5.98212 0.5 6.08257 0.5C6.18302 0.5 6.27935 0.539903 6.35038 0.610931C6.42141 0.681959 6.46131 0.778294 6.46131 0.878743V1.58134H8.05313C8.11351 1.58134 8.1684 1.58134 8.22878 1.58134V0.878743C8.23302 0.782631 8.27421 0.69187 8.34376 0.625395C8.4133 0.558919 8.50583 0.521862 8.60203 0.521956C8.70248 0.521956 8.79882 0.561859 8.86984 0.632887C8.94087 0.703915 8.98077 0.80025 8.98077 0.900699V1.74052C9.41244 1.88169 9.80606 2.11982 10.1315 2.43665C10.4568 2.75349 10.7054 3.14061 10.858 3.56836ZM10.6 4.91317H1.40044C1.28106 4.91317 1.16658 4.96059 1.08217 5.045C0.997757 5.12941 0.950336 5.2439 0.950336 5.36327V8.48104C0.944515 8.87541 1.01717 9.267 1.16407 9.63303C1.31097 9.99906 1.52919 10.3322 1.80603 10.6132C2.08287 10.8941 2.41281 11.1172 2.77665 11.2694C3.14049 11.4217 3.53097 11.5 3.92539 11.5H8.07509C8.46578 11.5 8.85264 11.423 9.21359 11.2735C9.57454 11.124 9.9025 10.9049 10.1788 10.6286C10.455 10.3524 10.6742 10.0244 10.8237 9.66345C10.9732 9.3025 11.0501 8.91564 11.0501 8.52495V5.38523C11.0531 5.3243 11.0437 5.2634 11.0224 5.20623C11.0011 5.14907 10.9684 5.09682 10.9263 5.05267C10.8842 5.00852 10.8336 4.97339 10.7775 4.94941C10.7214 4.92543 10.661 4.9131 10.6 4.91317ZM4.19984 9.22754C4.10804 9.22646 4.01859 9.19831 3.94272 9.14663C3.86684 9.09495 3.80789 9.02203 3.77326 8.937C3.73863 8.85198 3.72985 8.75862 3.74803 8.66863C3.76621 8.57864 3.81053 8.49602 3.87545 8.4311C3.94036 8.36618 4.02299 8.32186 4.11298 8.30368C4.20297 8.2855 4.29633 8.29428 4.38135 8.32891C4.46638 8.36354 4.5393 8.42249 4.59098 8.49837C4.64266 8.57425 4.67081 8.66369 4.67189 8.75549C4.67263 8.81768 4.66092 8.8794 4.63746 8.937C4.614 8.99461 4.57925 9.04694 4.53527 9.09092C4.49129 9.1349 4.43896 9.16965 4.38135 9.19311C4.32375 9.21657 4.26203 9.22828 4.19984 9.22754ZM4.19984 7.47106C4.1078 7.46997 4.01814 7.44169 3.94214 7.38977C3.86614 7.33785 3.80719 7.26461 3.77272 7.17927C3.73825 7.09392 3.72979 7.00029 3.7484 6.91015C3.76702 6.82001 3.81188 6.73739 3.87735 6.67269C3.94281 6.60798 4.02595 6.56409 4.1163 6.54653C4.20666 6.52897 4.30018 6.53852 4.38512 6.57399C4.47005 6.60946 4.5426 6.66926 4.59363 6.74586C4.64466 6.82246 4.67189 6.91245 4.67189 7.00449C4.67189 7.12823 4.62274 7.2469 4.53524 7.3344C4.44774 7.4219 4.32907 7.47106 4.20533 7.47106H4.19984ZM5.96181 7.47106C5.86978 7.46997 5.78012 7.44169 5.70411 7.38977C5.62811 7.33785 5.56917 7.26461 5.53469 7.17927C5.50022 7.09392 5.49176 7.00029 5.51038 6.91015C5.529 6.82001 5.57386 6.73739 5.63932 6.67269C5.70479 6.60798 5.78793 6.56409 5.87828 6.54653C5.96863 6.52897 6.06216 6.53852 6.14709 6.57399C6.23203 6.60946 6.30457 6.66926 6.3556 6.74586C6.40663 6.82246 6.43386 6.91245 6.43387 7.00449C6.43387 7.12823 6.38471 7.2469 6.29721 7.3344C6.20972 7.4219 6.09104 7.47106 5.9673 7.47106H5.96181Z" fill="#404040" fill-opacity="0.4"/>
</svg>
