<svg width="14" height="16" viewBox="0 0 14 16" fill="none" xmlns="http://www.w3.org/2000/svg">
<path d="M10.878 2.0272V0.988145C10.8637 0.869619 10.8063 0.760421 10.7167 0.681204C10.627 0.601986 10.5113 0.55824 10.3915 0.55824C10.2717 0.55824 10.156 0.601986 10.0663 0.681204C9.9767 0.760421 9.9193 0.869619 9.905 0.988145V1.87378H9.681H7.623V0.988145C7.623 0.858681 7.57137 0.734519 7.47948 0.642974C7.38759 0.551429 7.26296 0.5 7.133 0.5C7.00304 0.5 6.87841 0.551429 6.78652 0.642974C6.69462 0.734519 6.643 0.858681 6.643 0.988145V1.85983H4.319H4.095V0.988145C4.0807 0.869619 4.0233 0.760421 3.93366 0.681204C3.84401 0.601986 3.72833 0.55824 3.6085 0.55824C3.48867 0.55824 3.37299 0.601986 3.28334 0.681204C3.1937 0.760421 3.1363 0.869619 3.122 0.988145V2.0272C2.22295 2.28554 1.43243 2.82777 0.869398 3.57229C0.306361 4.31681 0.00125973 5.22335 0 6.15551V11.2043C0.00370761 12.3461 0.462079 13.4397 1.27447 14.2451C2.08687 15.0505 3.18688 15.5018 4.333 15.5H9.695C10.8363 15.4945 11.9291 15.0399 12.7354 14.2353C13.5418 13.4307 13.9963 12.3413 14 11.2043V6.15551C13.9987 5.22335 13.6936 4.31681 13.1306 3.57229C12.5676 2.82777 11.7771 2.28554 10.878 2.0272ZM3.122 3.0523V3.61715C3.1363 3.73568 3.1937 3.84488 3.28334 3.9241C3.37299 4.00331 3.48867 4.04706 3.6085 4.04706C3.72833 4.04706 3.84401 4.00331 3.93366 3.9241C4.0233 3.84488 4.0807 3.73568 4.095 3.61715V2.85007C4.172 2.85007 4.242 2.85007 4.319 2.85007H6.643V3.61715C6.643 3.74662 6.69462 3.87078 6.78652 3.96232C6.87841 4.05387 7.00304 4.1053 7.133 4.1053C7.26296 4.1053 7.38759 4.05387 7.47948 3.96232C7.57137 3.87078 7.623 3.74662 7.623 3.61715V2.82915H9.681C9.758 2.82915 9.828 2.82915 9.905 2.82915V3.59623C9.9193 3.71476 9.9767 3.82396 10.0663 3.90317C10.156 3.98239 10.2717 4.02614 10.3915 4.02614C10.5113 4.02614 10.627 3.98239 10.7167 3.90317C10.8063 3.82396 10.8637 3.71476 10.878 3.59623V3.0523C11.4281 3.26547 11.912 3.61954 12.2807 4.07872C12.6495 4.53789 12.89 5.0859 12.978 5.66736H1.008C1.09728 5.08436 1.3399 4.5353 1.71121 4.07599C2.08251 3.61667 2.56927 3.26348 3.122 3.0523ZM9.681 14.5307H4.319C3.43094 14.5325 2.57841 14.1833 1.94849 13.5597C1.31856 12.9361 0.962706 12.089 0.959 11.2043V6.60878H13.041V11.1764C13.0428 11.6168 12.9573 12.0533 12.7891 12.4606C12.621 12.8679 12.3737 13.2381 12.0614 13.5499C11.7491 13.8616 11.3781 14.1088 10.9695 14.2771C10.561 14.4454 10.1231 14.5316 9.681 14.5307ZM5.313 9.28661C5.31718 9.4074 5.28505 9.52669 5.22073 9.62918C5.15641 9.73166 5.06282 9.81267 4.95197 9.86181C4.84113 9.91095 4.71807 9.92599 4.59859 9.905C4.4791 9.88401 4.36864 9.82794 4.28135 9.74398C4.19407 9.66003 4.13395 9.55202 4.1087 9.43379C4.08345 9.31557 4.09422 9.19253 4.13963 9.08045C4.18504 8.96837 4.26302 8.87235 4.36358 8.80471C4.46413 8.73708 4.58267 8.70091 4.704 8.70083C4.86194 8.70074 5.01375 8.76178 5.12737 8.87107C5.24099 8.98036 5.30755 9.12936 5.313 9.28661ZM7.595 9.28661C7.60056 9.40989 7.56868 9.53199 7.50352 9.63695C7.43836 9.74191 7.34295 9.82486 7.22974 9.87497C7.11653 9.92508 6.99079 9.94002 6.86893 9.91784C6.74706 9.89567 6.63474 9.8374 6.54663 9.75065C6.45852 9.66391 6.3987 9.55271 6.375 9.43158C6.3513 9.31045 6.36481 9.18501 6.41377 9.07164C6.46272 8.95828 6.54485 8.86225 6.64944 8.7961C6.75402 8.72995 6.87619 8.69675 7 8.70083C7.15551 8.7043 7.30379 8.76692 7.41443 8.87585C7.52507 8.98477 7.58968 9.13174 7.595 9.28661ZM9.891 9.28661C9.89378 9.40883 9.85985 9.5291 9.79357 9.63198C9.72728 9.73487 9.63166 9.81569 9.51896 9.86407C9.40626 9.91246 9.28163 9.92621 9.16103 9.90356C9.04044 9.88091 8.92938 9.82289 8.84211 9.73695C8.75483 9.651 8.69531 9.54104 8.67118 9.42118C8.64705 9.30131 8.65941 9.17699 8.70668 9.06417C8.75394 8.95134 8.83396 8.85515 8.93646 8.78794C9.03897 8.72072 9.15929 8.68553 9.282 8.68689C9.44231 8.68688 9.59616 8.74984 9.71017 8.86211C9.82418 8.97438 9.88916 9.12691 9.891 9.28661ZM5.306 11.539C5.30509 11.6178 5.28861 11.6956 5.25751 11.768C5.22641 11.8404 5.18129 11.906 5.12474 11.9611C5.06819 12.0161 5.00131 12.0595 4.92791 12.0888C4.85452 12.1181 4.77606 12.1327 4.697 12.1318C4.57795 12.1304 4.46198 12.0939 4.36376 12.0268C4.26555 11.9598 4.18949 11.8652 4.14522 11.7551C4.10094 11.645 4.09043 11.5243 4.11502 11.4083C4.1396 11.2922 4.19818 11.186 4.28334 11.1031C4.3685 11.0203 4.47642 10.9644 4.59346 10.9426C4.71049 10.9208 4.83139 10.9341 4.94085 10.9807C5.05031 11.0274 5.14343 11.1053 5.20842 11.2047C5.27342 11.3041 5.30738 11.4204 5.306 11.539ZM7.588 11.539C7.59078 11.661 7.55703 11.781 7.49106 11.8837C7.42509 11.9864 7.32988 12.0673 7.2176 12.1158C7.10531 12.1644 6.98104 12.1786 6.86064 12.1565C6.74024 12.1344 6.62917 12.0771 6.54162 11.9919C6.45406 11.9066 6.39399 11.7973 6.36906 11.6779C6.34414 11.5585 6.35549 11.4344 6.40167 11.3215C6.44786 11.2085 6.52678 11.1119 6.62836 11.0438C6.72994 10.9757 6.84958 10.9394 6.972 10.9393C7.05223 10.9375 7.13202 10.9516 7.20668 10.9809C7.28134 11.0102 7.34937 11.0541 7.40676 11.11C7.46415 11.1658 7.50975 11.2326 7.54087 11.3063C7.572 11.38 7.58802 11.4591 7.588 11.539ZM9.884 11.539C9.88678 11.661 9.85303 11.781 9.78706 11.8837C9.72109 11.9864 9.62588 12.0673 9.5136 12.1158C9.40131 12.1644 9.27704 12.1786 9.15664 12.1565C9.03624 12.1344 8.92517 12.0771 8.83762 11.9919C8.75006 11.9066 8.68999 11.7973 8.66506 11.6779C8.64014 11.5585 8.65149 11.4344 8.69767 11.3215C8.74386 11.2085 8.82278 11.1119 8.92436 11.0438C9.02594 10.9757 9.14558 10.9394 9.268 10.9393C9.34823 10.9375 9.42802 10.9516 9.50268 10.9809C9.57734 11.0102 9.64536 11.0541 9.70276 11.11C9.76015 11.1658 9.80575 11.2326 9.83687 11.3063C9.868 11.38 9.88402 11.4591 9.884 11.539Z" fill="#0311D0"/>
</svg>
