<svg width="17" height="16" viewBox="0 0 17 16" fill="none" xmlns="http://www.w3.org/2000/svg">
<path d="M12.378 2.0272V0.988145C12.3637 0.869619 12.3063 0.760421 12.2167 0.681204C12.127 0.601986 12.0113 0.55824 11.8915 0.55824C11.7717 0.55824 11.656 0.601986 11.5663 0.681204C11.4767 0.760421 11.4193 0.869619 11.405 0.988145V1.87378H11.181H9.123V0.988145C9.123 0.858681 9.07137 0.734519 8.97948 0.642974C8.88759 0.551429 8.76296 0.5 8.633 0.5C8.50304 0.5 8.37841 0.551429 8.28652 0.642974C8.19462 0.734519 8.143 0.858681 8.143 0.988145V1.85983H5.819H5.595V0.988145C5.5807 0.869619 5.5233 0.760421 5.43366 0.681204C5.34401 0.601986 5.22833 0.55824 5.1085 0.55824C4.98867 0.55824 4.87299 0.601986 4.78334 0.681204C4.6937 0.760421 4.6363 0.869619 4.622 0.988145V2.0272C3.72295 2.28554 2.93243 2.82777 2.3694 3.57229C1.80636 4.31681 1.50126 5.22335 1.5 6.15551V11.2043C1.50371 12.3461 1.96208 13.4397 2.77447 14.2451C3.58687 15.0505 4.68688 15.5018 5.833 15.5H11.195C12.3363 15.4945 13.4291 15.0399 14.2354 14.2353C15.0418 13.4307 15.4963 12.3413 15.5 11.2043V6.15551C15.4987 5.22335 15.1936 4.31681 14.6306 3.57229C14.0676 2.82777 13.2771 2.28554 12.378 2.0272ZM4.622 3.0523V3.61715C4.6363 3.73568 4.6937 3.84488 4.78334 3.9241C4.87299 4.00331 4.98867 4.04706 5.1085 4.04706C5.22833 4.04706 5.34401 4.00331 5.43366 3.9241C5.5233 3.84488 5.5807 3.73568 5.595 3.61715V2.85007C5.672 2.85007 5.742 2.85007 5.819 2.85007H8.143V3.61715C8.143 3.74662 8.19462 3.87078 8.28652 3.96232C8.37841 4.05387 8.50304 4.1053 8.633 4.1053C8.76296 4.1053 8.88759 4.05387 8.97948 3.96232C9.07137 3.87078 9.123 3.74662 9.123 3.61715V2.82915H11.181C11.258 2.82915 11.328 2.82915 11.405 2.82915V3.59623C11.4193 3.71476 11.4767 3.82396 11.5663 3.90317C11.656 3.98239 11.7717 4.02614 11.8915 4.02614C12.0113 4.02614 12.127 3.98239 12.2167 3.90317C12.3063 3.82396 12.3637 3.71476 12.378 3.59623V3.0523C12.9281 3.26547 13.412 3.61954 13.7807 4.07872C14.1495 4.53789 14.39 5.0859 14.478 5.66736H2.508C2.59728 5.08436 2.8399 4.5353 3.21121 4.07599C3.58251 3.61667 4.06927 3.26348 4.622 3.0523ZM11.181 14.5307H5.819C4.93094 14.5325 4.07841 14.1833 3.44849 13.5597C2.81856 12.9361 2.46271 12.089 2.459 11.2043V6.60878H14.541V11.1764C14.5428 11.6168 14.4573 12.0533 14.2891 12.4606C14.121 12.8679 13.8737 13.2381 13.5614 13.5499C13.2491 13.8616 12.8781 14.1088 12.4695 14.2771C12.061 14.4454 11.6231 14.5316 11.181 14.5307ZM6.813 9.28661C6.81718 9.4074 6.78505 9.52669 6.72073 9.62918C6.65641 9.73166 6.56282 9.81267 6.45197 9.86181C6.34113 9.91095 6.21807 9.92599 6.09859 9.905C5.9791 9.88401 5.86864 9.82794 5.78135 9.74398C5.69407 9.66003 5.63395 9.55202 5.6087 9.43379C5.58345 9.31557 5.59422 9.19253 5.63963 9.08045C5.68504 8.96837 5.76302 8.87235 5.86358 8.80471C5.96413 8.73708 6.08267 8.70091 6.204 8.70083C6.36194 8.70074 6.51375 8.76178 6.62737 8.87107C6.74099 8.98036 6.80755 9.12936 6.813 9.28661ZM9.095 9.28661C9.10056 9.40989 9.06868 9.53199 9.00352 9.63695C8.93836 9.74191 8.84295 9.82486 8.72974 9.87497C8.61653 9.92508 8.49079 9.94002 8.36893 9.91784C8.24706 9.89567 8.13474 9.8374 8.04663 9.75065C7.95852 9.66391 7.8987 9.55271 7.875 9.43158C7.8513 9.31045 7.86481 9.18501 7.91377 9.07164C7.96272 8.95828 8.04485 8.86225 8.14944 8.7961C8.25402 8.72995 8.37619 8.69675 8.5 8.70083C8.65551 8.7043 8.80379 8.76692 8.91443 8.87585C9.02507 8.98477 9.08968 9.13174 9.095 9.28661ZM11.391 9.28661C11.3938 9.40883 11.3599 9.5291 11.2936 9.63198C11.2273 9.73487 11.1317 9.81569 11.019 9.86407C10.9063 9.91246 10.7816 9.92621 10.661 9.90356C10.5404 9.88091 10.4294 9.82289 10.3421 9.73695C10.2548 9.651 10.1953 9.54104 10.1712 9.42118C10.1471 9.30131 10.1594 9.17699 10.2067 9.06417C10.2539 8.95134 10.334 8.85515 10.4365 8.78794C10.539 8.72072 10.6593 8.68553 10.782 8.68689C10.9423 8.68688 11.0962 8.74984 11.2102 8.86211C11.3242 8.97438 11.3892 9.12691 11.391 9.28661ZM6.806 11.539C6.80509 11.6178 6.78861 11.6956 6.75751 11.768C6.72641 11.8404 6.68129 11.906 6.62474 11.9611C6.56819 12.0161 6.50131 12.0595 6.42791 12.0888C6.35452 12.1181 6.27606 12.1327 6.197 12.1318C6.07795 12.1304 5.96198 12.0939 5.86376 12.0268C5.76555 11.9598 5.68949 11.8652 5.64522 11.7551C5.60094 11.645 5.59043 11.5243 5.61502 11.4083C5.6396 11.2922 5.69818 11.186 5.78334 11.1031C5.8685 11.0203 5.97642 10.9644 6.09346 10.9426C6.21049 10.9208 6.33139 10.9341 6.44085 10.9807C6.55031 11.0274 6.64343 11.1053 6.70842 11.2047C6.77342 11.3041 6.80738 11.4204 6.806 11.539ZM9.088 11.539C9.09078 11.661 9.05703 11.781 8.99106 11.8837C8.92509 11.9864 8.82988 12.0673 8.7176 12.1158C8.60531 12.1644 8.48104 12.1786 8.36064 12.1565C8.24024 12.1344 8.12917 12.0771 8.04162 11.9919C7.95406 11.9066 7.89399 11.7973 7.86906 11.6779C7.84414 11.5585 7.85549 11.4344 7.90167 11.3215C7.94786 11.2085 8.02678 11.1119 8.12836 11.0438C8.22994 10.9757 8.34958 10.9394 8.472 10.9393C8.55223 10.9375 8.63202 10.9516 8.70668 10.9809C8.78134 11.0102 8.84937 11.0541 8.90676 11.11C8.96415 11.1658 9.00975 11.2326 9.04087 11.3063C9.072 11.38 9.08802 11.4591 9.088 11.539ZM11.384 11.539C11.3868 11.661 11.353 11.781 11.2871 11.8837C11.2211 11.9864 11.1259 12.0673 11.0136 12.1158C10.9013 12.1644 10.777 12.1786 10.6566 12.1565C10.5362 12.1344 10.4252 12.0771 10.3376 11.9919C10.2501 11.9066 10.19 11.7973 10.1651 11.6779C10.1401 11.5585 10.1515 11.4344 10.1977 11.3215C10.2439 11.2085 10.3228 11.1119 10.4244 11.0438C10.5259 10.9757 10.6456 10.9394 10.768 10.9393C10.8482 10.9375 10.928 10.9516 11.0027 10.9809C11.0773 11.0102 11.1454 11.0541 11.2028 11.11C11.2601 11.1658 11.3057 11.2326 11.3369 11.3063C11.368 11.38 11.384 11.4591 11.384 11.539Z" fill="#404040" fill-opacity="0.7"/>
</svg>
