<svg width="22" height="22" viewBox="0 0 22 22" fill="none" xmlns="http://www.w3.org/2000/svg">
<path opacity="0.3" d="M15.3538 0.25H6.64625C3.1137 0.25 0.25 3.1137 0.25 6.64625V15.3538C0.25 18.8863 3.1137 21.75 6.64625 21.75H15.3538C18.8863 21.75 21.75 18.8863 21.75 15.3538V6.64625C21.75 3.1137 18.8863 0.25 15.3538 0.25Z" fill="#F8285A" fill-opacity="0.2"/>
<path fill-rule="evenodd" clip-rule="evenodd" d="M8.68281 6.56424L8.84855 5.62505C8.87277 5.34808 8.99381 5.0885 9.1904 4.8919C9.387 4.6953 9.64658 4.57427 9.92355 4.55005H12.0736C12.3505 4.57427 12.6101 4.6953 12.8067 4.8919C13.0033 5.0885 13.1243 5.34808 13.1486 5.62505L13.3144 6.56492C14.247 6.62426 15.1778 6.7194 16.1049 6.85034C16.3165 6.88476 16.5061 7.00098 16.6328 7.17393C16.7595 7.34688 16.8131 7.5627 16.7821 7.77484C16.749 7.96079 16.6507 8.12887 16.505 8.24902C16.3592 8.36916 16.1755 8.43352 15.9866 8.43059H15.8684C12.6587 7.98631 9.40307 7.98631 6.19338 8.43059C6.08592 8.45398 5.97485 8.45544 5.86682 8.43488C5.75879 8.41431 5.65603 8.37215 5.56468 8.31092C5.47334 8.24969 5.39529 8.17065 5.33523 8.07853C5.27516 7.98642 5.23431 7.88312 5.21512 7.77484C5.19674 7.67022 5.1995 7.56297 5.22324 7.45943C5.24698 7.35589 5.29121 7.25815 5.35333 7.17198C5.41546 7.08581 5.49421 7.01296 5.58494 6.95772C5.67567 6.90247 5.77655 6.86596 5.88162 6.85034C6.81225 6.7189 7.74667 6.62353 8.68281 6.56424ZM13.3424 17.0202H8.77366C8.40312 17.0458 8.03661 16.9304 7.74756 16.6971C7.4585 16.4639 7.26825 16.1301 7.21491 15.7625L6.77416 10.28C6.77542 10.1953 6.79393 10.1117 6.82856 10.0344C6.8632 9.95704 6.91323 9.88759 6.97561 9.83025C7.03798 9.7729 7.11139 9.72887 7.19134 9.70085C7.2713 9.67282 7.35613 9.66138 7.44066 9.66724H14.5572C14.6417 9.66138 14.7265 9.67282 14.8065 9.70085C14.8864 9.72887 14.9598 9.7729 15.0222 9.83025C15.0846 9.88759 15.1346 9.95704 15.1693 10.0344C15.2039 10.1117 15.2224 10.1953 15.2237 10.28L14.8689 15.655C14.8413 16.0361 14.6666 16.3916 14.3818 16.6464C14.097 16.9011 13.7243 17.0352 13.3424 17.0202Z" fill="#D81A48"/>
</svg>
