<svg width="20" height="20" viewBox="0 0 10 12" fill="none" xmlns="http://www.w3.org/2000/svg">
<path d="M0.875 3.2499H1.79167M1.79167 3.2499H9.125M1.79167 3.2499L1.79164 9.66675C1.79164 9.90986 1.88822 10.143 2.06013 10.3149C2.23204 10.4868 2.4652 10.5834 2.70831 10.5834H7.29165C7.53476 10.5834 7.76792 10.4868 7.93983 10.3149C8.11174 10.143 8.20831 9.90986 8.20831 9.66675V3.25008L1.79167 3.2499ZM3.16664 3.25008V2.33341C3.16664 2.0903 3.26322 1.85714 3.43513 1.68523C3.60704 1.51333 3.8402 1.41675 4.08331 1.41675H5.91665C6.15976 1.41675 6.39292 1.51333 6.56483 1.68523C6.73673 1.85714 6.83331 2.0903 6.83331 2.33341V3.25008M4.08336 5.54175V8.29175M5.91664 5.54175V8.29175" stroke="#D81A48" stroke-width="1.336" stroke-linecap="round" stroke-linejoin="round"/>
</svg>
