<svg width="16" height="16" viewBox="0 0 16 16" fill="none" xmlns="http://www.w3.org/2000/svg">
<path fill-rule="evenodd" clip-rule="evenodd" d="M11.0033 3.979L12.3622 1.99259C11.1058 2.06742 9.58636 2.36249 8.12848 2.78424C7.13784 3.07084 6.0346 3.0276 5.00892 2.83836C4.68588 2.77876 4.36764 2.70412 4.05952 2.61924L4.98248 3.978C6.86708 4.67368 9.1184 4.674 11.0033 3.979ZM4.5126 4.6546C6.68088 5.5154 9.31 5.51512 11.478 4.6538C12.3595 5.56828 13.27 6.70628 13.9716 7.89664C14.705 9.14104 15.168 10.3718 15.1984 11.4289C15.2272 12.4294 14.8757 13.2912 13.8856 13.953C12.8364 14.6543 11.0081 15.1698 8.0096 15.1988C5.01028 15.2278 3.17916 14.7472 2.12693 14.0669C1.1367 13.4267 0.7784 12.5741 0.80098 11.5681C0.824852 10.5046 1.28248 9.25612 2.01434 7.9854C2.713 6.77228 3.62376 5.60412 4.5126 4.6546ZM3.8648 1.7278C4.27572 1.85715 4.71104 1.96988 5.15408 2.05163C6.11316 2.22859 7.07948 2.25491 7.90616 2.01576C8.95676 1.71182 10.0597 1.46554 11.0932 1.31964C10.2113 1.0293 9.14504 0.8 8.01732 0.8C6.38972 0.8 4.87872 1.27758 3.8648 1.7278ZM3.09876 1.20492C4.18072 0.662984 6.00996 0 8.01732 0C9.98748 0 11.7723 0.638652 12.8496 1.17469C12.8677 1.1837 12.8856 1.19267 12.9032 1.20161C13.1935 1.34831 13.4294 1.48628 13.6 1.6L11.9582 4C15.743 7.86908 20.26 15.8804 8.01732 15.9987C-4.22542 16.117 0.212696 8.01704 4.03032 4L2.4 1.6C2.51408 1.52502 2.6568 1.43951 2.82488 1.3479C2.90984 1.30161 3.00124 1.25376 3.09876 1.20492Z" fill="#0311D0"/>
<path d="M7.31546 6.80005H8.6845V7.44005H10.0535V8.72005H7.31546L7.25386 8.72517C7.17494 8.73853 7.10354 8.77737 7.05214 8.83493C7.00074 8.89245 6.97254 8.96509 6.97254 9.04005C6.97254 9.11501 7.00074 9.18765 7.05214 9.24517C7.10354 9.30273 7.17494 9.34157 7.25386 9.35493L7.31546 9.36005H8.6845L8.79674 9.36325C9.24074 9.38953 9.65634 9.57641 9.95546 9.88429C10.2545 10.1922 10.4137 10.5969 10.3991 11.0126C10.3845 11.4283 10.1973 11.8223 9.87726 12.1112C9.55714 12.4001 9.12938 12.5611 8.6845 12.5601V13.2001H7.31546V12.5601H5.94642V11.2801H8.6845L8.7461 11.2749C8.82502 11.2616 8.89642 11.2227 8.94782 11.1652C8.99922 11.1077 9.02742 11.035 9.02742 10.9601C9.02742 10.8851 8.99922 10.8125 8.94782 10.7549C8.89642 10.6974 8.82502 10.6585 8.7461 10.6452L8.6845 10.6401H7.31546L7.20322 10.6369C6.75922 10.6106 6.34362 10.4237 6.0445 10.1158C5.74542 9.80793 5.5863 9.40325 5.6009 8.98753C5.6155 8.57181 5.80266 8.17777 6.1227 7.88893C6.44282 7.60001 6.87058 7.43901 7.31546 7.44005V6.80005Z" fill="#0311D0"/>
</svg>
