<svg width="24" height="24" viewBox="0 0 24 24" fill="none" xmlns="http://www.w3.org/2000/svg">
<circle opacity="0.1" cx="12" cy="12" r="12" fill="#F6B100"/>
<g clip-path="url(#clip0_422_12881)">
<path d="M11.5 7.9999H8C7.73478 7.9999 7.48043 8.10526 7.29289 8.2928C7.10536 8.48033 7 8.73469 7 8.9999V15.9999C7 16.2651 7.10536 16.5195 7.29289 16.707C7.48043 16.8945 7.73478 16.9999 8 16.9999H15C15.2652 16.9999 15.5196 16.8945 15.7071 16.707C15.8946 16.5195 16 16.2651 16 15.9999V12.4999M15.25 7.24987C15.4489 7.05096 15.7187 6.93921 16 6.93921C16.2813 6.93921 16.5511 7.05096 16.75 7.24987C16.9489 7.44878 17.0607 7.71856 17.0607 7.99987C17.0607 8.28117 16.9489 8.55096 16.75 8.74987L12 13.4999L10 13.9999L10.5 11.9999L15.25 7.24987Z" stroke="#F6B100" stroke-width="1.336" stroke-linecap="round" stroke-linejoin="round"/>
</g>
<defs>
<clipPath id="clip0_422_12881">
<rect width="12" height="12" fill="white" transform="translate(6 6)"/>
</clipPath>
</defs>
</svg>
