<svg width="20" height="20" viewBox="0 0 12 12" fill="none" xmlns="http://www.w3.org/2000/svg">
<g clip-path="url(#clip0_756_1009)">
<path d="M5.54169 2.33314H2.33335C2.09024 2.33314 1.85708 2.42972 1.68517 2.60163C1.51326 2.77354 1.41669 3.00669 1.41669 3.24981V9.66647C1.41669 9.90959 1.51326 10.1427 1.68517 10.3147C1.85708 10.4866 2.09024 10.5831 2.33335 10.5831H8.75002C8.99313 10.5831 9.22629 10.4866 9.3982 10.3147C9.57011 10.1427 9.66669 9.90959 9.66669 9.66647V6.45814M8.97919 1.64561C9.16152 1.46328 9.40882 1.36084 9.66669 1.36084C9.92455 1.36084 10.1719 1.46328 10.3542 1.64561C10.5365 1.82795 10.639 2.07525 10.639 2.33311C10.639 2.59097 10.5365 2.83828 10.3542 3.02061L6.00002 7.37478L4.16669 7.83311L4.62502 5.99978L8.97919 1.64561Z" stroke="#F6B100" stroke-width="1.336" stroke-linecap="round" stroke-linejoin="round"/>
</g>
<defs>
<clipPath id="clip0_756_1009">
<rect width="11" height="11" fill="white" transform="translate(0.500061 0.5)"/>
</clipPath>
</defs>
</svg>
