<svg width="24" height="24" viewBox="0 0 24 24" fill="none" xmlns="http://www.w3.org/2000/svg">
<circle opacity="0.1" cx="12" cy="12" r="12" fill="#F6B100"/>
<g clip-path="url(#clip0_422_19809)">
<path opacity="0.3" d="M9.20996 7.02539H14.3916C14.6263 7.0254 14.8592 7.06009 15.083 7.12793L15.3037 7.20605C15.5208 7.29599 15.7233 7.41783 15.9043 7.56641L16.0771 7.72363C16.2432 7.8897 16.3838 8.07879 16.4941 8.28516L16.5947 8.49707C16.7144 8.78622 16.7754 9.09623 16.7754 9.40918V14.5908C16.7754 14.8255 16.7407 15.0584 16.6729 15.2822L16.5947 15.5029C16.5048 15.7201 16.383 15.9225 16.2344 16.1035L16.0771 16.2764C15.9111 16.4424 15.722 16.583 15.5156 16.6934L15.3037 16.7939C15.0146 16.9137 14.7046 16.9746 14.3916 16.9746H6.96289C6.94498 16.9746 6.9274 16.9715 6.91113 16.9648L6.86621 16.9346C6.84052 16.9089 6.82628 16.8742 6.82617 16.8379V9.40918L6.83789 9.17383C6.88432 8.70588 7.06816 8.26216 7.36621 7.89844L7.52441 7.72363C7.9157 7.33235 8.42873 7.09127 8.97461 7.03711L9.20996 7.02539Z" fill="#F6B100" stroke="#F6B100" stroke-width="0.8"/>
<path d="M11.3875 9.71006L11.7852 9.17256C11.8638 9.06365 11.9635 8.97169 12.0784 8.90217C12.1933 8.83265 12.3211 8.787 12.454 8.76794C12.587 8.74887 12.7224 8.75679 12.8522 8.79122C12.982 8.82564 13.1036 8.88587 13.2096 8.96831L14.1072 9.66168C14.3191 9.83382 14.4576 10.0802 14.4946 10.3507C14.5315 10.6212 14.4641 10.8957 14.3061 11.1183L13.9083 11.6558C13.6155 11.7151 13.3132 11.7097 13.0226 11.6401C12.732 11.5705 12.4602 11.4382 12.226 11.2527C11.9855 11.069 11.7866 10.8367 11.6421 10.5709C11.4976 10.305 11.4108 10.0117 11.3875 9.71006ZM11.7798 11.8601C11.3324 11.5122 10.9932 11.0443 10.8016 10.5109L9.29658 12.5373C9.17997 12.7026 9.11625 12.8994 9.11383 13.1017V14.4562C9.10931 14.5748 9.13254 14.6929 9.18168 14.801C9.23082 14.9092 9.3045 15.0043 9.39687 15.0789C9.48925 15.1536 9.59776 15.2056 9.71379 15.2309C9.82981 15.2563 9.95014 15.2542 10.0652 15.2248L11.3337 14.8378C11.5275 14.7805 11.6973 14.6616 11.8175 14.4992L13.3171 12.4674C12.7633 12.4135 12.237 12.2007 11.8013 11.8547L11.7798 11.8601Z" fill="#F6B100"/>
</g>
<defs>
<clipPath id="clip0_422_19809">
<rect width="12" height="12" fill="white" transform="translate(5.80078 6)"/>
</clipPath>
</defs>
</svg>
