<svg width="20" height="20" viewBox="0 0 20 20" fill="none" xmlns="http://www.w3.org/2000/svg">
<g opacity="0.5">
<path opacity="0.3" d="M15.1422 1.94165H4.858C2.75034 1.94165 1.04175 3.75075 1.04175 5.98239V14.0259C1.04175 16.2576 2.75034 18.0667 4.858 18.0667H15.1422C17.2498 18.0667 18.9584 16.2576 18.9584 14.0259V5.98239C18.9584 3.75075 17.2498 1.94165 15.1422 1.94165Z" fill="#0311D0"/>
<path d="M10 10.452C9.28679 10.4492 8.59659 10.1991 8.04713 9.74431L5.0013 7.22702C4.86469 7.10822 4.78086 6.94002 4.76826 6.75942C4.75566 6.57882 4.81532 6.40061 4.93411 6.264C5.05291 6.12738 5.22111 6.04355 5.40171 6.03095C5.58231 6.01835 5.76052 6.07801 5.89713 6.19681L8.92505 8.7141C9.2335 8.97374 9.62374 9.11612 10.0269 9.11612C10.4301 9.11612 10.8203 8.97374 11.1288 8.7141L14.0761 6.21472C14.2071 6.11198 14.372 6.06231 14.538 6.07559C14.704 6.08886 14.8589 6.16412 14.9719 6.28639C15.0865 6.42263 15.1431 6.59831 15.1297 6.7758C15.1163 6.95329 15.034 7.11848 14.9003 7.23597L11.953 9.73535C11.4067 10.1967 10.7151 10.4505 10 10.452Z" fill="#0311D0"/>
</g>
</svg>
