<svg width="16" height="16" viewBox="0 0 16 16" fill="none" xmlns="http://www.w3.org/2000/svg">
<path d="M9.64592 0.860016C8.1842 0.861787 6.78285 1.44324 5.74926 2.47683C4.71567 3.51042 4.13422 4.91177 4.13244 6.37349C4.13342 6.83615 4.19185 7.29691 4.30641 7.74517L1.21512 10.8365C1.0553 10.993 0.937264 11.1871 0.871807 11.401C0.806349 11.6149 0.795558 11.8418 0.84042 12.0609L1.16828 13.7471C1.22007 14.0143 1.35015 14.26 1.54198 14.453C1.73381 14.646 1.97872 14.7776 2.24555 14.8311L3.97186 15.1589C4.06078 15.1691 4.15058 15.1691 4.2395 15.1589C4.41881 15.16 4.5965 15.125 4.76202 15.056C4.92754 14.987 5.07751 14.8855 5.20302 14.7574L8.28762 11.6795C8.74179 11.7996 9.2096 11.8603 9.67937 11.8602C11.1416 11.8602 12.544 11.2793 13.578 10.2453C14.612 9.21136 15.1928 7.80899 15.1928 6.34672C15.1928 4.88446 14.612 3.48209 13.578 2.44811C12.544 1.41413 11.1416 0.833252 9.67937 0.833252L9.64592 0.860016ZM9.64592 10.8967C9.17509 10.8947 8.70757 10.8179 8.26086 10.6692C8.1733 10.6398 8.07927 10.6356 7.98941 10.6568C7.89955 10.6781 7.81743 10.7241 7.75233 10.7896L6.15985 12.3754L5.07589 11.3383C4.97636 11.2737 4.85715 11.2464 4.73943 11.2614C4.62171 11.2763 4.5131 11.3325 4.43288 11.42C4.35266 11.5074 4.30602 11.6205 4.30124 11.739C4.29647 11.8576 4.33386 11.974 4.40678 12.0676L5.47067 13.0914L4.46031 14.075C4.41791 14.117 4.3659 14.1482 4.30878 14.1657C4.25166 14.1831 4.19114 14.1865 4.13244 14.1753L2.43959 13.8408C2.36791 13.8281 2.30184 13.7938 2.25037 13.7423C2.19889 13.6908 2.16451 13.6247 2.15188 13.553L1.82401 11.8736C1.81451 11.8149 1.81862 11.7548 1.83602 11.698C1.85343 11.6411 1.88365 11.589 1.92438 11.5457L5.2231 8.247C5.28846 8.18177 5.33483 8.09997 5.35723 8.01038C5.37963 7.92079 5.37721 7.82679 5.35023 7.73848C5.06233 6.83189 5.06845 5.85748 5.36772 4.95458C5.667 4.05169 6.2441 3.26653 7.0165 2.7114C7.78891 2.15626 8.71706 1.85956 9.66826 1.86373C10.6195 1.86789 11.545 2.17271 12.3125 2.7346C13.08 3.29648 13.6502 4.08666 13.9415 4.99215C14.2329 5.89763 14.2305 6.87205 13.9347 7.77609C13.6388 8.68012 13.0647 9.46746 12.2944 10.0255C11.5241 10.5836 10.5971 10.8838 9.64592 10.8833V10.8967ZM9.64592 4.23903C9.22083 4.2377 8.80491 4.36254 8.45082 4.59775C8.09673 4.83295 7.82039 5.16793 7.6568 5.56028C7.49321 5.95263 7.44972 6.3847 7.53184 6.80178C7.61396 7.21886 7.81799 7.6022 8.1181 7.90325C8.41822 8.2043 8.80091 8.40953 9.21774 8.49294C9.63456 8.57636 10.0668 8.53422 10.4596 8.37185C10.8525 8.20949 11.1883 7.9342 11.4246 7.58084C11.6609 7.22749 11.7871 6.81196 11.7871 6.38687C11.7888 6.10425 11.7348 5.82406 11.6281 5.56236C11.5213 5.30066 11.364 5.0626 11.1651 4.86183C10.9662 4.66105 10.7296 4.5015 10.4689 4.39233C10.2082 4.28316 9.92854 4.22652 9.64592 4.22564V4.23903ZM9.64592 7.52436C9.41906 7.52568 9.19692 7.45954 9.00774 7.33432C8.81856 7.20911 8.67087 7.03048 8.58344 6.82114C8.49602 6.6118 8.47279 6.38119 8.51673 6.15862C8.56066 5.93605 8.66977 5.73156 8.83019 5.57114C8.99061 5.41072 9.19509 5.30162 9.41766 5.25768C9.64023 5.21375 9.87084 5.23697 10.0802 5.3244C10.2895 5.41183 10.4682 5.55951 10.5934 5.74869C10.7186 5.93788 10.7847 6.16001 10.7834 6.38687C10.7782 6.68568 10.6562 6.97058 10.4437 7.18065C10.2311 7.39072 9.94477 7.50928 9.64592 7.51098V7.52436Z" fill="#0311D0"/>
</svg>
