<svg width="40" height="39" viewBox="0 0 40 39" fill="none" xmlns="http://www.w3.org/2000/svg">
<g opacity="0.3">
<path d="M36.2627 19.5H28.5693C27.4775 19.4746 26.4619 19.2461 25.5225 18.8145C24.583 18.3828 23.7642 17.8115 23.0659 17.1006C22.3677 16.3896 21.8154 15.5518 21.4092 14.5869C21.0029 13.6221 20.7998 12.6064 20.7998 11.54C20.7998 11.4639 20.7998 11.394 20.7998 11.3306C20.7998 11.2671 20.7998 11.21 20.7998 11.1592V3.2373H12.8018C11.5576 3.2627 10.3896 3.5166 9.29785 3.99902C8.18066 4.50684 7.21582 5.17334 6.40332 5.99854C5.59082 6.82373 4.94336 7.79492 4.46094 8.91211C3.97852 10.0039 3.7373 11.1846 3.7373 12.4541C3.7373 12.4541 3.7373 12.4668 3.7373 12.4922C3.7373 12.5176 3.7373 12.5303 3.7373 12.5303V26.4697C3.7373 26.4951 3.7373 26.5142 3.7373 26.5269C3.7373 26.5396 3.7373 26.5459 3.7373 26.5459C3.7373 27.8154 3.97852 28.9961 4.46094 30.0879C4.94336 31.2051 5.59082 32.1763 6.40332 33.0015C7.21582 33.8267 8.16797 34.4932 9.25977 35.001C10.377 35.4834 11.5576 35.7373 12.8018 35.7627H27.1602C28.4043 35.7373 29.585 35.4834 30.7021 35.001C31.7939 34.5186 32.7524 33.8584 33.5776 33.0205C34.4028 32.1826 35.0566 31.2051 35.5391 30.0879C36.0215 28.9707 36.2627 27.79 36.2627 26.5459C36.2627 26.5205 36.2627 26.5015 36.2627 26.4888C36.2627 26.4761 36.2627 26.4697 36.2627 26.4697V19.5Z" fill="#404040" fill-opacity="0.7"/>
</g>
<path d="M36.2627 16.9482H28.5693C27.0967 16.8975 25.8398 16.3389 24.7988 15.2725C23.7578 14.2061 23.2373 12.9365 23.2373 11.4639C23.2373 11.3877 23.2373 11.3179 23.2373 11.2544C23.2373 11.1909 23.2373 11.1338 23.2373 11.083V3.2373L36.2627 16.9482ZM15.6582 17.5576L15.4678 17.4434H15.3154C15.2646 17.418 15.2012 17.3926 15.125 17.3672C15.0488 17.3418 14.9727 17.3291 14.8965 17.3291H14.7441C14.7188 17.3291 14.6934 17.3291 14.668 17.3291C14.6426 17.3291 14.6172 17.3291 14.5918 17.3291C14.5664 17.3291 14.5347 17.3291 14.4966 17.3291C14.4585 17.3291 14.4268 17.3291 14.4014 17.3291L14.249 17.4434H14.0967L9.10742 21.5566C8.98047 21.6836 8.87256 21.8296 8.78369 21.9946C8.69482 22.1597 8.65039 22.3438 8.65039 22.5469C8.65039 22.6738 8.67578 22.8071 8.72656 22.9468C8.77734 23.0864 8.84082 23.207 8.91699 23.3086C9.01855 23.4355 9.15186 23.5435 9.31689 23.6323C9.48193 23.7212 9.66602 23.7656 9.86914 23.7656C9.99609 23.7656 10.1294 23.7402 10.269 23.6895C10.4087 23.6387 10.5293 23.5752 10.6309 23.499L13.6016 21.1377V29.5547C13.6016 29.8848 13.7222 30.1704 13.9634 30.4116C14.2046 30.6528 14.4902 30.7734 14.8203 30.7734C15.1758 30.7734 15.4678 30.6528 15.6963 30.4116C15.9248 30.1704 16.0391 29.8848 16.0391 29.5547V21.2139L18.667 23.4609C18.7686 23.5625 18.8892 23.6387 19.0288 23.6895C19.1685 23.7402 19.3145 23.7656 19.4668 23.7656C19.6445 23.7656 19.8096 23.7275 19.9619 23.6514C20.1143 23.5752 20.2539 23.4736 20.3809 23.3467C20.457 23.2197 20.5205 23.0928 20.5713 22.9658C20.6221 22.8389 20.6475 22.6865 20.6475 22.5088C20.6475 22.3311 20.6157 22.1597 20.5522 21.9946C20.4888 21.8296 20.3809 21.6963 20.2285 21.5947L15.6582 17.5576Z" fill="#404040" fill-opacity="0.4"/>
</svg>
