<svg width="16" height="12" viewBox="0 0 16 12" fill="none" xmlns="http://www.w3.org/2000/svg">
<path d="M15.1663 2.37695V2.70661H0.833008V2.37695C0.833008 1.75541 1.07991 1.15933 1.5194 0.719842C1.95889 0.280351 2.55497 0.0334473 3.17651 0.0334473H12.8228C13.4444 0.0334473 14.0405 0.280351 14.4799 0.719842C14.9194 1.15933 15.1663 1.75541 15.1663 2.37695ZM15.1663 4.52695V9.63711C15.1654 9.94392 15.104 10.2475 14.9858 10.5306C14.8675 10.8137 14.6946 11.0708 14.477 11.2871C14.2594 11.5033 14.0013 11.6746 13.7175 11.7912C13.4336 11.9077 13.1297 11.9672 12.8228 11.9663H3.17651C2.86909 11.9672 2.56452 11.9075 2.28023 11.7905C1.99595 11.6735 1.73754 11.5016 1.51984 11.2845C1.30213 11.0675 1.12939 10.8096 1.01153 10.5257C0.893674 10.2418 0.833006 9.93736 0.833008 9.62995V4.51978L15.1663 4.52695ZM9.49751 9.88795C9.49565 9.74597 9.43843 9.61033 9.33803 9.50993C9.23762 9.40953 9.10198 9.3523 8.96001 9.35045H7.89218C7.74962 9.35045 7.61291 9.40707 7.5121 9.50788C7.4113 9.60868 7.35468 9.74539 7.35468 9.88795C7.35468 10.0305 7.4113 10.1672 7.5121 10.268C7.61291 10.3688 7.74962 10.4254 7.89218 10.4254H8.96001C9.10322 10.4236 9.23992 10.3653 9.34052 10.2634C9.44112 10.1615 9.49752 10.024 9.49751 9.88078V9.88795ZM13.7975 9.88795C13.7957 9.74597 13.7384 9.61033 13.638 9.50993C13.5376 9.40953 13.402 9.3523 13.26 9.35045H10.723C10.5805 9.35045 10.4437 9.40707 10.3429 9.50788C10.2421 9.60868 10.1855 9.74539 10.1855 9.88795C10.1855 10.0305 10.2421 10.1672 10.3429 10.268C10.4437 10.3688 10.5805 10.4254 10.723 10.4254H13.2672C13.4104 10.4236 13.5471 10.3653 13.6477 10.2634C13.7483 10.1615 13.8047 10.024 13.8047 9.88078L13.7975 9.88795Z" fill="#0C1892"/>
</svg>
