<svg width="50" height="51" viewBox="0 0 50 51" fill="none" xmlns="http://www.w3.org/2000/svg">
<path d="M28.4158 9.58356C30.1036 7.68894 31.1409 6.83834 33.1782 5.76295V37.312L28.4158 38.2961V9.58356Z" fill="#12C49E"/>
<path d="M43.6322 25.4449C44.6195 23.3609 44.7356 22.4347 45 20.2969L8.49513 28.2235C7.62946 30.1518 7.35081 31.2297 7.21741 33.144L43.6322 25.4449Z" fill="#12C49E"/>
<path d="M43.6322 35.1082C44.6195 33.0242 44.7356 32.098 45 29.9602L28.59 33.4335C28.4739 35.3438 28.6073 36.3238 28.4739 38.2382L43.6322 35.1082Z" fill="#12C49E"/>
<path d="M43.6322 44.7701C44.6195 42.6862 44.7356 41.76 45 39.6221L30.042 42.8692C29.287 43.9112 28.8223 45.6478 28.4739 47.9001L43.6322 44.7701Z" fill="#12C49E"/>
<path d="M19.8784 41.4799C21.3303 39.6854 22.8403 37.4277 23.8857 35.5753L6.27772 39.3919C5.41205 41.3202 5.1334 42.398 5 44.3124L19.8784 41.4799Z" fill="#12C49E"/>
<path d="M19.1234 6.92071C20.8112 5.02609 21.8484 4.17549 23.8857 3.1001V35.6911L19.1234 36.6752V6.92071Z" fill="#12C49E"/>
</svg>
