<svg width="18" height="18" viewBox="0 0 18 18" fill="none" xmlns="http://www.w3.org/2000/svg">
<g clip-path="url(#clip0_377_13565)">
<path opacity="0.3" d="M9 17.25C13.5563 17.25 17.25 13.5563 17.25 9C17.25 4.44365 13.5563 0.75 9 0.75C4.44365 0.75 0.75 4.44365 0.75 9C0.75 13.5563 4.44365 17.25 9 17.25Z" fill="white"/>
<path fill-rule="evenodd" clip-rule="evenodd" d="M12.1351 7.46529C12.1351 9.1967 10.7315 10.6003 9.00008 10.6003C7.26867 10.6003 5.86508 9.1967 5.86508 7.46529C5.86508 5.73388 7.26867 4.33029 9.00008 4.33029C10.7315 4.33029 12.1351 5.73388 12.1351 7.46529ZM14.3624 15.2617C12.8714 16.5464 10.9681 17.2521 8.99992 17.2499C7.03174 17.2521 5.1284 16.5464 3.63742 15.2617C4.02399 14.1473 4.74812 13.181 5.70917 12.4972C6.67021 11.8134 7.82041 11.4459 8.99992 11.4459C10.1794 11.4459 11.3296 11.8134 12.2907 12.4972C13.2517 13.181 13.9758 14.1473 14.3624 15.2617Z" fill="white"/>
</g>
<defs>
<clipPath id="clip0_377_13565">
<rect width="18" height="18" fill="white"/>
</clipPath>
</defs>
</svg>
