<svg width="16" height="16" viewBox="0 0 16 16" fill="none" xmlns="http://www.w3.org/2000/svg">
<g clip-path="url(#clip0_114_6233)">
<path d="M15 3.75H13.4653C13.218 1.78 11.536 0.25 9.5 0.25H6.5C4.464 0.25 2.782 1.78 2.53475 3.75H1C0.5865 3.75 0.25 4.0865 0.25 4.5V15.25C0.25 15.526 0.474 15.75 0.75 15.75H3C3.276 15.75 3.5 15.526 3.5 15.25V15H12.5V15.25C12.5 15.526 12.724 15.75 13 15.75H15.25C15.526 15.75 15.75 15.526 15.75 15.25V4.5C15.75 4.0865 15.4135 3.75 15 3.75ZM6.5 1.25H9.5C10.984 1.25 12.2195 2.333 12.4583 3.75H3.54175C3.7805 2.333 5.016 1.25 6.5 1.25ZM2.5 14.75H1.25V4.75H2.5V14.5V14.75ZM3.5 4.75H7.5V14H3.5V4.75ZM8.5 14V4.75H12.5V14H8.5ZM14.75 14.75H13.5V14.5V4.75H14.75V14.75Z" fill="black"/>
<path d="M8.50516 2.5C8.50516 2.224 8.28116 2 8.00516 2H8.00266C7.72666 2 7.50391 2.224 7.50391 2.5C7.50391 2.776 7.72891 3 8.00516 3C8.28141 3 8.50516 2.776 8.50516 2.5ZM10.0052 3C10.2812 3 10.5052 2.776 10.5052 2.5C10.5052 2.224 10.2812 2 10.0052 2H10.0027C9.72666 2 9.50391 2.224 9.50391 2.5C9.50391 2.776 9.72916 3 10.0052 3ZM6.00516 2H6.00266C5.72666 2 5.50391 2.224 5.50391 2.5C5.50391 2.776 5.72891 3 6.00516 3C6.28141 3 6.50516 2.776 6.50516 2.5C6.50516 2.224 6.28141 2 6.00516 2Z" fill="black"/>
</g>
<defs>
<clipPath id="clip0_114_6233">
<rect width="16" height="16" fill="white"/>
</clipPath>
</defs>
</svg>
