<svg width="25" height="25" viewBox="0 0 25 25" fill="none" xmlns="http://www.w3.org/2000/svg">
<path d="M19.1285 3.5306C18.0829 2.58978 16.8481 1.88353 15.5071 1.45927C14.1661 1.03501 12.7498 0.902553 11.3533 1.0708C9.5456 1.28362 7.83094 1.98843 6.39611 3.10845C4.96129 4.22847 3.86133 5.72076 3.21605 7.42275C2.57077 9.12475 2.40491 10.9712 2.73655 12.7609C3.06819 14.5507 3.88461 16.2151 5.09687 17.5729L9.74911 22.7599C10.0953 23.1498 10.5202 23.462 10.9958 23.6757C11.4714 23.8895 11.9869 24 12.5084 24C13.0298 24 13.5453 23.8895 14.0209 23.6757C14.4965 23.462 14.9215 23.1498 15.2676 22.7599L19.9199 17.5729C21.6741 15.6045 22.5759 13.0206 22.4276 10.3881C22.2792 7.75562 21.0928 5.28945 19.1285 3.5306ZM12.5084 22.3962C12.2117 22.3941 11.9187 22.3302 11.6481 22.2087C11.3774 22.0871 11.135 21.9106 10.9362 21.6904L6.29468 16.5034C5.27466 15.3664 4.58686 13.9709 4.30646 12.4693C4.02606 10.9678 4.16385 9.41811 4.70478 7.98961C5.24571 6.56112 6.16895 5.30883 7.37358 4.36964C8.57821 3.43045 10.0179 2.84052 11.5351 2.66432C11.8667 2.66432 12.1982 2.66432 12.5298 2.66432C14.5741 2.66819 16.5443 3.43035 18.059 4.80328C19.7045 6.27685 20.6985 8.34293 20.8228 10.5483C20.9471 12.7537 20.1916 14.9184 18.7221 16.5676L14.0805 21.7546C13.8761 21.9632 13.6312 22.1277 13.3608 22.2381C13.0905 22.3485 12.8003 22.4023 12.5084 22.3962ZM12.5084 6.71766C11.66 6.71772 10.8308 6.97003 10.1262 7.4425C9.42161 7.91497 8.87338 8.58627 8.55123 9.37108C8.22907 10.1559 8.14753 11.0188 8.31698 11.85C8.48642 12.6813 8.8992 13.4434 9.50284 14.0395C10.1065 14.6356 10.8737 15.0387 11.7071 15.1977C12.5404 15.3567 13.4022 15.2643 14.1829 14.9323C14.9635 14.6003 15.6279 14.0437 16.0915 13.3332C16.555 12.6227 16.7969 11.7904 16.7863 10.9421C16.7722 9.81682 16.3153 8.7424 15.5146 7.95167C14.7138 7.16093 13.6337 6.71757 12.5084 6.71766ZM12.5084 13.573C11.9876 13.5751 11.4779 13.4226 11.0438 13.1348C10.6097 12.847 10.2709 12.4369 10.0701 11.9563C9.86933 11.4758 9.8157 10.9465 9.91601 10.4354C10.0163 9.92437 10.266 9.45459 10.6335 9.08558C11.0011 8.71656 11.4698 8.46493 11.9805 8.36254C12.4911 8.26016 13.0206 8.31163 13.502 8.51044C13.9834 8.70925 14.3949 9.04645 14.6845 9.47934C14.974 9.91222 15.1286 10.4213 15.1286 10.9421C15.1286 11.638 14.8529 12.3056 14.3618 12.7987C13.8707 13.2918 13.2043 13.5702 12.5084 13.573Z" fill="#0311D0"/>
</svg>
