<svg width="24" height="25" viewBox="0 0 24 25" fill="none" xmlns="http://www.w3.org/2000/svg">
<path opacity="0.3" d="M15.2424 5.77418C15.1912 4.62523 14.6897 3.54265 13.8463 2.7607C13.003 1.97875 11.8856 1.56032 10.7361 1.59596H6.00005C4.84309 1.54852 3.71451 1.96165 2.86161 2.74484C2.00872 3.52802 1.50109 4.61738 1.44995 5.77418V18.8995C1.49827 20.0582 2.00468 21.1504 2.85789 21.9359C3.71109 22.7214 4.84128 23.136 6.00005 23.0886H10.7798C11.9237 23.1125 13.0315 22.6874 13.8656 21.9043C14.6998 21.1213 15.1941 20.0426 15.2424 18.8995V5.77418Z" fill="#404040" fill-opacity="0.7"/>
<path d="M8.84841 11.5166H19.6877L17.9377 9.72278C17.784 9.56897 17.6978 9.36047 17.6978 9.14308C17.6978 8.92569 17.784 8.7172 17.9377 8.56338C18.0131 8.48599 18.1032 8.42448 18.2028 8.38248C18.3023 8.34048 18.4093 8.31885 18.5174 8.31885C18.6254 8.31885 18.7324 8.34048 18.832 8.38248C18.9315 8.42448 19.0217 8.48599 19.0971 8.56338L22.3018 11.7572C22.4554 11.911 22.5417 12.1195 22.5417 12.3369C22.5417 12.5543 22.4554 12.7628 22.3018 12.9166L19.0314 16.1104C18.9561 16.1876 18.8659 16.2487 18.7662 16.2901C18.6666 16.3314 18.5596 16.3522 18.4517 16.3511C18.344 16.3516 18.2372 16.3305 18.1376 16.2892C18.0381 16.2479 17.9478 16.1871 17.872 16.1104C17.7184 15.9566 17.6321 15.7481 17.6321 15.5307C17.6321 15.3133 17.7184 15.1048 17.872 14.951L19.6768 13.1572H8.84841C8.63084 13.1572 8.42219 13.0708 8.26835 12.917C8.1145 12.7631 8.02808 12.5545 8.02808 12.3369C8.02808 12.1193 8.1145 11.9107 8.26835 11.7568C8.42219 11.603 8.63084 11.5166 8.84841 11.5166Z" fill="#404040" fill-opacity="0.7"/>
</svg>
