<svg width="20" height="20" viewBox="0 0 20 20" fill="none" xmlns="http://www.w3.org/2000/svg">
<g opacity="0.5">
<path opacity="0.3" d="M10.0014 9.92757C12.4551 9.92757 14.4443 7.93839 14.4443 5.48461C14.4443 3.03084 12.4551 1.04166 10.0014 1.04166C7.54759 1.04166 5.55841 3.03084 5.55841 5.48461C5.55841 7.93839 7.54759 9.92757 10.0014 9.92757Z" fill="#0311D0"/>
<path d="M16.8987 18.9567C17.0451 18.965 17.1916 18.9417 17.3282 18.8883C17.4648 18.8349 17.5883 18.7527 17.6903 18.6473C17.7923 18.5419 17.8704 18.4158 17.9193 18.2775C17.9682 18.1392 17.9867 17.992 17.9736 17.8459C17.4003 14.4779 14.0502 11.8892 10.0013 11.8892C5.95252 11.8892 2.60239 14.4779 2.02911 17.8459C2.01601 17.992 2.03453 18.1392 2.08341 18.2775C2.13229 18.4158 2.21038 18.5419 2.31238 18.6473C2.41437 18.7527 2.53787 18.8349 2.67448 18.8883C2.81108 18.9417 2.95758 18.965 3.10402 18.9567H16.8987Z" fill="#0311D0"/>
</g>
</svg>
