<svg width="16" height="16" viewBox="0 0 16 16" fill="none" xmlns="http://www.w3.org/2000/svg">
<path d="M6.66634 11.3333H7.33301V11.9999C7.33301 12.1767 7.40325 12.3463 7.52827 12.4713C7.65329 12.5963 7.82286 12.6666 7.99967 12.6666C8.17649 12.6666 8.34605 12.5963 8.47108 12.4713C8.5961 12.3463 8.66634 12.1767 8.66634 11.9999V11.3333H9.33301C9.50982 11.3333 9.67939 11.263 9.80441 11.138C9.92944 11.013 9.99967 10.8434 9.99967 10.6666C9.99967 10.4898 9.92944 10.3202 9.80441 10.1952C9.67939 10.0702 9.50982 9.99992 9.33301 9.99992H8.66634V9.33325C8.66634 9.15644 8.5961 8.98687 8.47108 8.86185C8.34605 8.73682 8.17649 8.66658 7.99967 8.66658C7.82286 8.66658 7.65329 8.73682 7.52827 8.86185C7.40325 8.98687 7.33301 9.15644 7.33301 9.33325V9.99992H6.66634C6.48953 9.99992 6.31996 10.0702 6.19494 10.1952C6.06991 10.3202 5.99967 10.4898 5.99967 10.6666C5.99967 10.8434 6.06991 11.013 6.19494 11.138C6.31996 11.263 6.48953 11.3333 6.66634 11.3333ZM12.6663 3.99992H11.333V3.33325C11.333 2.80282 11.1223 2.29411 10.7472 1.91904C10.3721 1.54397 9.86344 1.33325 9.33301 1.33325H6.66634C6.13591 1.33325 5.6272 1.54397 5.25213 1.91904C4.87705 2.29411 4.66634 2.80282 4.66634 3.33325V3.99992H3.33301C2.80257 3.99992 2.29387 4.21063 1.91879 4.58571C1.54372 4.96078 1.33301 5.46949 1.33301 5.99992V12.6666C1.33301 13.197 1.54372 13.7057 1.91879 14.0808C2.29387 14.4559 2.80257 14.6666 3.33301 14.6666H12.6663C13.1968 14.6666 13.7055 14.4559 14.0806 14.0808C14.4556 13.7057 14.6663 13.197 14.6663 12.6666V5.99992C14.6663 5.46949 14.4556 4.96078 14.0806 4.58571C13.7055 4.21063 13.1968 3.99992 12.6663 3.99992ZM5.99967 3.33325C5.99967 3.15644 6.06991 2.98687 6.19494 2.86185C6.31996 2.73682 6.48953 2.66659 6.66634 2.66659H9.33301C9.50982 2.66659 9.67939 2.73682 9.80441 2.86185C9.92944 2.98687 9.99967 3.15644 9.99967 3.33325V3.99992H5.99967V3.33325ZM13.333 12.6666C13.333 12.8434 13.2628 13.013 13.1377 13.138C13.0127 13.263 12.8432 13.3333 12.6663 13.3333H3.33301C3.1562 13.3333 2.98663 13.263 2.8616 13.138C2.73658 13.013 2.66634 12.8434 2.66634 12.6666V7.99992H13.333V12.6666ZM13.333 6.66658H2.66634V5.99992C2.66634 5.82311 2.73658 5.65354 2.8616 5.52851C2.98663 5.40349 3.1562 5.33325 3.33301 5.33325H12.6663C12.8432 5.33325 13.0127 5.40349 13.1377 5.52851C13.2628 5.65354 13.333 5.82311 13.333 5.99992V6.66658Z" fill="black"/>
</svg>
