<svg width="25" height="24" viewBox="0 0 25 24" fill="none" xmlns="http://www.w3.org/2000/svg">
<path d="M14.2003 12C14.2003 12.9389 13.4392 13.7 12.5003 13.7C11.5614 13.7 10.8003 12.9389 10.8003 12C10.8003 11.0612 11.5614 10.3 12.5003 10.3C13.4392 10.3 14.2003 11.0612 14.2003 12Z" fill="#404040"/>
<path fill-rule="evenodd" clip-rule="evenodd" d="M5.8001 13.7C6.73898 13.7 7.5001 12.9389 7.5001 12C7.5001 11.0612 6.73898 10.3 5.8001 10.3C4.86121 10.3 4.1001 11.0612 4.1001 12C4.1001 12.9389 4.86121 13.7 5.8001 13.7ZM19.2 13.7C20.1389 13.7 20.9 12.9389 20.9 12C20.9 11.0612 20.1389 10.3 19.2 10.3C18.2611 10.3 17.5 11.0612 17.5 12C17.5 12.9389 18.2611 13.7 19.2 13.7Z" fill="#404040"/>
</svg>
