<svg width="44" height="48" viewBox="0 0 44 48" fill="none" xmlns="http://www.w3.org/2000/svg">
<path d="M16 2.4641C19.7128 0.320509 24.2872 0.320508 28 2.4641L37.6506 8.0359C41.3634 10.1795 43.6506 14.141 43.6506 18.4282V29.5718C43.6506 33.859 41.3634 37.8205 37.6506 39.9641L28 45.5359C24.2872 47.6795 19.7128 47.6795 16 45.5359L6.34937 39.9641C2.63655 37.8205 0.349365 33.859 0.349365 29.5718V18.4282C0.349365 14.141 2.63655 10.1795 6.34937 8.0359L16 2.4641Z" fill="#E7F1FF"/>
<path d="M16.25 2.89746C19.697 0.907348 23.9187 0.845146 27.4141 2.71094L27.75 2.89746L37.4004 8.46875C40.9584 10.5229 43.1502 14.3194 43.1504 18.4277V29.5723C43.1502 33.5521 41.0935 37.2388 37.7305 39.333L37.4004 39.5312L27.75 45.1025C24.303 47.0927 20.0813 47.1549 16.5859 45.2891L16.25 45.1025L6.59961 39.5312C3.04163 37.477 0.849776 33.6806 0.849609 29.5723V18.4277C0.849771 14.4479 2.90648 10.7612 6.26953 8.66699L6.59961 8.46875L16.25 2.89746Z" stroke="#0311D0" stroke-opacity="0.2"/>
<path opacity="0.1" d="M28.2419 22.0807C28.2129 23.481 28.6221 24.8567 29.415 26.0239L30.0785 26.9816C30.3515 27.3921 30.507 27.8666 30.5288 28.3556C30.5506 28.8447 30.4379 29.3306 30.2024 29.7627C29.9669 30.1948 29.6171 30.5575 29.1895 30.8131C28.7619 31.0686 28.2721 31.2077 27.7708 31.2159H24.5881V31.5258C24.5029 32.1328 24.1954 32.6891 23.7226 33.0919C23.2497 33.4947 22.6435 33.7166 22.016 33.7166C21.3885 33.7166 20.7823 33.4947 20.3094 33.0919C19.8366 32.6891 19.5291 32.1328 19.4439 31.5258V31.2159H16.2804C15.5486 31.2159 14.8466 30.932 14.3291 30.4267C13.8116 29.9214 13.5208 29.236 13.5208 28.5214C13.5241 27.9473 13.7125 27.3888 14.0593 26.9253L14.7035 26.0615C15.6122 24.8684 16.0953 23.4172 16.0785 21.9304C16.0517 20.7624 16.3871 19.6137 17.0409 18.6351C17.6947 17.6566 18.6363 16.894 19.742 16.4474C20.2416 16.2529 20.7654 16.1234 21.2997 16.0625L22.742 16.0249C24.2467 16.1693 25.6428 16.8545 26.6592 17.9476C27.6755 19.0406 28.2396 20.4635 28.2419 21.9398V22.0807Z" fill="#0311D0"/>
<path fill-rule="evenodd" clip-rule="evenodd" d="M29.4908 26.0772C28.6892 24.8972 28.2755 23.5064 28.3049 22.0907V21.9483C28.3025 20.4557 27.7323 19.0173 26.7047 17.9122C25.6772 16.8072 24.2658 16.1144 22.7445 15.9684V14.8579C22.7445 14.7644 22.7256 14.6718 22.689 14.5855C22.6524 14.4991 22.5987 14.4206 22.531 14.3545C22.4633 14.2884 22.3829 14.236 22.2944 14.2002C22.206 14.1644 22.1112 14.146 22.0154 14.146C21.9197 14.146 21.8249 14.1644 21.7364 14.2002C21.648 14.236 21.5676 14.2884 21.4999 14.3545C21.4322 14.4206 21.3785 14.4991 21.3419 14.5855C21.3052 14.6718 21.2864 14.7644 21.2864 14.8579V16.0064C20.7462 16.068 20.2167 16.1989 19.7116 16.3956C18.5937 16.8471 17.6419 17.6181 16.9809 18.6073C16.3199 19.5966 15.9807 20.7579 16.0079 21.9388C16.0248 23.4419 15.5365 24.909 14.6178 26.1152L13.9665 26.9885C13.616 27.4571 13.4255 28.0217 13.4221 28.6021C13.4221 29.3246 13.7161 30.0175 14.2393 30.5284C14.7625 31.0392 15.4721 31.3262 16.2121 31.3262H19.4102V31.6395C19.4964 32.2532 19.8072 32.8156 20.2852 33.2228C20.7633 33.63 21.3762 33.8543 22.0106 33.8543C22.6449 33.8543 23.2579 33.63 23.7359 33.2228C24.214 32.8156 24.5248 32.2532 24.6109 31.6395V31.3262H27.8285C28.3353 31.318 28.8306 31.1773 29.2629 30.919C29.6952 30.6606 30.0487 30.2939 30.2868 29.857C30.5249 29.4202 30.6389 28.929 30.6168 28.4346C30.5948 27.9401 30.4376 27.4605 30.1616 27.0454L29.4908 26.0772ZM23.1625 31.4781C23.1204 31.7447 22.9812 31.9874 22.7705 32.1618C22.5597 32.3362 22.2916 32.4304 22.0154 32.4273C21.7403 32.4266 21.4743 32.3309 21.2644 32.1572C21.0545 31.9835 20.9142 31.743 20.8684 31.4781V31.3262H23.1625V31.4781ZM27.8285 29.9025H16.2121C15.8588 29.9025 15.5201 29.7655 15.2704 29.5216C15.0206 29.2777 14.8803 28.947 14.8803 28.6021C14.8919 28.3188 15.0016 28.0478 15.1914 27.8332L15.8427 26.96C16.9381 25.4827 17.5083 23.6958 17.466 21.8724C17.4528 20.9902 17.7106 20.1245 18.2062 19.3868C18.7017 18.6492 19.4123 18.0734 20.2462 17.7339C20.8643 17.4921 21.5246 17.3697 22.1904 17.3732C23.4288 17.3757 24.6156 17.8579 25.4904 18.7138C26.3652 19.5697 26.8565 20.7296 26.8564 21.9388V22.0907C26.8299 23.7774 27.3282 25.4323 28.2854 26.8366L28.9367 27.7858C29.0897 28.0138 29.1677 28.2821 29.1603 28.5546C29.1668 28.7293 29.1372 28.9036 29.0732 29.0668C29.0092 29.2301 28.9122 29.3791 28.7878 29.505C28.6635 29.6308 28.5145 29.7308 28.3497 29.7991C28.1848 29.8674 28.0076 29.9026 27.8285 29.9025ZM13.7234 22.6789C13.8186 22.6661 13.9103 22.6351 13.9932 22.5875C14.0761 22.54 14.1485 22.4769 14.2064 22.4019C14.2642 22.3269 14.3062 22.2415 14.3301 22.1506C14.354 22.0597 14.3592 21.965 14.3455 21.8721C14.1988 21.0119 14.2899 20.1291 14.6095 19.3148C14.929 18.5005 15.4655 17.7843 16.1633 17.2401C16.3092 17.1322 16.4081 16.9747 16.4405 16.7989C16.4729 16.623 16.4365 16.4417 16.3383 16.2909C16.2292 16.1467 16.0678 16.0486 15.887 16.0168C15.7063 15.9851 15.52 16.022 15.3662 16.1201C14.4472 16.8097 13.7343 17.7274 13.3017 18.7774C12.8692 19.8274 12.7328 20.9715 12.9068 22.0904C12.9305 22.2598 13.0166 22.415 13.149 22.5268C13.2815 22.6387 13.4511 22.6995 13.6262 22.6979L13.7234 22.6789ZM28.3998 15.9301C28.4972 15.9591 28.5874 16.0076 28.6644 16.0727C29.5812 16.7692 30.2895 17.6934 30.7153 18.7487C31.1411 19.804 31.2687 20.9516 31.0849 22.0715C31.0612 22.2409 30.9751 22.396 30.8427 22.5079C30.7103 22.6197 30.5406 22.6805 30.3655 22.679H30.2683C30.1731 22.6662 30.0814 22.6351 29.9985 22.5876C29.9156 22.54 29.8432 22.4769 29.7854 22.402C29.7275 22.327 29.6855 22.2416 29.6616 22.1506C29.6377 22.0597 29.6325 21.9651 29.6462 21.8722C29.7896 21.0107 29.697 20.1275 29.3777 19.3123C29.0584 18.4971 28.5239 17.7789 27.8284 17.2307C27.7398 17.1817 27.6626 17.1151 27.602 17.0353C27.5413 16.9555 27.4984 16.8641 27.4761 16.7671C27.4538 16.6701 27.4525 16.5696 27.4724 16.4721C27.4923 16.3746 27.5329 16.2822 27.5916 16.2009C27.6502 16.1197 27.7257 16.0513 27.813 16.0003C27.9004 15.9492 27.9978 15.9166 28.0988 15.9045C28.1999 15.8924 28.3024 15.9011 28.3998 15.9301Z" fill="#0311D0"/>
</svg>
