<svg width="21" height="20" viewBox="0 0 21 20" fill="none" xmlns="http://www.w3.org/2000/svg">
<path opacity="0.3" d="M10.5016 9.92766C12.9553 9.92766 14.9445 7.93848 14.9445 5.4847C14.9445 3.03093 12.9553 1.04175 10.5016 1.04175C8.04777 1.04175 6.05859 3.03093 6.05859 5.4847C6.05859 7.93848 8.04777 9.92766 10.5016 9.92766Z" fill="#404040"/>
<path d="M17.399 18.9567C17.5455 18.965 17.692 18.9417 17.8286 18.8883C17.9652 18.8349 18.0887 18.7527 18.1907 18.6473C18.2927 18.5419 18.3708 18.4158 18.4197 18.2775C18.4685 18.1392 18.4871 17.992 18.474 17.8459C17.9007 14.4779 14.5505 11.8892 10.5017 11.8892C6.45289 11.8892 3.10276 14.4779 2.52947 17.8459C2.51637 17.992 2.53489 18.1392 2.58377 18.2775C2.63265 18.4158 2.71075 18.5419 2.81274 18.6473C2.91474 18.7527 3.03824 18.8349 3.17484 18.8883C3.31145 18.9417 3.45795 18.965 3.60438 18.9567H17.399Z" fill="#404040"/>
</svg>
