<svg width="25" height="17" viewBox="0 0 25 17" fill="none" xmlns="http://www.w3.org/2000/svg">
<path d="M23.4828 6.25524L18.9692 5.55984L16.2185 1.06634C16.0742 0.831146 15.8715 0.637195 15.6302 0.503256C15.3889 0.369318 15.1171 0.299926 14.8411 0.301795L3.31325 0.393645C2.98063 0.396454 2.65715 0.502801 2.38775 0.697908C2.11835 0.893016 1.91641 1.16719 1.81 1.48234L0.5 5.36689V14.2981H3.2503C3.4641 14.9931 3.89509 15.6013 4.47998 16.0333C5.06487 16.4653 5.77286 16.6984 6.5 16.6984C7.22714 16.6984 7.93512 16.4653 8.52001 16.0333C9.1049 15.6013 9.53589 14.9931 9.7497 14.2981H14.8503C15.0641 14.9931 15.4951 15.6013 16.08 16.0333C16.6649 16.4653 17.3729 16.6984 18.1 16.6984C18.8271 16.6984 19.5351 16.4653 20.12 16.0333C20.7049 15.6013 21.1359 14.9931 21.3497 14.2981H24.5V7.44124C24.5013 7.1543 24.3992 6.87649 24.2124 6.65869C24.0256 6.44088 23.7666 6.29766 23.4828 6.25524ZM10.9 1.93314L14.8539 1.90164L17.0589 5.50399L10.9 5.50184V1.93314ZM3.32605 1.99354L9.3 1.94594V5.50129L2.14405 5.49874L3.32605 1.99354ZM6.5 15.0981C6.14399 15.0981 5.79598 14.9926 5.49997 14.7948C5.20396 14.597 4.97325 14.3159 4.83701 13.987C4.70078 13.6581 4.66513 13.2961 4.73458 12.947C4.80404 12.5978 4.97547 12.2771 5.22721 12.0253C5.47894 11.7736 5.79967 11.6022 6.14883 11.5327C6.498 11.4633 6.85992 11.4989 7.18883 11.6352C7.51773 11.7714 7.79886 12.0021 7.99664 12.2981C8.19443 12.5941 8.3 12.9421 8.3 13.2981C8.29947 13.7754 8.10965 14.2329 7.7722 14.5703C7.43475 14.9078 6.97722 15.0976 6.5 15.0981ZM18.1 15.0981C17.744 15.0981 17.396 14.9926 17.1 14.7948C16.804 14.597 16.5732 14.3159 16.437 13.987C16.3008 13.6581 16.2651 13.2961 16.3346 12.947C16.404 12.5978 16.5755 12.2771 16.8272 12.0253C17.0789 11.7736 17.3997 11.6022 17.7488 11.5327C18.098 11.4633 18.4599 11.4989 18.7888 11.6352C19.1177 11.7714 19.3988 12.0021 19.5966 12.2981C19.7944 12.5941 19.9 12.9421 19.9 13.2981C19.8995 13.7754 19.7096 14.2329 19.3722 14.5703C19.0347 14.9078 18.5772 15.0976 18.1 15.0981ZM22.9 12.6981H21.4459C21.3053 11.913 20.8931 11.2023 20.2815 10.6904C19.6698 10.1786 18.8976 9.89807 18.1 9.89807C17.3024 9.89807 16.5302 10.1786 15.9185 10.6904C15.3068 11.2023 14.8947 11.913 14.7541 12.6981H9.84589C9.70533 11.913 9.29315 11.2023 8.68148 10.6904C8.06981 10.1786 7.2976 9.89807 6.5 9.89807C5.70239 9.89807 4.93019 10.1786 4.31852 10.6904C3.70684 11.2023 3.29466 11.913 3.1541 12.6981H2.1V7.09944L18.6263 7.12589L22.9 7.78434V12.6981Z" fill="#0311D0"/>
</svg>
