<svg width="20" height="20" viewBox="0 0 20 20" fill="none" xmlns="http://www.w3.org/2000/svg">
<g opacity="0.5">
<path fill-rule="evenodd" clip-rule="evenodd" d="M5.71802 7.71237H4.54448L4.37427 7.73028V5.89474C4.379 4.60755 4.8933 3.37457 5.80478 2.46522C6.71626 1.55587 7.95081 1.04411 9.23864 1.04175H10.7616C12.0494 1.04411 13.2839 1.55587 14.1954 2.46522C15.1069 3.37457 15.6212 4.60755 15.6259 5.89474V7.71237H15.4557H14.2822V5.9216C14.2822 4.98834 13.9113 4.0933 13.251 3.43339C12.5908 2.77347 11.6953 2.40273 10.7616 2.40273H9.23864C8.30491 2.40273 7.40943 2.77347 6.74918 3.43339C6.08894 4.0933 5.71802 4.98834 5.71802 5.9216V7.71237ZM13.5831 13.8815C14.0729 13.8815 14.47 13.4846 14.47 12.9951C14.47 12.5055 14.0729 12.1086 13.5831 12.1086C13.0933 12.1086 12.6962 12.5055 12.6962 12.9951C12.6962 13.4846 13.0933 13.8815 13.5831 13.8815ZM7.30362 13.004C7.30362 13.4936 6.90655 13.8905 6.41674 13.8905C5.92693 13.8905 5.52987 13.4936 5.52987 13.004C5.52987 12.5145 5.92693 12.1176 6.41674 12.1176C6.90655 12.1176 7.30362 12.5145 7.30362 13.004ZM10.8868 13.004C10.8868 13.4936 10.4897 13.8905 9.99991 13.8905C9.5101 13.8905 9.11304 13.4936 9.11304 13.004C9.11304 12.5145 9.5101 12.1176 9.99991 12.1176C10.4897 12.1176 10.8868 12.5145 10.8868 13.004Z" fill="#0311D0"/>
<path opacity="0.3" d="M15.4557 7.7124H4.54446C2.60996 7.7124 1.04175 9.27983 1.04175 11.2134V15.4575C1.04175 17.391 2.60996 18.9584 4.54446 18.9584H15.4557C17.3902 18.9584 18.9584 17.391 18.9584 15.4575V11.2134C18.9584 9.27983 17.3902 7.7124 15.4557 7.7124Z" fill="#0311D0"/>
</g>
</svg>
