<svg width="16" height="16" viewBox="0 0 16 16" fill="none" xmlns="http://www.w3.org/2000/svg">
<path d="M10.7381 15.1665H5.2632C4.09961 15.1753 2.97996 14.7227 2.1497 13.9078C1.31944 13.0929 0.846292 11.9822 0.833984 10.8192V5.71972C0.83747 5.14215 0.95485 4.57093 1.17941 4.03874C1.40397 3.50656 1.73131 3.02385 2.14269 2.61822C2.55407 2.2126 3.04142 1.89203 3.57687 1.67485C4.11232 1.45767 4.68536 1.34814 5.2632 1.35252H7.621C7.6866 1.35252 7.75156 1.36544 7.81217 1.39053C7.87277 1.41562 7.92784 1.4524 7.97423 1.49876C8.02062 1.54513 8.05741 1.60017 8.08251 1.66075C8.10762 1.72133 8.12054 1.78625 8.12054 1.85182C8.12054 1.91739 8.10762 1.98232 8.08251 2.04289C8.05741 2.10347 8.02062 2.15851 7.97423 2.20488C7.92784 2.25124 7.87277 2.28802 7.81217 2.31311C7.75156 2.33821 7.6866 2.35112 7.621 2.35112H5.2632C4.3709 2.34572 3.51246 2.69217 2.87406 3.31531C2.23566 3.93845 1.8688 4.78803 1.85304 5.67978V10.7793C1.8688 11.671 2.23566 12.5206 2.87406 13.1438C3.51246 13.7669 4.3709 14.1133 5.2632 14.1079H10.7381C11.6304 14.1133 12.4888 13.7669 13.1272 13.1438C13.7656 12.5206 14.1325 11.671 14.1483 10.7793V7.43731C14.1626 7.31227 14.2224 7.19687 14.3164 7.1131C14.4104 7.02932 14.5319 6.98302 14.6578 6.98302C14.7837 6.98302 14.9052 7.02932 14.9992 7.1131C15.0931 7.19687 15.153 7.31227 15.1673 7.43731V10.8192C15.155 11.9822 14.6819 13.0929 13.8516 13.9078C13.0213 14.7227 11.9017 15.1753 10.7381 15.1665ZM11.7838 1.85182C11.6869 1.84997 11.591 1.87137 11.504 1.91423C11.4171 1.95709 11.3418 2.02016 11.2843 2.09814L10.8913 2.6041C11.0237 3.14214 11.3452 3.61468 11.7971 3.93556C12.2153 4.25203 12.7246 4.42485 13.2491 4.4282H13.329L13.722 3.92225C13.771 3.85852 13.8069 3.78567 13.8275 3.70794C13.8481 3.63022 13.853 3.54918 13.8419 3.46955C13.8322 3.38989 13.8058 3.31317 13.7645 3.24435C13.7232 3.17554 13.6678 3.11618 13.6021 3.07011L12.1568 1.97831C12.05 1.89582 11.9187 1.85131 11.7838 1.85182ZM11.7838 0.853224C12.1389 0.853219 12.4846 0.967609 12.7695 1.17943L14.2282 2.25792C14.3997 2.38337 14.5444 2.54188 14.6536 2.72411C14.7629 2.90633 14.8345 3.10858 14.8643 3.31893C14.8941 3.52927 14.8815 3.74345 14.8271 3.94883C14.7728 4.15421 14.6778 4.34663 14.5479 4.51475L14.1083 5.08728C14.0437 5.17265 13.9627 5.24428 13.8701 5.29801C13.7774 5.35173 13.675 5.38646 13.5688 5.40017H13.2491C12.5054 5.40363 11.78 5.17047 11.1777 4.73444C10.4892 4.23905 10.0134 3.50189 9.8456 2.67067C9.82978 2.56518 9.83581 2.45757 9.8633 2.35451C9.8908 2.25144 9.93918 2.15512 10.0055 2.07151L10.445 1.49898C10.6001 1.29228 10.8013 1.12451 11.0325 1.00896C11.2637 0.893409 11.5186 0.833252 11.7771 0.833252L11.7838 0.853224ZM8.74662 5.3802L7.25468 7.34411C7.1893 7.4256 7.15193 7.52598 7.14811 7.63037V9.73409C7.1449 9.75996 7.14808 9.78624 7.15737 9.81061C7.16666 9.83498 7.18177 9.8567 7.20139 9.87389C7.24211 9.91478 7.2969 9.93859 7.35459 9.94046H7.41453L9.45263 9.3413C9.55317 9.3082 9.64137 9.24555 9.70573 9.16156L11.1977 7.23093C10.7237 7.04016 10.276 6.78959 9.86558 6.48531C9.45326 6.17841 9.08368 5.81796 8.7666 5.41349M8.79991 3.97551C8.87551 3.97373 8.95006 3.99343 9.01491 4.03232C9.07975 4.07121 9.13223 4.12769 9.16623 4.1952C9.50047 4.78033 9.95437 5.28846 10.4983 5.68644C11.0396 6.09052 11.6623 6.37219 12.3233 6.51194C12.3949 6.52298 12.4622 6.55295 12.5183 6.59874C12.5744 6.64453 12.6173 6.70447 12.6424 6.77237C12.6675 6.84027 12.674 6.91365 12.6613 6.98491C12.6485 7.05617 12.6169 7.12272 12.5697 7.17768L10.5716 9.78734C10.376 10.0427 10.1024 10.2274 9.79232 10.3133L7.73423 10.9124C7.62185 10.9463 7.50526 10.9643 7.38789 10.9657C7.22677 10.9684 7.06675 10.9387 6.91729 10.8785C6.76783 10.8184 6.63196 10.7288 6.51771 10.6152C6.40346 10.5017 6.31314 10.3664 6.25211 10.2173C6.19108 10.0682 6.16056 9.90845 6.16236 9.7474V7.64369C6.16761 7.3244 6.27759 7.01567 6.4754 6.76492L8.47354 4.15525C8.51383 4.10572 8.56458 4.0657 8.62215 4.03808C8.67973 4.01046 8.7427 3.99591 8.80657 3.99548L8.79991 3.97551Z" fill="#404040" fill-opacity="0.7"/>
</svg>
