<svg width="16" height="16" viewBox="0 0 16 16" fill="none" xmlns="http://www.w3.org/2000/svg">
<path opacity="0.3" d="M1.33312 7.18046V11.3375C1.3292 11.8609 1.43043 12.3798 1.63099 12.8645C1.83154 13.3491 2.12745 13.7899 2.50166 14.1613C2.87587 14.5328 3.32098 14.8276 3.81135 15.0288C4.30172 15.2299 4.82764 15.3335 5.35881 15.3335H10.974C11.5026 15.3335 12.0261 15.2309 12.5145 15.0315C13.003 14.8322 13.4468 14.54 13.8206 14.1717C14.1944 13.8033 14.4909 13.366 14.6932 12.8848C14.8955 12.4035 14.9997 11.8877 14.9997 11.3667V7.18046C14.9997 7.02129 14.9355 6.86864 14.8213 6.7561C14.7071 6.64355 14.5522 6.58032 14.3906 6.58032H1.94217C1.78064 6.58032 1.62572 6.64355 1.5115 6.7561C1.39729 6.86864 1.33312 7.02129 1.33312 7.18046Z" fill="#001F7A"/>
<path fill-rule="evenodd" clip-rule="evenodd" d="M14.775 5.04348C14.7871 4.94691 14.7752 4.84891 14.7402 4.7579C14.5337 4.18757 14.1974 3.6714 13.7571 3.24895C13.3168 2.82651 12.7842 2.509 12.2 2.32077V1.20101C12.2 1.06708 12.1461 0.938635 12.0499 0.843931C11.9538 0.749227 11.8235 0.696023 11.6876 0.696023C11.5574 0.695898 11.4322 0.745307 11.3381 0.833941C11.244 0.922575 11.1882 1.04359 11.1825 1.17174V2.10853H10.9448H8.79084V1.17174C8.79084 1.03781 8.73684 0.90936 8.64073 0.814656C8.54462 0.719952 8.41426 0.666748 8.27834 0.666748C8.14242 0.666748 8.01206 0.719952 7.91595 0.814656C7.81984 0.90936 7.76585 1.03781 7.76585 1.17174V2.15976H5.33706H5.09938V1.20101C5.09938 1.06708 5.04539 0.938635 4.94928 0.843931C4.85316 0.749227 4.72281 0.696023 4.58689 0.696023C4.45671 0.695898 4.33151 0.745307 4.2374 0.833941C4.1433 0.922575 4.08756 1.04359 4.08182 1.17174V2.32077C3.529 2.49859 3.02174 2.7921 2.59483 3.18118C2.16791 3.57026 1.83143 4.04571 1.60847 4.57493C1.56553 4.68449 1.54998 4.80263 1.56313 4.91936C1.57628 5.03609 1.61775 5.14798 1.68404 5.2456C1.75032 5.34321 1.83947 5.42367 1.94396 5.48018C2.04845 5.53669 2.16521 5.56759 2.28437 5.57027H14.1683C14.2671 5.57063 14.3644 5.54733 14.452 5.50237C14.5395 5.45741 14.6147 5.39215 14.671 5.31221C14.7273 5.23227 14.763 5.14004 14.775 5.04348ZM6.37714 9.33929C6.37714 9.68286 6.09115 9.96138 5.73837 9.96138C5.38559 9.96138 5.09961 9.68286 5.09961 9.33929C5.09961 8.99572 5.38559 8.7172 5.73837 8.7172C6.09115 8.7172 6.37714 8.99572 6.37714 9.33929ZM8.12249 9.96138C8.47527 9.96138 8.76125 9.68286 8.76125 9.33929C8.76125 8.99572 8.47527 8.7172 8.12249 8.7172C7.76971 8.7172 7.48372 8.99572 7.48372 9.33929C7.48372 9.68286 7.76971 9.96138 8.12249 9.96138ZM6.36932 11.6814C6.36932 12.025 6.08334 12.3035 5.73056 12.3035C5.37778 12.3035 5.0918 12.025 5.0918 11.6814C5.0918 11.3378 5.37778 11.0593 5.73056 11.0593C6.08334 11.0593 6.36932 11.3378 6.36932 11.6814Z" fill="#001F7A"/>
</svg>
