
<svg width="16" height="16" viewBox="0 0 16 16" fill="none" xmlns="http://www.w3.org/2000/svg">
<path d="M7.99983 13.0879C8.94033 13.0889 9.83333 13.5144 10.7628 13.1724C11.5013 12.9004 12.0813 12.2399 12.2113 11.3494C12.3278 10.5514 11.9893 9.81144 11.4168 9.17644C9.61683 7.18044 6.38283 7.18044 4.58283 9.17644C4.01033 9.81144 3.67233 10.5509 3.78833 11.3494C3.91783 12.2399 4.49833 12.9009 5.23683 13.1724C6.16633 13.5144 7.05933 13.0894 7.99983 13.0879Z" fill="black"/>
<path d="M6.11988 6.1595C6.91219 6.00537 7.40459 5.10981 7.21967 4.15919C7.03475 3.20858 6.24255 2.5629 5.45023 2.71703C4.65792 2.87115 4.16553 3.76672 4.35045 4.71733C4.53537 5.66794 5.32757 6.31362 6.11988 6.1595Z" fill="black"/>
<path d="M2.5717 8.49713C3.26046 8.36315 3.68845 7.58433 3.52763 6.7576C3.36681 5.93086 2.67808 5.36927 1.98931 5.50325C1.30054 5.63724 0.872559 6.41605 1.03338 7.24279C1.1942 8.06953 1.88293 8.63112 2.5717 8.49713Z" fill="black"/>
<path d="M11.6483 4.71735C11.8332 3.76672 11.3407 2.87118 10.5484 2.7171C9.75611 2.56302 8.96394 3.20874 8.77907 4.15936C8.5942 5.10998 9.08664 6.00552 9.87896 6.15961C10.6713 6.31369 11.4634 5.66797 11.6483 4.71735Z" fill="black"/>
<path d="M14.9661 7.24299C15.1268 6.41624 14.6988 5.63745 14.01 5.5035C13.3213 5.36956 12.6326 5.93118 12.4718 6.75793C12.311 7.58467 12.739 8.36347 13.4278 8.49741C14.1166 8.63136 14.8053 8.06974 14.9661 7.24299Z" fill="black"/>
</svg>
