<svg width="18" height="18" viewBox="0 0 18 18" fill="none" xmlns="http://www.w3.org/2000/svg">
<path d="M16.1998 17V5.38792C16.1998 4.5099 16.1998 4.0709 15.9474 3.70041C15.6949 3.32992 15.2299 3.0864 14.2999 2.59937L13.1165 1.97969C11.6565 1.21514 10.9265 0.832881 10.3632 1.0697C9.7998 1.30652 9.7998 1.99567 9.7998 3.37397V6.6" stroke="#0C1892" stroke-width="1.2" stroke-linejoin="round"/>
<path d="M17 17H1" stroke="#0C1892" stroke-width="1.2" stroke-linecap="round" stroke-linejoin="round"/>
<path d="M16.1996 5.7998H14.5996M16.1996 8.1998H14.5996M16.1996 10.5998H14.5996" stroke="#0C1892" stroke-width="1.2" stroke-linecap="round" stroke-linejoin="round"/>
<path d="M5.7998 9.8001C5.7998 8.29162 5.7998 7.53738 6.26844 7.06873C6.73706 6.6001 7.49132 6.6001 8.9998 6.6001C10.5083 6.6001 11.2625 6.6001 11.7312 7.06873C12.1998 7.53738 12.1998 8.29162 12.1998 9.8001V17.0001H5.7998V9.8001Z" stroke="#0C1892" stroke-width="1.2" stroke-linejoin="round"/>
<path d="M8.59961 9.80005H9.39961M8.59961 12.2H9.39961" stroke="#0C1892" stroke-width="1.2" stroke-linecap="round"/>
<path d="M2.2 12.2C2.86274 12.2 3.4 11.4837 3.4 10.6C3.4 9.71634 2.86274 9 2.2 9C1.53726 9 1 9.71634 1 10.6C1 11.4837 1.53726 12.2 2.2 12.2Z" stroke="#0C1892" stroke-width="1.2"/>
<path d="M2.2002 12.2V17" stroke="#0C1892" stroke-width="1.2" stroke-linecap="round"/>
</svg>
