<svg width="16" height="16" viewBox="0 0 16 16" fill="none" xmlns="http://www.w3.org/2000/svg">
<path opacity="0.3" d="M13.0227 10.9074L8.9738 15.2698C8.85983 15.3945 8.71988 15.4944 8.5632 15.5628C8.40652 15.6312 8.23667 15.6666 8.06487 15.6666C7.89306 15.6666 7.72321 15.6312 7.56653 15.5628C7.40985 15.4944 7.26991 15.3945 7.15594 15.2698L3.10707 10.9074C2.46652 10.2199 1.9871 9.40581 1.70181 8.52122C1.41652 7.63664 1.33214 6.70256 1.45448 5.7833C1.60831 4.80226 1.99456 3.86923 2.58286 3.05757C3.17116 2.24592 3.94545 1.57778 4.84486 1.1057C5.74427 0.633615 6.74427 0.370456 7.76622 0.336917C8.78816 0.303379 9.8042 0.500375 10.7344 0.912415C11.6646 1.32446 12.4837 1.9403 13.1271 2.71153C13.7706 3.48276 14.2209 4.38834 14.4427 5.35705C14.6644 6.32577 14.6516 7.3312 14.4052 8.2943C14.1588 9.25739 13.6856 10.1519 13.0227 10.9074Z" fill="#404040"/>
<path d="M8.57715 2.99278C8.42848 2.88722 8.24905 2.83032 8.06484 2.83032C7.88064 2.83032 7.70121 2.88722 7.55254 2.99278L5.58595 4.42818C5.32891 4.61448 5.12033 4.85653 4.97686 5.135C4.83339 5.41347 4.759 5.72064 4.75965 6.03198V8.2372C4.75965 8.44987 4.8467 8.65384 5.00167 8.80422C5.15663 8.95461 5.3668 9.03909 5.58595 9.03909H7.23855V6.6334C7.23855 6.42072 7.3256 6.21676 7.48056 6.06637C7.63552 5.91599 7.8457 5.8315 8.06484 5.8315C8.28399 5.8315 8.49417 5.91599 8.64913 6.06637C8.80409 6.21676 8.89114 6.42072 8.89114 6.6334V9.03909H10.5437C10.7629 9.03909 10.9731 8.95461 11.128 8.80422C11.283 8.65384 11.37 8.44987 11.37 8.2372V6.03198C11.3707 5.72064 11.2963 5.41347 11.1528 5.135C11.0094 4.85653 10.8008 4.61448 10.5437 4.42818L8.57715 2.99278Z" fill="#404040"/>
</svg>
