<svg width="16" height="16" viewBox="0 0 16 16" fill="none" xmlns="http://www.w3.org/2000/svg">
<g clip-path="url(#clip0_75_2012)">
<path opacity="0.3" fill-rule="evenodd" clip-rule="evenodd" d="M9.26858 4.20157C9.26858 6.06184 7.74769 7.56989 5.87159 7.56989C3.99549 7.56989 2.47461 6.06184 2.47461 4.20157C2.47461 2.3413 3.99549 0.833252 5.87159 0.833252C7.74769 0.833252 9.26858 2.3413 9.26858 4.20157ZM10.0067 2.5247C10.3627 2.35527 10.752 2.26715 11.1462 2.2667C11.5847 2.26418 12.0171 2.3687 12.4061 2.57117C12.795 2.77365 13.1286 3.06798 13.378 3.4286C13.6274 3.78923 13.785 4.20527 13.8372 4.64062C13.8894 5.07597 13.8345 5.51747 13.6774 5.92683C13.5203 6.33618 13.2657 6.70101 12.9357 6.98966C12.6056 7.27831 12.2101 7.48207 11.7835 7.58324C11.3568 7.68441 10.912 7.67995 10.4874 7.57024C10.0629 7.46053 9.6716 7.24889 9.34741 6.95367C9.8471 6.34382 10.1723 5.61001 10.2883 4.83018C10.4044 4.05036 10.3071 3.25365 10.0067 2.5247Z" fill="#0C1892"/>
<path fill-rule="evenodd" clip-rule="evenodd" d="M9.94898 8.47999C10.3427 8.39864 10.7438 8.35782 11.1458 8.35816C13.3675 8.35816 15.1663 9.61948 15.1663 11.0528C15.1663 12.4861 13.4893 13.6543 11.3823 13.7331C11.767 13.1609 11.9739 12.4877 11.9771 11.7981C11.9487 11.1183 11.7475 10.457 11.3927 9.87646C11.0378 9.29593 10.541 8.81533 9.94898 8.47999ZM10.9093 11.7981C10.9093 13.6584 8.65364 15.1664 5.87115 15.1664C3.08866 15.1664 0.833008 13.6584 0.833008 11.7981C0.833008 9.93785 3.08866 8.42981 5.87115 8.42981C8.65364 8.42981 10.9093 9.93785 10.9093 11.7981Z" fill="#0C1892"/>
</g>
<defs>
<clipPath id="clip0_75_2012">
<rect width="16" height="16" fill="white"/>
</clipPath>
</defs>
</svg>
