<svg width="39" height="38" viewBox="0 0 39 38" fill="none" xmlns="http://www.w3.org/2000/svg">
<rect x="0.300049" width="38" height="38" rx="6" fill="#E7F1FF"/>
<path d="M28.3 29V14.4849C28.3 13.3874 28.3 12.8386 27.9845 12.3755C27.6689 11.9124 27.0876 11.608 25.9251 10.9992L24.4459 10.2246C22.6209 9.26893 21.7084 8.7911 21.0042 9.08712C20.3 9.38315 20.3 10.2446 20.3 11.9675V16" stroke="#0C1892" stroke-width="1.66667" stroke-linejoin="round"/>
<path d="M29.3 29H9.30005" stroke="#0C1892" stroke-width="1.66667" stroke-linecap="round" stroke-linejoin="round"/>
<path d="M28.3 14.9998H26.3M28.3 17.9998H26.3M28.3 20.9998H26.3" stroke="#0C1892" stroke-width="1.66667" stroke-linecap="round" stroke-linejoin="round"/>
<path d="M15.3 20C15.3 18.1144 15.3 17.1716 15.8858 16.5858C16.4716 16 17.4144 16 19.3 16C21.1856 16 22.1284 16 22.7142 16.5858C23.3 17.1716 23.3 18.1144 23.3 20V29H15.3V20Z" stroke="#0C1892" stroke-width="1.66667" stroke-linejoin="round"/>
<path d="M18.8 20H19.8M18.8 23H19.8" stroke="#0C1892" stroke-width="1.66667" stroke-linecap="round"/>
<path d="M10.8 23C11.6285 23 12.3 22.1046 12.3 21C12.3 19.8954 11.6285 19 10.8 19C9.97162 19 9.30005 19.8954 9.30005 21C9.30005 22.1046 9.97162 23 10.8 23Z" stroke="#0C1892" stroke-width="1.66667"/>
<path d="M10.8 23V29" stroke="#0C1892" stroke-width="1.66667" stroke-linecap="round"/>
</svg>
