<svg width="24" height="25" viewBox="0 0 24 25" fill="none" xmlns="http://www.w3.org/2000/svg">
<path opacity="0.3" fill-rule="evenodd" clip-rule="evenodd" d="M13.9025 6.39476C13.9025 9.18516 11.6212 11.4472 8.80702 11.4472C5.99287 11.4472 3.71155 9.18516 3.71155 6.39476C3.71155 3.60435 5.99287 1.34229 8.80702 1.34229C11.6212 1.34229 13.9025 3.60435 13.9025 6.39476ZM15.0097 3.87945C15.5437 3.62532 16.1276 3.49313 16.719 3.49245C17.3767 3.48868 18.0253 3.64545 18.6087 3.94917C19.1921 4.25289 19.6925 4.69437 20.0666 5.23531C20.4407 5.77625 20.6772 6.40031 20.7554 7.05334C20.8337 7.70636 20.7514 8.36862 20.5158 8.98265C20.2801 9.59667 19.8982 10.1439 19.4031 10.5769C18.908 11.0099 18.3148 11.3155 17.6748 11.4673C17.0349 11.619 16.3676 11.6123 15.7308 11.4478C15.094 11.2832 14.507 10.9657 14.0207 10.5229C14.7703 9.60814 15.258 8.50742 15.4322 7.33768C15.6063 6.16794 15.4603 4.97288 15.0097 3.87945Z" fill="#404040" fill-opacity="0.7"/>
<path fill-rule="evenodd" clip-rule="evenodd" d="M14.924 12.8124C15.5146 12.6904 16.1161 12.6291 16.7192 12.6296C20.0517 12.6296 22.7499 14.5216 22.7499 16.6716C22.7499 18.8216 20.2344 20.5739 17.0739 20.6921C17.651 19.8337 17.9614 18.8239 17.9662 17.7896C17.9235 16.7699 17.6218 15.7779 17.0895 14.9071C16.5573 14.0363 15.812 13.3154 14.924 12.8124ZM16.3644 17.7896C16.3644 20.58 12.9809 22.8421 8.80721 22.8421C4.63348 22.8421 1.25 20.58 1.25 17.7896C1.25 14.9992 4.63348 12.7371 8.80721 12.7371C12.9809 12.7371 16.3644 14.9992 16.3644 17.7896Z" fill="#404040" fill-opacity="0.7"/>
</svg>
