<svg width="39" height="38" viewBox="0 0 39 38" fill="none" xmlns="http://www.w3.org/2000/svg">
<rect x="0.200195" width="38" height="38" rx="6" fill="#D97400" fill-opacity="0.1"/>
<path opacity="0.3" d="M23.6194 11.4308V11.642C23.6194 12.1289 23.4259 12.5959 23.0816 12.9403C22.7373 13.2846 22.2703 13.478 21.7833 13.478H16.5873C16.1003 13.478 15.6333 13.2846 15.289 12.9403C14.9446 12.5959 14.7512 12.1289 14.7512 11.642V11.4308C13.6238 11.6636 12.6115 12.2787 11.8855 13.172C11.1594 14.0653 10.7643 15.182 10.7669 16.3331V23.1266C10.7633 23.7864 10.89 24.4404 11.1397 25.0511C11.3894 25.6618 11.7572 26.2172 12.222 26.6855C12.6869 27.1537 13.2396 27.5256 13.8485 27.7798C14.4573 28.0339 15.1104 28.1654 15.7702 28.1666H22.6187C23.9465 28.1641 25.2191 27.635 26.1571 26.6952C27.0952 25.7555 27.622 24.4819 27.622 23.1541V16.3423C27.6242 15.1875 27.2267 14.0675 26.4972 13.1723C25.7676 12.2771 24.7509 11.6618 23.6194 11.4308Z" fill="#D97400"/>
<path fill-rule="evenodd" clip-rule="evenodd" d="M22.7011 10.7238V11.651C22.7011 12.1428 22.3024 12.5415 21.8106 12.5415H16.587C16.0952 12.5415 15.6965 12.1428 15.6965 11.651V10.7238C15.6965 10.232 16.0952 9.83333 16.587 9.83333H21.8106C22.3024 9.83333 22.7011 10.232 22.7011 10.7238ZM21.1586 18.4908L20.0478 19.7577L21.2228 20.9511C21.3377 21.0764 21.4014 21.2402 21.4014 21.4101C21.4014 21.5801 21.3377 21.7438 21.2228 21.8691C21.1669 21.9309 21.099 21.9806 21.0233 22.0154C20.9475 22.0501 20.8655 22.069 20.7822 22.0711C20.7044 22.0703 20.6277 22.0537 20.5566 22.0221C20.4856 21.9905 20.4217 21.9447 20.3691 21.8875L19.194 20.6941L18.0832 21.9885C18.029 22.0478 17.963 22.0951 17.8895 22.1275C17.816 22.1599 17.7366 22.1766 17.6563 22.1766C17.576 22.1766 17.4965 22.1599 17.423 22.1275C17.3495 22.0951 17.2836 22.0478 17.2294 21.9885C17.1126 21.8642 17.0475 21.7 17.0475 21.5295C17.0475 21.3589 17.1126 21.1947 17.2294 21.0704L18.3494 19.8036L17.1651 18.6009C17.0503 18.4756 16.9866 18.3119 16.9866 18.1419C16.9866 17.972 17.0503 17.8082 17.1651 17.6829C17.2193 17.6236 17.2853 17.5763 17.3588 17.5439C17.4323 17.5115 17.5117 17.4948 17.592 17.4948C17.6723 17.4948 17.7518 17.5115 17.8253 17.5439C17.8988 17.5763 17.9647 17.6236 18.0189 17.6829L19.194 18.8763L20.3048 17.5727C20.359 17.5135 20.4249 17.4661 20.4984 17.4337C20.5719 17.4013 20.6514 17.3846 20.7317 17.3846C20.812 17.3846 20.8915 17.4013 20.965 17.4337C21.0384 17.4661 21.1044 17.5135 21.1586 17.5727C21.2797 17.6948 21.3476 17.8598 21.3476 18.0318C21.3476 18.2037 21.2797 18.3687 21.1586 18.4908Z" fill="#D97400"/>
</svg>
