<svg width="14" height="14" viewBox="0 0 14 14" fill="none" xmlns="http://www.w3.org/2000/svg">
<path opacity="0.3" d="M7.00065 13.4166C10.5445 13.4166 13.4173 10.5437 13.4173 6.99992C13.4173 3.45609 10.5445 0.583252 7.00065 0.583252C3.45682 0.583252 0.583984 3.45609 0.583984 6.99992C0.583984 10.5437 3.45682 13.4166 7.00065 13.4166Z" fill="#1951FD"/>
<path d="M7.90381 7.00013L9.71972 5.18422C9.78689 5.12669 9.84145 5.05591 9.87996 4.9763C9.91848 4.89669 9.94012 4.80998 9.94353 4.72161C9.94695 4.63324 9.93206 4.54512 9.8998 4.46278C9.86754 4.38043 9.81861 4.30565 9.75607 4.24312C9.69354 4.18058 9.61875 4.13165 9.53641 4.09939C9.45407 4.06713 9.36595 4.05224 9.27758 4.05565C9.18921 4.05907 9.1025 4.08071 9.02289 4.11923C8.94328 4.15774 8.8725 4.2123 8.81497 4.27947L6.99906 6.09538L5.18314 4.27947C5.06039 4.17434 4.90249 4.11941 4.741 4.12565C4.5795 4.13189 4.42631 4.19884 4.31204 4.31311C4.19776 4.42739 4.13081 4.58058 4.12457 4.74207C4.11834 4.90357 4.17327 5.06146 4.27839 5.18422L6.09431 7.00013L4.27839 8.81605C4.15888 8.93627 4.0918 9.09891 4.0918 9.26842C4.0918 9.43794 4.15888 9.60058 4.27839 9.7208C4.39861 9.84031 4.56124 9.90739 4.73076 9.90739C4.90028 9.90739 5.06291 9.84031 5.18314 9.7208L6.99906 7.90488L8.81497 9.7208C8.9352 9.84031 9.09783 9.90739 9.26735 9.90739C9.43687 9.90739 9.5995 9.84031 9.71972 9.7208C9.83923 9.60058 9.90631 9.43794 9.90631 9.26842C9.90631 9.09891 9.83923 8.93627 9.71972 8.81605L7.90381 7.00013Z" fill="#1951FD"/>
</svg>
