<svg width="38" height="39" viewBox="0 0 38 39" fill="none" xmlns="http://www.w3.org/2000/svg">
<rect y="0.5" width="38" height="38" rx="6" fill="#404040" fill-opacity="0.2"/>
<path opacity="0.3" d="M23.3538 8.75H14.6463C11.1137 8.75 8.25 11.6123 8.25 15.1431V23.8569C8.25 27.3877 11.1137 30.25 14.6463 30.25H23.3538C26.8863 30.25 29.75 27.3877 29.75 23.8569V15.1431C29.75 11.6123 26.8863 8.75 23.3538 8.75Z" fill="#404040"/>
<path d="M13.6248 18.2378C13.4272 18.2352 13.2368 18.1629 13.0873 18.0336L11.6468 16.7335C11.4827 16.5852 11.3829 16.3786 11.3689 16.1579C11.3548 15.9371 11.4275 15.7196 11.5716 15.5516C11.6408 15.4678 11.7263 15.3988 11.8229 15.3489C11.9195 15.299 12.0252 15.2691 12.1337 15.261C12.2422 15.253 12.3511 15.267 12.4541 15.3022C12.557 15.3373 12.6517 15.3929 12.7326 15.4657L13.4743 16.1211L14.7858 13.9722C14.8419 13.8786 14.9163 13.7973 15.0044 13.7329C15.0925 13.6686 15.1926 13.6225 15.2988 13.5975C15.4051 13.5725 15.5152 13.5689 15.6228 13.5871C15.7304 13.6054 15.8333 13.6449 15.9253 13.7035C16.1075 13.8282 16.2355 14.0174 16.2834 14.2329C16.3313 14.4483 16.2955 14.6739 16.1833 14.864L14.3558 17.808C14.2954 17.9128 14.2116 18.0023 14.1109 18.0694C14.0102 18.1365 13.8954 18.1794 13.7753 18.1948L13.6248 18.2378ZM26.2238 16.5509C26.227 16.3386 26.1484 16.1332 26.0044 15.9772C25.8603 15.8212 25.6618 15.7265 25.4498 15.7128H18.9998C18.8151 15.7554 18.6503 15.8594 18.5322 16.0077C18.4142 16.156 18.35 16.3399 18.35 16.5294C18.35 16.7189 18.4142 16.9028 18.5322 17.0511C18.6503 17.1994 18.8151 17.3033 18.9998 17.346H25.4498C25.6544 17.3328 25.8469 17.2442 25.9899 17.0973C26.1329 16.9504 26.2162 16.7557 26.2238 16.5509ZM13.7431 24.0721C13.8538 24.0679 13.9626 24.041 14.0624 23.9929C14.1623 23.9448 14.2512 23.8767 14.3236 23.7927L16.1511 20.838C16.2659 20.6486 16.3032 20.4222 16.2551 20.206C16.207 19.9898 16.0773 19.8005 15.8931 19.6775C15.801 19.619 15.6982 19.5794 15.5906 19.5612C15.483 19.5429 15.3728 19.5465 15.2666 19.5715C15.1604 19.5965 15.0603 19.6426 14.9721 19.7069C14.884 19.7713 14.8097 19.8526 14.7536 19.9462L13.4421 22.0951L12.7003 21.4397C12.6195 21.367 12.5247 21.3113 12.4218 21.2762C12.3189 21.241 12.2099 21.227 12.1015 21.2351C11.993 21.2431 11.8873 21.273 11.7907 21.3229C11.6941 21.3728 11.6085 21.4418 11.5393 21.5256C11.3978 21.6947 11.3268 21.9116 11.3408 22.1316C11.3548 22.3516 11.4528 22.5577 11.6146 22.7075L13.0873 23.9324C13.2368 24.0617 13.4272 24.134 13.6248 24.1366L13.7431 24.0721ZM26.2561 22.3959C26.2376 22.1935 26.1452 22.0049 25.9965 21.8661C25.8478 21.7274 25.6532 21.6483 25.4498 21.6438H18.9998C18.7774 21.6438 18.5641 21.7321 18.4069 21.8893C18.2496 22.0465 18.1613 22.2596 18.1613 22.4819C18.1613 22.7042 18.2496 22.9173 18.4069 23.0745C18.5641 23.2317 18.7774 23.32 18.9998 23.32H25.4498C25.5604 23.3173 25.6693 23.2924 25.7701 23.2469C25.871 23.2014 25.9616 23.1361 26.0368 23.055C26.112 22.9739 26.1701 22.8785 26.2078 22.7745C26.2454 22.6705 26.2618 22.5601 26.2561 22.4497V22.3959Z" fill="#404040"/>
</svg>
