<svg width="24" height="25" viewBox="0 0 24 25" fill="none" xmlns="http://www.w3.org/2000/svg">
<path opacity="0.3" d="M16.3538 1.34229H7.64625C4.1137 1.34229 1.25 4.20455 1.25 7.73534V16.4492C1.25 19.98 4.1137 22.8423 7.64625 22.8423H16.3538C19.8863 22.8423 22.75 19.98 22.75 16.4492V7.73534C22.75 4.20455 19.8863 1.34229 16.3538 1.34229Z" fill="#0311D0"/>
<path d="M6.62462 10.8301C6.42698 10.8275 6.23661 10.7551 6.08712 10.6259L4.64662 9.32581C4.48247 9.17744 4.38275 8.97089 4.3687 8.75014C4.35464 8.52938 4.42736 8.31186 4.57137 8.1439C4.64062 8.06007 4.72612 7.99112 4.82273 7.94118C4.91934 7.89125 5.02505 7.86136 5.13352 7.85333C5.24198 7.8453 5.35095 7.85929 5.45387 7.89445C5.55678 7.92962 5.65152 7.98523 5.73237 8.05794L6.47412 8.71336L7.78562 6.56444C7.84176 6.47091 7.91609 6.38956 8.0042 6.32522C8.09232 6.26087 8.19244 6.21481 8.29865 6.18977C8.40487 6.16474 8.51502 6.16122 8.62262 6.17943C8.73022 6.19765 8.83308 6.23722 8.92512 6.29582C9.10731 6.4205 9.23531 6.60971 9.28321 6.82515C9.33111 7.04059 9.29533 7.26617 9.18312 7.45624L7.35562 10.4003C7.29525 10.5051 7.21144 10.5946 7.11074 10.6617C7.01004 10.7288 6.89517 10.7717 6.77512 10.7871L6.62462 10.8301ZM19.2236 9.14315C19.2268 8.93088 19.1483 8.72549 19.0042 8.5695C18.8601 8.4135 18.6616 8.31883 18.4496 8.30507H11.9996C11.8149 8.3477 11.6501 8.45165 11.532 8.59996C11.414 8.74826 11.3498 8.93216 11.3498 9.12166C11.3498 9.31115 11.414 9.49506 11.532 9.64336C11.6501 9.79166 11.8149 9.89561 11.9996 9.93825H18.4496C18.6542 9.92508 18.8467 9.83647 18.9897 9.68957C19.1327 9.54268 19.2161 9.34796 19.2236 9.14315ZM6.74287 16.6644C6.85364 16.6602 6.96237 16.6332 7.06225 16.5852C7.16213 16.5371 7.25102 16.469 7.32337 16.385L9.15087 13.4303C9.26571 13.2409 9.30298 13.0145 9.25491 12.7983C9.20684 12.5821 9.07715 12.3928 8.89287 12.2698C8.80082 12.2112 8.69797 12.1717 8.59037 12.1534C8.48278 12.1352 8.37262 12.1387 8.2664 12.1638C8.16019 12.1888 8.06007 12.2349 7.97195 12.2992C7.88384 12.3636 7.80951 12.4449 7.75337 12.5385L6.44187 14.6874L5.70012 14.032C5.61927 13.9592 5.52453 13.9036 5.42162 13.8685C5.3187 13.8333 5.20973 13.8193 5.10127 13.8273C4.9928 13.8354 4.88709 13.8653 4.79048 13.9152C4.69387 13.9651 4.60837 14.0341 4.53912 14.1179C4.39767 14.287 4.3266 14.5039 4.3406 14.7239C4.35461 14.9438 4.45261 15.15 4.61437 15.2998L6.08712 16.5247C6.23661 16.6539 6.42698 16.7263 6.62462 16.7289L6.74287 16.6644ZM19.2559 14.9882C19.2374 14.7857 19.145 14.5971 18.9963 14.4584C18.8476 14.3197 18.653 14.2405 18.4496 14.2361H11.9996C11.7772 14.2361 11.564 14.3244 11.4067 14.4816C11.2495 14.6387 11.1611 14.8519 11.1611 15.0742C11.1611 15.2965 11.2495 15.5096 11.4067 15.6668C11.564 15.824 11.7772 15.9123 11.9996 15.9123H18.4496C18.5602 15.9095 18.6691 15.8847 18.77 15.8392C18.8708 15.7937 18.9615 15.7284 19.0366 15.6473C19.1118 15.5661 19.1699 15.4708 19.2076 15.3668C19.2452 15.2628 19.2616 15.1524 19.2559 15.0419V14.9882Z" fill="#0311D0"/>
</svg>
