<svg width="14" height="14" viewBox="0 0 14 14" fill="none" xmlns="http://www.w3.org/2000/svg">
<g clip-path="url(#clip0_981_3253)">
<path opacity="0.3" d="M12.8865 4.71715L11.5389 6.07109L7.92833 2.46058L9.28228 1.1129C9.39922 0.991567 9.53943 0.895058 9.69452 0.82914C9.84961 0.763222 10.0164 0.729248 10.1849 0.729248C10.3534 0.729248 10.5202 0.763222 10.6753 0.82914C10.8304 0.895058 10.9706 0.991567 11.0875 1.1129L12.8865 2.91189C13.0079 3.02884 13.1044 3.16904 13.1703 3.32413C13.2362 3.47922 13.2702 3.646 13.2702 3.81452C13.2702 3.98304 13.2362 4.14982 13.1703 4.30491C13.1044 4.46 13.0079 4.6002 12.8865 4.71715ZM1.78544 13.2295L5.67176 11.9382L2.06124 8.32767L0.769976 12.214C0.722649 12.3554 0.715688 12.5073 0.749875 12.6525C0.784062 12.7977 0.858044 12.9304 0.963515 13.0359C1.06899 13.1414 1.20177 13.2154 1.34696 13.2496C1.49214 13.2837 1.64399 13.2768 1.78544 13.2295Z" fill="#404040" fill-opacity="0.7"/>
<path d="M2.96387 12.8347L1.78544 13.2296C1.64399 13.2769 1.49214 13.2839 1.34696 13.2497C1.20177 13.2155 1.06899 13.1415 0.963515 13.036C0.858044 12.9306 0.784062 12.7978 0.749875 12.6526C0.715688 12.5074 0.722649 12.3556 0.769976 12.2141L1.16488 11.0357L2.96387 12.8347ZM2.06124 8.32779L5.67176 11.9383L11.5389 6.07121L7.92833 2.46069L2.06124 8.32779Z" fill="#404040" fill-opacity="0.7"/>
</g>
<defs>
<clipPath id="clip0_981_3253">
<rect width="14" height="14" fill="white"/>
</clipPath>
</defs>
</svg>
