<svg width="21" height="20" viewBox="0 0 21 20" fill="none" xmlns="http://www.w3.org/2000/svg">
<path opacity="0.3" d="M2.16713 8.97551V14.1718C2.16223 14.826 2.28877 15.4747 2.53946 16.0805C2.79016 16.6863 3.16004 17.2373 3.62781 17.7016C4.09557 18.1659 4.65196 18.5344 5.26492 18.7859C5.87788 19.0374 6.53528 19.1668 7.19924 19.1668H14.2182C14.879 19.1668 15.5334 19.0385 16.1439 18.7894C16.7544 18.5402 17.3092 18.1749 17.7765 17.7145C18.2437 17.2541 18.6144 16.7075 18.8673 16.1059C19.1202 15.5043 19.2503 14.8595 19.2503 14.2084V8.97551C19.2503 8.77655 19.1701 8.58574 19.0273 8.44506C18.8846 8.30438 18.6909 8.22534 18.489 8.22534H2.92845C2.72653 8.22534 2.53289 8.30438 2.39011 8.44506C2.24734 8.58574 2.16713 8.77655 2.16713 8.97551Z" fill="#404040"/>
<path fill-rule="evenodd" clip-rule="evenodd" d="M18.9688 6.30416C18.9839 6.18346 18.969 6.06095 18.9253 5.94719C18.6671 5.23427 18.2468 4.58906 17.6964 4.06101C17.146 3.53295 16.4802 3.13607 15.7501 2.90078V1.50108C15.7501 1.33367 15.6826 1.17311 15.5624 1.05473C15.4423 0.93635 15.2793 0.869845 15.1094 0.869845C14.9467 0.869689 14.7902 0.93145 14.6726 1.04224C14.555 1.15304 14.4853 1.3043 14.4781 1.46449V2.63548H14.181H11.4885V1.46449C11.4885 1.29707 11.4211 1.13652 11.3009 1.01814C11.1808 0.899757 11.0178 0.833252 10.8479 0.833252C10.678 0.833252 10.5151 0.899757 10.3949 1.01814C10.2748 1.13652 10.2073 1.29707 10.2073 1.46449V2.69952H7.17133H6.87423V1.50108C6.87423 1.33367 6.80673 1.17311 6.68659 1.05473C6.56645 0.93635 6.40351 0.869845 6.23361 0.869845C6.07088 0.869689 5.91438 0.93145 5.79675 1.04224C5.67912 1.15304 5.60945 1.3043 5.60227 1.46449V2.90078C4.91125 3.12305 4.27718 3.48994 3.74353 3.97629C3.20989 4.46264 2.78929 5.05696 2.51059 5.71848C2.45691 5.85543 2.43747 6.0031 2.45391 6.14901C2.47035 6.29493 2.52219 6.4348 2.60505 6.55681C2.6879 6.67882 2.79934 6.7794 2.92995 6.85004C3.06056 6.92068 3.20651 6.9593 3.35546 6.96266H18.2104C18.3338 6.9631 18.4555 6.93397 18.565 6.87778C18.6744 6.82158 18.7684 6.74 18.8387 6.64008C18.9091 6.54015 18.9537 6.42487 18.9688 6.30416ZM8.47142 11.6739C8.47142 12.1034 8.11394 12.4515 7.67297 12.4515C7.23199 12.4515 6.87451 12.1034 6.87451 11.6739C6.87451 11.2445 7.23199 10.8963 7.67297 10.8963C8.11394 10.8963 8.47142 11.2445 8.47142 11.6739ZM10.6531 12.4515C11.0941 12.4515 11.4516 12.1034 11.4516 11.6739C11.4516 11.2445 11.0941 10.8963 10.6531 10.8963C10.2121 10.8963 9.85466 11.2445 9.85466 11.6739C9.85466 12.1034 10.2121 12.4515 10.6531 12.4515ZM8.46165 14.6016C8.46165 15.031 8.10417 15.3792 7.6632 15.3792C7.22223 15.3792 6.86475 15.031 6.86475 14.6016C6.86475 14.1721 7.22223 13.824 7.6632 13.824C8.10417 13.824 8.46165 14.1721 8.46165 14.6016Z" fill="#404040"/>
</svg>
