<svg width="21" height="20" viewBox="0 0 21 20" fill="none" xmlns="http://www.w3.org/2000/svg">
<path opacity="0.3" d="M2.16615 8.97551V14.1718C2.16125 14.826 2.2878 15.4747 2.53849 16.0805C2.78918 16.6863 3.15907 17.2373 3.62683 17.7016C4.09459 18.1659 4.65099 18.5344 5.26394 18.7859C5.8769 19.0374 6.53431 19.1668 7.19827 19.1668H14.2172C14.8781 19.1668 15.5324 19.0385 16.1429 18.7894C16.7535 18.5402 17.3082 18.1749 17.7755 17.7145C18.2428 17.2541 18.6134 16.7075 18.8663 16.1059C19.1192 15.5043 19.2493 14.8595 19.2493 14.2084V8.97551C19.2493 8.77655 19.1691 8.58574 19.0264 8.44506C18.8836 8.30438 18.6899 8.22534 18.488 8.22534H2.92747C2.72556 8.22534 2.53191 8.30438 2.38914 8.44506C2.24636 8.58574 2.16615 8.77655 2.16615 8.97551Z" fill="white"/>
<path fill-rule="evenodd" clip-rule="evenodd" d="M18.9678 6.30416C18.9829 6.18346 18.968 6.06095 18.9243 5.94719C18.6662 5.23427 18.2458 4.58906 17.6954 4.06101C17.145 3.53295 16.4792 3.13607 15.7491 2.90078V1.50108C15.7491 1.33367 15.6816 1.17311 15.5615 1.05473C15.4413 0.93635 15.2784 0.869845 15.1085 0.869845C14.9457 0.869689 14.7892 0.93145 14.6716 1.04224C14.554 1.15304 14.4843 1.3043 14.4771 1.46449V2.63548H14.18H11.4876V1.46449C11.4876 1.29707 11.4201 1.13652 11.2999 1.01814C11.1798 0.899757 11.0169 0.833252 10.847 0.833252C10.677 0.833252 10.5141 0.899757 10.394 1.01814C10.2738 1.13652 10.2063 1.29707 10.2063 1.46449V2.69952H7.17035H6.87325V1.50108C6.87325 1.33367 6.80576 1.17311 6.68562 1.05473C6.56548 0.93635 6.40253 0.869845 6.23263 0.869845C6.06991 0.869689 5.9134 0.93145 5.79578 1.04224C5.67815 1.15304 5.60847 1.3043 5.6013 1.46449V2.90078C4.91027 3.12305 4.2762 3.48994 3.74255 3.97629C3.20891 4.46264 2.78832 5.05696 2.50961 5.71848C2.45593 5.85543 2.43649 6.0031 2.45294 6.14901C2.46938 6.29493 2.52121 6.4348 2.60407 6.55681C2.68693 6.67882 2.79837 6.7794 2.92898 6.85004C3.05959 6.92068 3.20553 6.9593 3.35448 6.96266H18.2094C18.3329 6.9631 18.4545 6.93397 18.564 6.87778C18.6735 6.82158 18.7674 6.74 18.8378 6.64008C18.9081 6.54015 18.9527 6.42487 18.9678 6.30416ZM8.47044 11.6739C8.47044 12.1034 8.11296 12.4515 7.67199 12.4515C7.23101 12.4515 6.87354 12.1034 6.87354 11.6739C6.87354 11.2445 7.23101 10.8963 7.67199 10.8963C8.11296 10.8963 8.47044 11.2445 8.47044 11.6739ZM10.6521 12.4515C11.0931 12.4515 11.4506 12.1034 11.4506 11.6739C11.4506 11.2445 11.0931 10.8963 10.6521 10.8963C10.2112 10.8963 9.85368 11.2445 9.85368 11.6739C9.85368 12.1034 10.2112 12.4515 10.6521 12.4515ZM8.46068 14.6016C8.46068 15.031 8.1032 15.3792 7.66222 15.3792C7.22125 15.3792 6.86377 15.031 6.86377 14.6016C6.86377 14.1721 7.22125 13.824 7.66222 13.824C8.1032 13.824 8.46068 14.1721 8.46068 14.6016Z" fill="white"/>
</svg>
