<svg width="16" height="16" viewBox="0 0 16 16" fill="none" xmlns="http://www.w3.org/2000/svg">
<path opacity="0.1" d="M13.2 7.43319C13.2 10.6548 10.5883 13.2665 7.36666 13.2665C4.145 13.2665 1.53333 10.6548 1.53333 7.43319C1.53333 4.21153 4.145 1.59985 7.36666 1.59985C10.5883 1.59985 13.2 4.21153 13.2 7.43319Z" fill="#404040"/>
<path fill-rule="evenodd" clip-rule="evenodd" d="M12.0045 11.203C12.8637 10.1649 13.38 8.83267 13.38 7.37988C13.38 4.06617 10.6937 1.37988 7.38 1.37988C4.0663 1.37988 1.38 4.06617 1.38 7.37988C1.38 10.6936 4.0663 13.3799 7.38 13.3799C8.83281 13.3799 10.165 12.8635 11.2031 12.0044L13.646 14.4472C13.8673 14.6685 14.2261 14.6685 14.4474 14.4472C14.6687 14.2259 14.6687 13.8671 14.4474 13.6458L12.0045 11.203ZM7.38 12.2679C4.68045 12.2679 2.49203 10.0794 2.49203 7.37988C2.49203 4.68033 4.68045 2.49191 7.38 2.49191C10.0796 2.49191 12.268 4.68033 12.268 7.37988C12.268 10.0794 10.0796 12.2679 7.38 12.2679Z" fill="#404040"/>
</svg>
