<svg width="24" height="25" viewBox="0 0 24 25" fill="none" xmlns="http://www.w3.org/2000/svg">
<path opacity="0.3" d="M20.9979 9.05522H19.4689C19.1964 8.37094 18.8258 7.72992 18.3689 7.15223L19.1169 5.85424C19.3845 5.3855 19.4561 4.82999 19.316 4.30872C19.1759 3.78745 18.8355 3.34267 18.3689 3.07126L16.5759 2.03727C16.3442 1.90329 16.0883 1.81635 15.8228 1.78144C15.5574 1.74652 15.2877 1.76432 15.0292 1.8338C14.7707 1.90329 14.5284 2.02309 14.3163 2.18636C14.1041 2.34963 13.9263 2.55315 13.7929 2.78526L13.0339 4.10525C12.6915 4.05366 12.3462 4.02426 12 4.01725C11.654 4.02062 11.3086 4.04634 10.966 4.09425L10.229 2.78526C9.96336 2.31571 9.52217 1.97083 9.00237 1.82644C8.48258 1.68206 7.92672 1.74997 7.45699 2.01527L5.653 3.03826C5.18344 3.30387 4.83857 3.74506 4.69418 4.26486C4.54979 4.78465 4.61771 5.34051 4.883 5.81024L5.631 7.14123C5.18057 7.71533 4.8105 8.34816 4.53101 9.02222H3.04602C2.77798 9.01782 2.51176 9.067 2.26298 9.16689C2.0142 9.26677 1.78789 9.41533 1.5973 9.60386C1.40672 9.7924 1.25572 10.0171 1.15315 10.2648C1.05059 10.5125 0.998531 10.7781 1.00003 11.0462V13.1142C0.998583 13.3814 1.04979 13.6463 1.15072 13.8938C1.25165 14.1412 1.40033 14.3664 1.58828 14.5564C1.77622 14.7464 1.99975 14.8975 2.24609 15.0011C2.49244 15.1047 2.75678 15.1587 3.02402 15.1602H4.53101C4.80665 15.8361 5.17702 16.4695 5.631 17.0412L4.872 18.3392C4.73828 18.5701 4.65154 18.8251 4.61677 19.0897C4.582 19.3543 4.59989 19.6231 4.66941 19.8807C4.73893 20.1384 4.8587 20.3797 5.02184 20.5909C5.18498 20.802 5.38827 20.9788 5.62 21.1111L7.41299 22.1561C7.64474 22.2901 7.90066 22.377 8.16606 22.412C8.43147 22.4469 8.70116 22.4291 8.95969 22.3596C9.21821 22.2901 9.46048 22.1703 9.67262 22.007C9.88476 21.8438 10.0626 21.6402 10.196 21.4081L10.955 20.0881C11.3007 20.1415 11.6501 20.1672 12 20.1651C12.3679 20.1622 12.7352 20.1365 13.0999 20.0881L13.8479 21.3861C13.9802 21.6179 14.1571 21.8211 14.3682 21.9843C14.5794 22.1474 14.8207 22.2672 15.0783 22.3367C15.336 22.4062 15.6048 22.4241 15.8694 22.3894C16.1339 22.3546 16.389 22.2678 16.6199 22.1341L18.4129 21.1001C18.6456 20.9688 18.8499 20.7926 19.0141 20.5819C19.1784 20.3711 19.2993 20.1299 19.3698 19.8722C19.4404 19.6145 19.4592 19.3454 19.4253 19.0804C19.3913 18.8154 19.3052 18.5597 19.1719 18.3282L18.4129 17.0082C18.854 16.4475 19.2235 15.8341 19.5129 15.1822H20.9979C21.5226 15.1684 22.0222 14.9546 22.3944 14.5844C22.7666 14.2143 22.9832 13.7158 22.9999 13.1912V11.1122C23.0058 10.5744 22.7985 10.0561 22.4233 9.67061C22.0482 9.28516 21.5357 9.06391 20.9979 9.05522Z" fill="#0311D0"/>
<path d="M11.989 15.6658C13.9634 15.6658 15.564 14.0652 15.564 12.0908C15.564 10.1164 13.9634 8.51587 11.989 8.51587C10.0146 8.51587 8.41406 10.1164 8.41406 12.0908C8.41406 14.0652 10.0146 15.6658 11.989 15.6658Z" fill="#0311D0"/>
</svg>
