<svg width="24" height="24" viewBox="0 0 24 24" fill="none" xmlns="http://www.w3.org/2000/svg">
<path opacity="0.3" d="M20.9979 8.96293H19.4689C19.1964 8.27866 18.8258 7.63763 18.3689 7.05995L19.1169 5.76196C19.3845 5.29321 19.4561 4.7377 19.316 4.21644C19.1759 3.69517 18.8355 3.25039 18.3689 2.97898L16.5759 1.94498C16.3442 1.811 16.0883 1.72407 15.8228 1.68915C15.5574 1.65424 15.2877 1.67203 15.0292 1.74152C14.7707 1.811 14.5284 1.93081 14.3163 2.09408C14.1041 2.25734 13.9263 2.46086 13.7929 2.69298L13.0339 4.01297C12.6915 3.96137 12.3462 3.93198 12 3.92497C11.654 3.92833 11.3086 3.95405 10.966 4.00197L10.229 2.69298C9.96336 2.22342 9.52217 1.87854 9.00237 1.73416C8.48258 1.58977 7.92672 1.65769 7.45699 1.92298L5.653 2.94598C5.18344 3.21159 4.83857 3.65278 4.69418 4.17257C4.54979 4.69236 4.61771 5.24822 4.883 5.71796L5.631 7.04895C5.18057 7.62305 4.8105 8.25587 4.53101 8.92993H3.04602C2.77798 8.92553 2.51176 8.97472 2.26298 9.0746C2.0142 9.17448 1.78789 9.32305 1.5973 9.51158C1.40672 9.70011 1.25572 9.92481 1.15315 10.1725C1.05059 10.4202 0.998531 10.6858 1.00003 10.9539V13.0219C0.998583 13.2891 1.04979 13.5541 1.15072 13.8015C1.25165 14.049 1.40033 14.2741 1.58828 14.4641C1.77622 14.6541 1.99975 14.8052 2.24609 14.9088C2.49244 15.0124 2.75678 15.0665 3.02402 15.0679H4.53101C4.80665 15.7439 5.17702 16.3772 5.631 16.9489L4.872 18.2469C4.73828 18.4778 4.65154 18.7329 4.61677 18.9974C4.582 19.262 4.59989 19.5308 4.66941 19.7884C4.73893 20.0461 4.8587 20.2874 5.02184 20.4986C5.18498 20.7097 5.38827 20.8865 5.62 21.0188L7.41299 22.0638C7.64474 22.1978 7.90066 22.2848 8.16606 22.3197C8.43147 22.3546 8.70116 22.3368 8.95969 22.2673C9.21821 22.1978 9.46048 22.078 9.67262 21.9147C9.88476 21.7515 10.0626 21.548 10.196 21.3158L10.955 19.9959C11.3007 20.0492 11.6501 20.0749 12 20.0729C12.3679 20.07 12.7352 20.0442 13.0999 19.9959L13.8479 21.2938C13.9802 21.5256 14.1571 21.7289 14.3682 21.892C14.5794 22.0551 14.8207 22.1749 15.0783 22.2444C15.336 22.314 15.6048 22.3318 15.8694 22.2971C16.1339 22.2623 16.389 22.1756 16.6199 22.0418L18.4129 21.0078C18.6456 20.8765 18.8499 20.7003 19.0141 20.4896C19.1784 20.2788 19.2993 20.0377 19.3698 19.78C19.4404 19.5223 19.4592 19.2531 19.4253 18.9881C19.3913 18.7231 19.3052 18.4674 19.1719 18.2359L18.4129 16.9159C18.854 16.3552 19.2235 15.7419 19.5129 15.0899H20.9979C21.5226 15.0761 22.0222 14.8623 22.3944 14.4921C22.7666 14.122 22.9832 13.6236 22.9999 13.0989V11.0199C23.0058 10.4821 22.7985 9.96378 22.4233 9.57833C22.0482 9.19288 21.5357 8.97162 20.9979 8.96293Z" fill="#404040"/>
<path d="M11.989 15.5735C13.9634 15.5735 15.564 13.973 15.564 11.9986C15.564 10.0242 13.9634 8.42358 11.989 8.42358C10.0146 8.42358 8.41406 10.0242 8.41406 11.9986C8.41406 13.973 10.0146 15.5735 11.989 15.5735Z" fill="#404040"/>
</svg>
