<svg width="24" height="20" viewBox="0 0 24 20" fill="none" xmlns="http://www.w3.org/2000/svg">
<path d="M11.9997 13.2062C13.7705 13.2062 15.206 11.7707 15.206 9.99995C15.206 8.22919 13.7705 6.7937 11.9997 6.7937C10.2289 6.7937 8.79346 8.22919 8.79346 9.99995C8.79346 11.7707 10.2289 13.2062 11.9997 13.2062Z" fill="#0311D0"/>
<path opacity="0.3" d="M12 0.370117C6.67875 0.370117 0.75 5.56762 0.75 10.0001C0.75 14.2301 6.67875 19.6301 12 19.6301C17.625 19.6301 23.25 14.4664 23.25 10.0001C23.25 5.70262 17.3213 0.370117 12 0.370117ZM12 14.8939C11.0321 14.8939 10.086 14.6069 9.28118 14.0691C8.4764 13.5314 7.84916 12.7671 7.47876 11.8729C7.10837 10.9787 7.01146 9.99469 7.20028 9.04539C7.38911 8.0961 7.85519 7.22412 8.5396 6.53971C9.224 5.85531 10.096 5.38923 11.0453 5.2004C11.9946 5.01157 12.9785 5.10849 13.8728 5.47888C14.767 5.84928 15.5313 6.47652 16.069 7.28129C16.6067 8.08607 16.8938 9.03222 16.8938 10.0001C16.8938 11.298 16.3782 12.5428 15.4604 13.4605C14.5426 14.3783 13.2979 14.8939 12 14.8939Z" fill="#0311D0"/>
</svg>
