<svg width="172" height="33" viewBox="0 0 172 33" fill="none" xmlns="http://www.w3.org/2000/svg">
<rect x="0.953857" width="32.0922" height="32.0922" rx="3.20922" fill="#26E8BE" fill-opacity="0.14"/>
<path d="M15.9022 5.77637H16.949L17.6904 5.9944L18.3011 6.34325L18.8244 6.82293L19.3478 7.3462L19.6531 7.69506L20.3946 8.43637L20.6999 8.78522L21.2233 9.3085L21.5286 9.65735L22.3137 10.4423L22.619 10.7911L23.1424 11.3144L23.4477 11.6633L24.0583 12.2738V12.361H24.1456V12.4482H24.2328L24.5381 12.797L25.0615 13.3203L25.3668 13.6692L26.1519 14.4541L26.5445 14.9338L26.8498 15.457L27.0242 15.9803L27.0678 16.2856V25.1377L26.937 25.3993L26.7189 25.661L26.4572 25.7918L26.2828 25.8354H25.9338L25.5413 25.661L25.236 25.3121L25.1924 25.1377L25.1487 16.5036L25.0179 16.1111L24.5381 15.5879L24.2328 15.2826L23.9275 14.9338L23.4477 14.4541L23.1424 14.1052L22.4009 13.3639L22.0956 13.0151L21.6159 12.5354L21.3106 12.1865L20.3946 11.2708L20.0893 10.9219L19.6968 10.5295L19.3915 10.1806L18.6064 9.39572L18.3011 9.04686L17.9085 8.6544L17.6032 8.30555L17.167 7.91309L16.8181 7.73866L16.6437 7.69506H16.2511L15.815 7.86948L15.3788 8.26194L14.7246 8.95965L14.4192 9.3085L14.0267 9.70096L13.7214 10.0498L13.2416 10.5731L13.0235 10.8347H12.9363L12.8491 11.0092L12.5438 11.3144L12.5002 11.4016H12.4129L12.3257 11.576L11.8459 12.0557L11.8023 12.1429H11.7151L11.6278 12.3174L11.0172 12.9715L10.7555 13.2767H10.6683L10.5811 13.4511L10.2757 13.7564L9.97043 14.1052L9.66512 14.4105L9.35981 14.7593L8.83642 15.3262L8.40026 15.7623L8.13857 16.1547L8.05134 16.3292L8.00772 16.678V23.4806L8.13857 23.8731L8.35665 24.1784L8.66196 24.3528L8.83642 24.3964H11.0608L11.4098 24.222L16.3383 19.2944L16.4692 19.12L12.631 19.0764L12.1948 18.9456L11.8895 18.5967L11.7587 18.2915V17.9426L11.9331 17.5501L12.1512 17.3321L12.5874 17.1577H16.6873L17.6468 17.2013L18.2574 17.3757L18.7372 17.6374L19.1734 17.9862L19.5223 18.3787L19.784 18.8147L20.0021 19.3816L20.0893 19.9921V24.9633L19.9585 25.3121L19.6968 25.6174L19.4351 25.7482L19.0861 25.7918L18.65 25.661L18.3883 25.4429L18.2138 25.1377L18.1702 24.8761L18.1266 20.2102L17.7777 20.5154L17.6032 20.7334L15.8586 22.4777L15.815 22.5649H15.7277L15.6405 22.7393L12.6746 25.7046L12.1948 26.0098L11.6715 26.2279L11.3225 26.3151L10.7991 26.3587H8.88004L8.26942 26.2715L7.74602 26.0534L7.22263 25.7482L6.69924 25.2249L6.35032 24.658L6.13224 24.0475L6.08862 23.8731V16.1547L6.35032 15.3698L6.74286 14.7593L7.22263 14.236L7.52795 13.8872L8.05134 13.3639L8.35665 13.0151L8.96727 12.361L9.44704 11.8377L9.75235 11.4888L10.2757 10.9656L10.5811 10.6167L11.1917 9.9626L11.7151 9.39572L12.0204 9.04686L12.5438 8.52358L12.8491 8.17473L13.4597 7.52063L13.8959 7.04096L14.2012 6.69211L14.8118 6.21243L15.466 5.90719L15.9022 5.77637Z" fill="#26E8BE"/>
<path d="M39.5826 24.5459V7.88748H46.0947C47.4281 7.88748 48.5419 8.05821 49.4362 8.39967C50.3467 8.74113 51.0215 9.31023 51.4606 10.107C51.9158 10.9037 52.1435 11.985 52.1435 13.3509C52.1435 14.5541 51.924 15.5704 51.485 16.3996C51.0622 17.2126 50.4118 17.8142 49.5337 18.2045L52.1435 24.5459H48.6069L46.4118 18.9606H42.9484V24.5459H39.5826ZM42.9484 16.2045H46.1679C46.7858 16.2045 47.2817 16.0907 47.6557 15.863C48.0297 15.6191 48.298 15.2858 48.4606 14.863C48.6232 14.424 48.7045 13.9281 48.7045 13.3752C48.7045 12.4647 48.4931 11.7818 48.0703 11.3265C47.6476 10.8712 46.989 10.6436 46.0947 10.6436H42.9484V16.2045ZM55.0998 24.5459V7.88748H66.1729V10.6923H58.4657V14.7411H64.7095V17.4972H58.4657V21.741H66.1729V24.5459H55.0998ZM69.0212 24.5459V7.88748H79.7772V10.7167H72.3871V15.7411H78.4358V18.5703H72.3871V24.5459H69.0212ZM79.7218 24.5459L83.9657 7.88748H89.8437L94.0632 24.5459H90.6973L89.7705 21.1801H83.9413L83.0632 24.5459H79.7218ZM84.4779 18.4728H89.2827L87.4047 10.6192H86.3803L84.4779 18.4728ZM101.162 24.5459L105.674 7.74114H110.333L114.845 24.5459H112.479L111.381 20.5215H104.601L103.503 24.5459H101.162ZM105.064 18.5216H110.942L108.601 9.69234H107.406L105.064 18.5216ZM121.205 24.7898C120.7 24.7898 120.221 24.7329 119.766 24.6191C119.31 24.5052 118.896 24.3183 118.522 24.0581C118.164 23.7817 117.847 23.4077 117.57 22.9362C117.31 22.4646 117.107 21.8711 116.961 21.1557C116.831 20.424 116.766 19.5459 116.766 18.5216C116.766 17.0907 116.936 15.9037 117.278 14.9606C117.619 14.0013 118.164 13.2858 118.912 12.8143C119.66 12.3265 120.66 12.0826 121.912 12.0826C122.205 12.0826 122.53 12.0988 122.887 12.1314C123.245 12.1639 123.595 12.2045 123.936 12.2533C124.278 12.3021 124.546 12.3427 124.741 12.3753V7.13139H127.034V24.5459H124.79L124.765 23.7654C124.522 23.9118 124.196 24.0662 123.79 24.2288C123.4 24.3914 122.977 24.5215 122.522 24.6191C122.066 24.7329 121.627 24.7898 121.205 24.7898ZM121.619 22.8142C122.009 22.8142 122.4 22.7736 122.79 22.6923C123.18 22.5947 123.546 22.4809 123.887 22.3508C124.245 22.2207 124.53 22.1069 124.741 22.0093V14.2777C124.562 14.2452 124.31 14.2126 123.985 14.1801C123.676 14.1476 123.351 14.1151 123.009 14.0826C122.684 14.05 122.383 14.0338 122.107 14.0338C121.343 14.0338 120.741 14.2045 120.302 14.546C119.863 14.8874 119.546 15.3915 119.351 16.0582C119.172 16.7248 119.083 17.5459 119.083 18.5216C119.083 19.4321 119.148 20.1638 119.278 20.7167C119.408 21.2695 119.587 21.7004 119.814 22.0093C120.058 22.3183 120.335 22.5297 120.644 22.6435C120.953 22.7573 121.278 22.8142 121.619 22.8142ZM130.794 24.5459V12.3265H133.062V13.1801C133.323 13.0175 133.64 12.8549 134.014 12.6923C134.404 12.5297 134.819 12.3915 135.258 12.2777C135.697 12.1476 136.119 12.0826 136.526 12.0826C137.323 12.0826 137.965 12.1801 138.453 12.3753C138.941 12.5704 139.339 12.8874 139.648 13.3265C139.957 13.1476 140.339 12.9606 140.794 12.7655C141.266 12.5704 141.77 12.4078 142.306 12.2777C142.843 12.1476 143.371 12.0826 143.892 12.0826C144.737 12.0826 145.428 12.1964 145.965 12.424C146.518 12.6354 146.949 12.985 147.258 13.4728C147.566 13.9443 147.778 14.5622 147.892 15.3265C148.022 16.0744 148.087 17.0012 148.087 18.1069V24.5459H145.843V18.2533C145.843 17.2451 145.786 16.4403 145.672 15.8386C145.558 15.237 145.331 14.798 144.989 14.5216C144.664 14.2452 144.16 14.1069 143.477 14.1069C143.087 14.1069 142.688 14.1476 142.282 14.2289C141.892 14.3102 141.526 14.4159 141.184 14.546C140.843 14.676 140.567 14.798 140.355 14.9118C140.469 15.3021 140.542 15.8061 140.575 16.424C140.623 17.0256 140.648 17.6435 140.648 18.2776V24.5459H138.38V18.3264C138.38 17.2858 138.323 16.4647 138.209 15.863C138.111 15.2452 137.892 14.798 137.55 14.5216C137.209 14.2452 136.705 14.1069 136.038 14.1069C135.664 14.1069 135.282 14.1476 134.892 14.2289C134.518 14.3102 134.168 14.4159 133.843 14.546C133.534 14.676 133.274 14.798 133.062 14.9118V24.5459H130.794ZM151.742 24.5459V12.3265H154.01V24.5459H151.742ZM151.742 9.86307V7.49724H154.01V9.86307H151.742ZM157.756 24.5459V12.3265H160.024V13.1801C160.284 13.0175 160.618 12.8549 161.024 12.6923C161.431 12.5297 161.861 12.3915 162.317 12.2777C162.772 12.1476 163.211 12.0826 163.634 12.0826C164.479 12.0826 165.17 12.1964 165.707 12.424C166.26 12.6354 166.691 12.985 167 13.4728C167.309 13.9443 167.528 14.5622 167.658 15.3265C167.788 16.0907 167.853 17.0175 167.853 18.1069V24.5459H165.561V18.2289C165.561 17.2207 165.504 16.4159 165.39 15.8143C165.276 15.2126 165.048 14.7817 164.707 14.5216C164.365 14.2452 163.853 14.1069 163.17 14.1069C162.796 14.1069 162.406 14.1476 162 14.2289C161.609 14.3102 161.235 14.4159 160.878 14.546C160.536 14.676 160.252 14.798 160.024 14.9118V24.5459H157.756Z" fill="#0311D0"/>
</svg>
