<svg width="24" height="25" viewBox="0 0 24 25" fill="none" xmlns="http://www.w3.org/2000/svg">
<path fill-rule="evenodd" clip-rule="evenodd" d="M16.8713 6.55307C16.8713 9.56898 14.4264 12.0139 11.4105 12.0139C8.39458 12.0139 5.94971 9.56898 5.94971 6.55307C5.94971 3.53716 8.39458 1.09229 11.4105 1.09229C14.4264 1.09229 16.8713 3.53716 16.8713 6.55307ZM15.5063 13.9091C16.2331 13.4217 17.0884 13.1615 17.9635 13.1614C19.1244 13.1613 20.2385 13.6186 21.0645 14.4343C21.8905 15.25 22.3618 16.3582 22.3763 17.519C22.3872 18.394 22.1377 19.2525 21.6596 19.9854C21.1814 20.7183 20.4961 21.2925 19.6908 21.635C18.8855 21.9774 17.9965 22.0727 17.1369 21.9087C16.2774 21.7447 15.4859 21.3289 14.8633 20.714C14.2406 20.0991 13.8148 19.313 13.64 18.4555C13.4652 17.5981 13.5493 16.708 13.8817 15.8984C14.214 15.0889 14.7795 14.3964 15.5063 13.9091ZM18.4379 19.3392L20.3023 16.9564H20.2582C20.3241 16.8716 20.3726 16.7747 20.4011 16.6712C20.4296 16.5677 20.4374 16.4595 20.4241 16.353C20.4107 16.2465 20.3766 16.1436 20.3235 16.0503C20.2704 15.9569 20.1995 15.875 20.1147 15.809C20.03 15.7431 19.9331 15.6945 19.8296 15.6661C19.726 15.6376 19.6179 15.6298 19.5114 15.6431C19.4048 15.6564 19.302 15.6906 19.2086 15.7437C19.1153 15.7968 19.0333 15.8677 18.9674 15.9525L17.7539 17.4969L17.0589 16.6144C16.9272 16.4554 16.7402 16.3523 16.5355 16.3257C16.3308 16.2991 16.1237 16.351 15.9557 16.471C15.7968 16.6026 15.6936 16.7897 15.667 16.9943C15.6404 17.199 15.6923 17.4062 15.8123 17.5741L17.1472 19.3282C17.2237 19.4281 17.3222 19.5089 17.4351 19.5644C17.548 19.6199 17.6722 19.6486 17.798 19.6481C17.9208 19.6466 18.0417 19.6182 18.1523 19.5648C18.2629 19.5114 18.3604 19.4344 18.4379 19.3392Z" fill="#404040" fill-opacity="0.7"/>
<path opacity="0.3" d="M21.1958 21.7322C20.9498 20.3564 20.3447 19.0701 19.4418 18.0034L18.4379 19.2831C18.3603 19.3783 18.2628 19.4553 18.1523 19.5087C18.0417 19.562 17.9208 19.5905 17.798 19.592C17.6722 19.5924 17.548 19.5638 17.4351 19.5083C17.3222 19.4528 17.2236 19.3719 17.1471 19.2721L15.8123 17.5731C15.7248 17.4602 15.6695 17.3258 15.652 17.1841C15.6346 17.0424 15.6556 16.8986 15.713 16.7678C15.6581 16.6402 15.6377 16.5005 15.6537 16.3626C15.6697 16.2246 15.7216 16.0933 15.8042 15.9817C15.8868 15.8701 15.9973 15.7821 16.1245 15.7264C16.2517 15.6708 16.3913 15.6495 16.5293 15.6646C14.9478 14.8456 13.1915 14.4217 11.4105 14.429C6.45722 14.418 2.33129 17.5731 1.62525 21.7322C1.60891 21.9116 1.63167 22.0925 1.69195 22.2623C1.75223 22.4321 1.8486 22.5868 1.97442 22.7157C2.10025 22.8447 2.25254 22.9449 2.4208 23.0093C2.58906 23.0738 2.76929 23.101 2.94908 23.0891H19.883C20.0619 23.0993 20.2409 23.0709 20.4078 23.0057C20.5747 22.9405 20.7256 22.8401 20.8502 22.7113C20.9748 22.5825 21.0702 22.4284 21.1298 22.2594C21.1895 22.0905 21.212 21.9106 21.1958 21.7322Z" fill="#404040" fill-opacity="0.7"/>
</svg>
