<svg width="16" height="16" viewBox="0 0 16 16" fill="none" xmlns="http://www.w3.org/2000/svg">
<path opacity="0.3" d="M8.00065 7.94198C9.96368 7.94198 11.555 6.35064 11.555 4.38762C11.555 2.4246 9.96368 0.833252 8.00065 0.833252C6.03763 0.833252 4.44629 2.4246 4.44629 4.38762C4.44629 6.35064 6.03763 7.94198 8.00065 7.94198Z" fill="#0C1892"/>
<path d="M13.519 15.1653C13.6362 15.1719 13.7534 15.1532 13.8627 15.1105C13.972 15.0678 14.0708 15.0021 14.1524 14.9177C14.2339 14.8334 14.2964 14.7325 14.3355 14.6219C14.3746 14.5113 14.3895 14.3935 14.379 14.2767C13.9203 11.5822 11.2402 9.51123 8.00118 9.51123C4.76212 9.51123 2.08201 11.5822 1.62338 14.2767C1.6129 14.3935 1.62772 14.5113 1.66682 14.6219C1.70593 14.7325 1.7684 14.8334 1.85 14.9177C1.9316 15.0021 2.0304 15.0678 2.13968 15.1105C2.24896 15.1532 2.36617 15.1719 2.48331 15.1653H13.519Z" fill="#0C1892"/>
</svg>
