<svg width="39" height="38" viewBox="0 0 39 38" fill="none" xmlns="http://www.w3.org/2000/svg">
<rect x="0.5" width="38" height="38" rx="6" fill="#FFF8DD"/>
<path fill-rule="evenodd" clip-rule="evenodd" d="M23.5593 14.3839C23.5593 16.8972 21.5219 18.9346 19.0087 18.9346C16.4954 18.9346 14.458 16.8972 14.458 14.3839C14.458 11.8706 16.4954 9.83325 19.0087 9.83325C21.5219 9.83325 23.5593 11.8706 23.5593 14.3839ZM22.4218 20.5139C23.0275 20.1078 23.7403 19.8909 24.4695 19.8908C25.4369 19.8908 26.3653 20.2719 27.0536 20.9516C27.742 21.6313 28.1347 22.5549 28.1468 23.5222C28.1559 24.2514 27.948 24.9668 27.5495 25.5775C27.1511 26.1883 26.58 26.6668 25.9089 26.9521C25.2378 27.2375 24.497 27.3169 23.7807 27.1803C23.0644 27.0436 22.4049 26.6971 21.886 26.1847C21.3671 25.6723 21.0123 25.0172 20.8666 24.3026C20.721 23.5881 20.791 22.8463 21.068 22.1717C21.3449 21.4971 21.8161 20.92 22.4218 20.5139ZM24.8648 25.0391L26.4185 23.0533H26.3817C26.4366 22.9827 26.4771 22.9019 26.5008 22.8157C26.5246 22.7294 26.5311 22.6393 26.52 22.5505C26.5089 22.4617 26.4804 22.376 26.4362 22.2982C26.3919 22.2205 26.3328 22.1521 26.2622 22.0972C26.1916 22.0423 26.1108 22.0018 26.0246 21.9781C25.9383 21.9544 25.8482 21.9479 25.7594 21.959C25.6706 21.9701 25.5849 21.9985 25.5071 22.0428C25.4293 22.087 25.361 22.1461 25.3061 22.2167L24.2948 23.5038L23.7157 22.7683C23.6059 22.6359 23.4501 22.5499 23.2795 22.5277C23.1089 22.5056 22.9363 22.5488 22.7963 22.6488C22.6639 22.7586 22.5779 22.9144 22.5558 23.085C22.5336 23.2555 22.5768 23.4282 22.6768 23.5681L23.7892 25.0299C23.853 25.1131 23.9351 25.1805 24.0292 25.2267C24.1233 25.2729 24.2268 25.2968 24.3316 25.2965C24.4339 25.2952 24.5347 25.2715 24.6268 25.227C24.719 25.1826 24.8002 25.1184 24.8648 25.0391Z" fill="#DFA000"/>
<path opacity="0.3" d="M27.1631 27.0333C26.9581 25.8868 26.4538 24.8149 25.7013 23.926L24.8648 24.9924C24.8001 25.0717 24.7189 25.1359 24.6268 25.1804C24.5346 25.2248 24.4338 25.2485 24.3315 25.2498C24.2267 25.2501 24.1232 25.2263 24.0291 25.18C23.935 25.1338 23.8529 25.0664 23.7891 24.9832L22.6768 23.5674C22.6039 23.4733 22.5578 23.3613 22.5432 23.2432C22.5287 23.1251 22.5462 23.0053 22.594 22.8963C22.5483 22.79 22.5313 22.6736 22.5447 22.5586C22.558 22.4437 22.6012 22.3342 22.6701 22.2412C22.7389 22.1482 22.8309 22.0749 22.9369 22.0285C23.043 21.9821 23.1593 21.9644 23.2743 21.977C21.9564 21.2945 20.4928 20.9412 19.0087 20.9473C14.8809 20.9382 11.4426 23.5674 10.8543 27.0333C10.8406 27.1828 10.8596 27.3335 10.9098 27.475C10.9601 27.6165 11.0404 27.7454 11.1452 27.8529C11.2501 27.9604 11.377 28.0439 11.5172 28.0976C11.6574 28.1513 11.8076 28.174 11.9574 28.164H26.0691C26.2181 28.1726 26.3673 28.1489 26.5064 28.0945C26.6455 28.0402 26.7712 27.9565 26.8751 27.8492C26.9789 27.7419 27.0584 27.6135 27.1081 27.4727C27.1578 27.3319 27.1765 27.182 27.1631 27.0333Z" fill="#DFA000"/>
</svg>
