<svg width="12" height="12" viewBox="0 0 12 12" fill="none" xmlns="http://www.w3.org/2000/svg">
<g clip-path="url(#clip0_27_294)">
<path opacity="0.3" d="M8.15056 1.16895H3.84528C2.10267 1.16895 0.690002 2.58161 0.690002 4.32422V8.59482C0.690002 10.3374 2.10267 11.7501 3.84528 11.7501H8.15056C9.89317 11.7501 11.3058 10.3374 11.3058 8.59482V4.32422C11.3058 2.58161 9.89317 1.16895 8.15056 1.16895Z" fill="#0C1892"/>
<path fill-rule="evenodd" clip-rule="evenodd" d="M3.88563 2.17437C3.77068 2.17437 3.66044 2.12871 3.57915 2.04743C3.49787 1.96615 3.45221 1.8559 3.45221 1.74095V0.683417C3.45221 0.568468 3.49787 0.458226 3.57915 0.376945C3.66044 0.295664 3.77068 0.25 3.88563 0.25C4.00058 0.25 4.11082 0.295664 4.1921 0.376945C4.27338 0.458226 4.31904 0.568468 4.31904 0.683417V1.74095C4.31904 1.8559 4.27338 1.96615 4.1921 2.04743C4.11082 2.12871 4.00058 2.17437 3.88563 2.17437ZM9.06054 4.95545C9.08256 5.01011 9.0935 5.06859 9.09274 5.12751C9.0935 5.18643 9.08256 5.24492 9.06054 5.29957C9.03852 5.35423 9.00587 5.40396 8.96447 5.4459C8.92307 5.48783 8.87376 5.52113 8.81939 5.54385C8.76503 5.56657 8.70669 5.57827 8.64776 5.57827H3.36585C3.24631 5.57827 3.13166 5.53078 3.04712 5.44624C2.96259 5.36171 2.9151 5.24706 2.9151 5.12751C2.9151 5.00796 2.96259 4.89331 3.04712 4.80878C3.13166 4.72425 3.24631 4.67676 3.36585 4.67676H8.64776C8.70669 4.67675 8.76503 4.68845 8.81939 4.71117C8.87376 4.7339 8.92307 4.76719 8.96447 4.80912C9.00587 4.85106 9.03852 4.9008 9.06054 4.95545ZM7.2002 7.77685C7.22186 7.83113 7.23261 7.88914 7.23185 7.94758C7.23261 8.00602 7.22186 8.06403 7.2002 8.11831C7.17854 8.17259 7.1464 8.22207 7.10562 8.26393C7.06483 8.30578 7.0162 8.3392 6.9625 8.36226C6.9088 8.38532 6.85109 8.39758 6.79265 8.39833H3.39466C3.27512 8.39833 3.16046 8.35084 3.07593 8.26631C2.9914 8.18178 2.94391 8.06713 2.94391 7.94758C2.94391 7.82803 2.9914 7.71338 3.07593 7.62885C3.16046 7.54432 3.27512 7.49683 3.39466 7.49683H6.79265C6.85109 7.49758 6.9088 7.50984 6.9625 7.5329C7.0162 7.55596 7.06483 7.58937 7.10562 7.63123C7.1464 7.67309 7.17854 7.72257 7.2002 7.77685ZM7.93764 2.14296C7.99057 2.16447 8.04728 2.17515 8.10442 2.17437C8.21937 2.17437 8.32961 2.12871 8.41089 2.04743C8.49217 1.96615 8.53783 1.8559 8.53783 1.74095V0.683417C8.53783 0.568468 8.49217 0.458226 8.41089 0.376945C8.32961 0.295663 8.21937 0.25 8.10442 0.25C7.98947 0.25 7.87923 0.295663 7.79794 0.376945C7.71666 0.458226 7.671 0.568468 7.671 0.683417V1.74095C7.67022 1.79809 7.6809 1.8548 7.70241 1.90773C7.72391 1.96067 7.75581 2.00876 7.79621 2.04916C7.83661 2.08956 7.8847 2.12146 7.93764 2.14296Z" fill="#0C1892"/>
</g>
<defs>
<clipPath id="clip0_27_294">
<rect width="12" height="12" fill="white"/>
</clipPath>
</defs>
</svg>
