<svg width="44" height="45" viewBox="0 0 44 45" fill="none" xmlns="http://www.w3.org/2000/svg">
<rect y="0.592285" width="44" height="44" rx="22" fill="#E7F1FF"/>
<path d="M27.4747 17.2168C27.4747 18.2798 27.1536 19.3189 26.5521 20.2027C25.9505 21.0865 25.0955 21.7754 24.0951 22.1822C23.0947 22.589 21.9939 22.6954 20.9319 22.488C19.8699 22.2807 18.8944 21.7688 18.1288 21.0171C17.3631 20.2655 16.8417 19.3079 16.6305 18.2653C16.4192 17.2228 16.5276 16.1421 16.942 15.1601C17.3564 14.178 18.0581 13.3386 18.9584 12.7481C19.8587 12.1575 20.9172 11.8423 22 11.8423C23.452 11.8423 24.8445 12.4085 25.8712 13.4164C26.8979 14.4244 27.4747 15.7914 27.4747 17.2168ZM30.4311 33.3403C30.6101 33.3503 30.7891 33.3223 30.9561 33.2582C31.1231 33.1942 31.2741 33.0955 31.3987 32.9691C31.5234 32.8426 31.6189 32.6912 31.6786 32.5253C31.7384 32.3594 31.761 32.1827 31.745 32.0074C31.0442 27.9658 26.9492 24.8593 22 24.8593C17.0508 24.8593 12.9558 27.9658 12.255 32.0074C12.239 32.1827 12.2616 32.3594 12.3214 32.5253C12.3811 32.6912 12.4766 32.8426 12.6013 32.9691C12.7259 33.0955 12.8769 33.1942 13.0439 33.2582C13.2109 33.3223 13.3899 33.3503 13.5689 33.3403H30.4311Z" fill="#0311D0"/>
</svg>
