<svg width="39" height="39" viewBox="0 0 39 39" fill="none" xmlns="http://www.w3.org/2000/svg">
<rect x="0.5" y="0.5" width="38" height="38" rx="6" fill="#710C92" fill-opacity="0.1"/>
<path opacity="0.3" fill-rule="evenodd" clip-rule="evenodd" d="M21.4025 13.8025C21.4025 16.5929 19.1212 18.8549 16.307 18.8549C13.4929 18.8549 11.2115 16.5929 11.2115 13.8025C11.2115 11.0121 13.4929 8.75 16.307 8.75C19.1212 8.75 21.4025 11.0121 21.4025 13.8025ZM22.5097 11.2872C23.0437 11.033 23.6276 10.9008 24.219 10.9002C24.8767 10.8964 25.5253 11.0532 26.1087 11.3569C26.6921 11.6606 27.1925 12.1021 27.5666 12.643C27.9407 13.184 28.1772 13.808 28.2554 14.4611C28.3337 15.1141 28.2514 15.7763 28.0158 16.3904C27.7801 17.0044 27.3982 17.5516 26.9031 17.9846C26.408 18.4176 25.8148 18.7232 25.1748 18.875C24.5349 19.0267 23.8676 19.0201 23.2308 18.8555C22.594 18.6909 22.007 18.3735 21.5207 17.9306C22.2703 17.0159 22.758 15.9151 22.9322 14.7454C23.1063 13.5757 22.9603 12.3806 22.5097 11.2872Z" fill="#710C92"/>
<path fill-rule="evenodd" clip-rule="evenodd" d="M22.424 20.2201C23.0146 20.0981 23.6161 20.0369 24.2192 20.0374C27.5517 20.0374 30.2499 21.9293 30.2499 24.0793C30.2499 26.2293 27.7344 27.9816 24.5739 28.0998C25.151 27.2414 25.4614 26.2316 25.4662 25.1973C25.4235 24.1776 25.1218 23.1856 24.5895 22.3148C24.0573 21.444 23.312 20.7231 22.424 20.2201ZM23.8644 25.1973C23.8644 27.9877 20.4809 30.2498 16.3072 30.2498C12.1335 30.2498 8.75 27.9877 8.75 25.1973C8.75 22.4069 12.1335 20.1448 16.3072 20.1448C20.4809 20.1448 23.8644 22.4069 23.8644 25.1973Z" fill="#710C92"/>
</svg>
